<svg width="18" height="15" viewBox="0 0 18 15" fill="none" xmlns="http://www.w3.org/2000/svg">
<path d="M1.35475 0.00679083C1.37693 0.00673331 1.3991 0.00667579 1.42195 0.00661653C1.44666 0.00664132 1.47137 0.00666772 1.49607 0.00669556C1.52235 0.00666124 1.54863 0.00661925 1.57491 0.00657026C1.64755 0.0064575 1.72019 0.00645494 1.79282 0.00646967C1.87169 0.0064667 1.95056 0.00636294 2.02942 0.00627208C2.18604 0.00610793 2.34265 0.00603917 2.49927 0.00599928C2.68678 0.00594727 2.8743 0.00579442 3.06182 0.00564044C3.5151 0.00527379 3.96838 0.00508996 4.42166 0.00493504C4.63602 0.00486113 4.85039 0.00476933 5.06476 0.00467691C5.79834 0.00436241 6.53192 0.0040988 7.26549 0.00396816C7.31156 0.00395981 7.35763 0.00395145 7.40369 0.00394306C7.43796 0.00393683 7.43796 0.00393683 7.47292 0.00393047C7.58867 0.00390935 7.70442 0.00388799 7.82017 0.00386645C7.84314 0.00386223 7.86611 0.00385801 7.88977 0.00385366C8.63468 0.00371489 9.37959 0.00330296 10.1245 0.00273168C10.9118 0.00212901 11.699 0.00178232 12.4863 0.00172441C12.5727 0.00171707 12.6591 0.00170864 12.7455 0.00169939C12.7668 0.00169723 12.788 0.00169506 12.8099 0.00169283C13.1526 0.00165181 13.4952 0.00137637 13.8378 0.00101663C14.182 0.000660858 14.5263 0.000564088 14.8706 0.000731343C15.0752 0.000823143 15.2798 0.000719087 15.4844 0.000335226C15.621 9.82007e-05 15.7577 0.000116339 15.8943 0.000342292C15.9722 0.000463801 16.0501 0.000474339 16.128 0.000174243C16.1989 -9.6786e-05 16.2698 -4.13953e-05 16.3407 0.000269346C16.3661 0.000324508 16.3916 0.000263001 16.417 6.73426e-05C16.6785 -0.00181306 16.9129 0.0679085 17.1119 0.244849C17.2617 0.403711 17.3863 0.61315 17.3865 0.836528C17.3866 0.854672 17.3866 0.872817 17.3867 0.891512C17.3867 0.911459 17.3866 0.931406 17.3866 0.951958C17.3866 0.973226 17.3867 0.994494 17.3867 1.01641C17.3868 1.07573 17.3868 1.13505 17.3868 1.19437C17.3868 1.2588 17.3869 1.32323 17.387 1.38766C17.3872 1.51558 17.3873 1.6435 17.3873 1.77142C17.3874 1.92459 17.3875 2.07776 17.3877 2.23093C17.388 2.60119 17.3882 2.97145 17.3884 3.34171C17.3884 3.51684 17.3885 3.69197 17.3886 3.8671C17.3889 4.46646 17.3892 5.06583 17.3893 5.66519C17.3893 5.70283 17.3893 5.74046 17.3894 5.7781C17.3894 5.80609 17.3894 5.80609 17.3894 5.83466C17.3894 5.92922 17.3894 6.02378 17.3894 6.11835C17.3894 6.13711 17.3894 6.15588 17.3894 6.17522C17.3896 6.78371 17.39 7.39221 17.3906 8.0007C17.3912 8.64389 17.3915 9.28707 17.3916 9.93026C17.3916 10.0009 17.3916 10.0715 17.3916 10.1421C17.3916 10.1594 17.3916 10.1768 17.3916 10.1947C17.3916 10.4746 17.3919 10.7544 17.3923 11.0343C17.3926 11.3155 17.3927 11.5968 17.3926 11.878C17.3925 12.0452 17.3926 12.2123 17.393 12.3794C17.3932 12.491 17.3932 12.6027 17.393 12.7144C17.3928 12.778 17.3928 12.8415 17.3931 12.9052C17.3934 12.9738 17.3932 13.0424 17.3929 13.111C17.3931 13.1306 17.3933 13.1502 17.3935 13.1704C17.3914 13.4033 17.3042 13.6241 17.1485 13.7992C16.9816 13.9565 16.7712 14.0737 16.5387 14.0738C16.5166 14.0739 16.4944 14.0739 16.4715 14.074C16.4468 14.074 16.4221 14.0739 16.3974 14.0739C16.3711 14.0739 16.3449 14.074 16.3186 14.074C16.2459 14.0742 16.1733 14.0742 16.1007 14.0741C16.0218 14.0741 15.9429 14.0742 15.8641 14.0743C15.7075 14.0745 15.5508 14.0746 15.3942 14.0746C15.2067 14.0747 15.0192 14.0748 14.8317 14.075C14.3784 14.0753 13.9251 14.0755 13.4718 14.0757C13.2575 14.0758 13.0431 14.0758 12.8287 14.0759C12.0952 14.0763 11.3616 14.0765 10.628 14.0766C10.5819 14.0767 10.5359 14.0767 10.4898 14.0767C10.4555 14.0767 10.4555 14.0767 10.4206 14.0767C10.3048 14.0767 10.1891 14.0767 10.0733 14.0767C10.0504 14.0767 10.0274 14.0768 10.0037 14.0768C9.25881 14.0769 8.5139 14.0773 7.76899 14.0779C6.98173 14.0785 6.19447 14.0788 5.4072 14.0789C5.3208 14.0789 5.23441 14.0789 5.14801 14.0789C5.12674 14.0789 5.10546 14.0789 5.08354 14.0789C4.74094 14.079 4.39833 14.0792 4.05573 14.0796C3.71145 14.08 3.36718 14.08 3.0229 14.0799C2.8183 14.0798 2.6137 14.0799 2.40909 14.0803C2.27244 14.0805 2.1358 14.0805 1.99915 14.0803C1.92127 14.0801 1.8434 14.0801 1.76552 14.0804C1.69461 14.0807 1.62371 14.0807 1.5528 14.0803C1.52737 14.0803 1.50194 14.0803 1.47651 14.0805C1.21497 14.0824 0.980555 14.0127 0.781638 13.8358C0.631775 13.6769 0.507167 13.4675 0.506981 13.2441C0.506895 13.2169 0.506895 13.2169 0.506807 13.1891C0.506833 13.1692 0.506859 13.1492 0.506886 13.1287C0.506845 13.1074 0.506803 13.0861 0.506761 13.0642C0.506664 13.0049 0.506645 12.9456 0.50666 12.8862C0.506657 12.8218 0.506553 12.7574 0.506463 12.693C0.506298 12.565 0.50623 12.4371 0.50619 12.3092C0.506138 12.156 0.505985 12.0029 0.505831 11.8497C0.505464 11.4794 0.50528 11.1092 0.505126 10.7389C0.505052 10.5638 0.50496 10.3886 0.504867 10.2135C0.504553 9.61415 0.504289 9.01479 0.504159 8.41542C0.50415 8.37779 0.504142 8.34015 0.504134 8.30251C0.504129 8.28385 0.504125 8.26519 0.504121 8.24596C0.5041 8.15139 0.504079 8.05683 0.504057 7.96227C0.504053 7.9435 0.504049 7.92473 0.504044 7.9054C0.503905 7.2969 0.503494 6.6884 0.502922 6.07991C0.502319 5.43672 0.501973 4.79354 0.501915 4.15036C0.501908 4.07976 0.501899 4.00916 0.50189 3.93856C0.501888 3.92118 0.501886 3.90379 0.501883 3.88588C0.501842 3.60604 0.501567 3.3262 0.501207 3.04636C0.500851 2.76509 0.500755 2.48383 0.500922 2.20257C0.501014 2.03545 0.50091 1.86835 0.500526 1.70123C0.500288 1.58958 0.500307 1.47792 0.500533 1.36626C0.500654 1.30266 0.500665 1.23906 0.500365 1.17546C0.500043 1.10686 0.500268 1.03826 0.500544 0.969654C0.500365 0.950036 0.500185 0.930419 0.5 0.910206C0.502046 0.677291 0.58931 0.456519 0.74504 0.281447C0.911854 0.124083 1.12225 0.00694848 1.35475 0.00679083Z" fill="white"/>
<path d="M1.35475 0.00679083C1.37693 0.00673331 1.3991 0.00667579 1.42195 0.00661653C1.44666 0.00664132 1.47137 0.00666772 1.49607 0.00669556C1.52235 0.00666124 1.54863 0.00661925 1.57491 0.00657026C1.64755 0.0064575 1.72019 0.00645494 1.79282 0.00646967C1.87169 0.0064667 1.95056 0.00636294 2.02942 0.00627208C2.18604 0.00610793 2.34265 0.00603917 2.49927 0.00599928C2.68678 0.00594727 2.8743 0.00579442 3.06182 0.00564044C3.5151 0.00527379 3.96838 0.00508996 4.42166 0.00493504C4.63602 0.00486113 4.85039 0.00476933 5.06476 0.00467691C5.79834 0.00436241 6.53192 0.0040988 7.26549 0.00396816C7.31156 0.00395981 7.35763 0.00395145 7.40369 0.00394306C7.43796 0.00393683 7.43796 0.00393683 7.47292 0.00393047C7.58867 0.00390935 7.70442 0.00388799 7.82017 0.00386645C7.84314 0.00386223 7.86611 0.00385801 7.88977 0.00385366C8.63468 0.00371489 9.37959 0.00330296 10.1245 0.00273168C10.9118 0.00212901 11.699 0.00178232 12.4863 0.00172441C12.5727 0.00171707 12.6591 0.00170864 12.7455 0.00169939C12.7668 0.00169723 12.788 0.00169506 12.8099 0.00169283C13.1526 0.00165181 13.4952 0.00137637 13.8378 0.00101663C14.182 0.000660858 14.5263 0.000564088 14.8706 0.000731343C15.0752 0.000823143 15.2798 0.000719087 15.4844 0.000335226C15.621 9.82007e-05 15.7577 0.000116339 15.8943 0.000342292C15.9722 0.000463801 16.0501 0.000474339 16.128 0.000174243C16.1989 -9.6786e-05 16.2698 -4.13953e-05 16.3407 0.000269346C16.3661 0.000324508 16.3916 0.000263001 16.417 6.73426e-05C16.6785 -0.00181306 16.9129 0.0679085 17.1119 0.244849C17.2617 0.403711 17.3863 0.61315 17.3865 0.836528C17.3866 0.854672 17.3866 0.872817 17.3867 0.891512C17.3867 0.911459 17.3866 0.931406 17.3866 0.951958C17.3866 0.973226 17.3867 0.994494 17.3867 1.01641C17.3868 1.07573 17.3868 1.13505 17.3868 1.19437C17.3868 1.2588 17.3869 1.32323 17.387 1.38766C17.3872 1.51558 17.3873 1.6435 17.3873 1.77142C17.3874 1.92459 17.3875 2.07776 17.3877 2.23093C17.388 2.60119 17.3882 2.97145 17.3884 3.34171C17.3884 3.51684 17.3885 3.69197 17.3886 3.8671C17.3889 4.46646 17.3892 5.06583 17.3893 5.66519C17.3893 5.70283 17.3893 5.74046 17.3894 5.7781C17.3894 5.80609 17.3894 5.80609 17.3894 5.83466C17.3894 5.92922 17.3894 6.02378 17.3894 6.11835C17.3894 6.13711 17.3894 6.15588 17.3894 6.17522C17.3896 6.78371 17.39 7.39221 17.3906 8.0007C17.3912 8.64389 17.3915 9.28707 17.3916 9.93026C17.3916 10.0009 17.3916 10.0715 17.3916 10.1421C17.3916 10.1594 17.3916 10.1768 17.3916 10.1947C17.3916 10.4746 17.3919 10.7544 17.3923 11.0343C17.3926 11.3155 17.3927 11.5968 17.3926 11.878C17.3925 12.0452 17.3926 12.2123 17.393 12.3794C17.3932 12.491 17.3932 12.6027 17.393 12.7144C17.3928 12.778 17.3928 12.8415 17.3931 12.9052C17.3934 12.9738 17.3932 13.0424 17.3929 13.111C17.3931 13.1306 17.3933 13.1502 17.3935 13.1704C17.3914 13.4033 17.3042 13.6241 17.1485 13.7992C16.9816 13.9565 16.7712 14.0737 16.5387 14.0738C16.5166 14.0739 16.4944 14.0739 16.4715 14.074C16.4468 14.074 16.4221 14.0739 16.3974 14.0739C16.3711 14.0739 16.3449 14.074 16.3186 14.074C16.2459 14.0742 16.1733 14.0742 16.1007 14.0741C16.0218 14.0741 15.9429 14.0742 15.8641 14.0743C15.7075 14.0745 15.5508 14.0746 15.3942 14.0746C15.2067 14.0747 15.0192 14.0748 14.8317 14.075C14.3784 14.0753 13.9251 14.0755 13.4718 14.0757C13.2575 14.0758 13.0431 14.0758 12.8287 14.0759C12.0952 14.0763 11.3616 14.0765 10.628 14.0766C10.5819 14.0767 10.5359 14.0767 10.4898 14.0767C10.4555 14.0767 10.4555 14.0767 10.4206 14.0767C10.3048 14.0767 10.1891 14.0767 10.0733 14.0767C10.0504 14.0767 10.0274 14.0768 10.0037 14.0768C9.25881 14.0769 8.5139 14.0773 7.76899 14.0779C6.98173 14.0785 6.19447 14.0788 5.4072 14.0789C5.3208 14.0789 5.23441 14.0789 5.14801 14.0789C5.12674 14.0789 5.10546 14.0789 5.08354 14.0789C4.74094 14.079 4.39833 14.0792 4.05573 14.0796C3.71145 14.08 3.36718 14.08 3.0229 14.0799C2.8183 14.0798 2.6137 14.0799 2.40909 14.0803C2.27244 14.0805 2.1358 14.0805 1.99915 14.0803C1.92127 14.0801 1.8434 14.0801 1.76552 14.0804C1.69461 14.0807 1.62371 14.0807 1.5528 14.0803C1.52737 14.0803 1.50194 14.0803 1.47651 14.0805C1.21497 14.0824 0.980555 14.0127 0.781638 13.8358C0.631775 13.6769 0.507167 13.4675 0.506981 13.2441C0.506895 13.2169 0.506895 13.2169 0.506807 13.1891C0.506833 13.1692 0.506859 13.1492 0.506886 13.1287C0.506845 13.1074 0.506803 13.0861 0.506761 13.0642C0.506664 13.0049 0.506645 12.9456 0.50666 12.8862C0.506657 12.8218 0.506553 12.7574 0.506463 12.693C0.506298 12.565 0.50623 12.4371 0.50619 12.3092C0.506138 12.156 0.505985 12.0029 0.505831 11.8497C0.505464 11.4794 0.50528 11.1092 0.505126 10.7389C0.505052 10.5638 0.50496 10.3886 0.504867 10.2135C0.504553 9.61415 0.504289 9.01479 0.504159 8.41542C0.50415 8.37779 0.504142 8.34015 0.504134 8.30251C0.504129 8.28385 0.504125 8.26519 0.504121 8.24596C0.5041 8.15139 0.504079 8.05683 0.504057 7.96227C0.504053 7.9435 0.504049 7.92473 0.504044 7.9054C0.503905 7.2969 0.503494 6.6884 0.502922 6.07991C0.502319 5.43672 0.501973 4.79354 0.501915 4.15036C0.501908 4.07976 0.501899 4.00916 0.50189 3.93856C0.501888 3.92118 0.501886 3.90379 0.501883 3.88588C0.501842 3.60604 0.501567 3.3262 0.501207 3.04636C0.500851 2.76509 0.500755 2.48383 0.500922 2.20257C0.501014 2.03545 0.50091 1.86835 0.500526 1.70123C0.500288 1.58958 0.500307 1.47792 0.500533 1.36626C0.500654 1.30266 0.500665 1.23906 0.500365 1.17546C0.500043 1.10686 0.500268 1.03826 0.500544 0.969654C0.500365 0.950036 0.500185 0.930419 0.5 0.910206C0.502046 0.677291 0.58931 0.456519 0.74504 0.281447C0.911854 0.124083 1.12225 0.00694848 1.35475 0.00679083ZM1.07175 2.82156C1.0703 4.53569 1.06885 6.24982 1.06735 8.01589C1.06671 8.55789 1.06607 9.09989 1.06541 9.65831C1.06518 10.1426 1.06518 10.1426 1.06503 10.6268C1.06496 10.8574 1.06466 11.088 1.06424 11.3186C1.06383 11.5536 1.06367 11.7886 1.06377 12.0237C1.06382 12.1635 1.06368 12.3033 1.06325 12.4431C1.06296 12.5462 1.06303 12.6493 1.06324 12.7524C1.06327 12.7941 1.06318 12.8359 1.06296 12.8777C1.06268 12.9345 1.06283 12.9912 1.06309 13.048C1.06291 13.0643 1.06272 13.0806 1.06253 13.0975C1.06379 13.2185 1.09248 13.3121 1.17337 13.404C1.18334 13.4118 1.19331 13.4197 1.20358 13.4278C1.21355 13.4359 1.22352 13.444 1.23379 13.4523C1.30478 13.5012 1.35458 13.5135 1.44148 13.5135C1.4634 13.5136 1.48532 13.5137 1.5079 13.5138C1.53231 13.5137 1.55673 13.5137 1.58114 13.5136C1.60711 13.5136 1.63308 13.5137 1.65905 13.5138C1.73083 13.5139 1.80261 13.5139 1.8744 13.5138C1.95233 13.5137 2.03027 13.5139 2.10821 13.514C2.24494 13.5142 2.38167 13.5142 2.51841 13.5142C2.72173 13.5141 2.92506 13.5143 3.12839 13.5145C3.51262 13.5148 3.89685 13.5149 4.28108 13.5149C4.57774 13.5149 4.8744 13.515 5.17106 13.5151C5.25637 13.5152 5.34167 13.5152 5.42698 13.5152C5.44819 13.5152 5.46939 13.5152 5.49124 13.5152C6.08796 13.5155 6.68468 13.5156 7.28139 13.5156C7.3039 13.5156 7.32642 13.5156 7.34961 13.5156C7.46371 13.5156 7.57781 13.5156 7.69191 13.5156C7.71457 13.5156 7.73723 13.5156 7.76058 13.5156C7.80641 13.5156 7.85224 13.5156 7.89807 13.5156C8.61119 13.5155 9.32432 13.5158 10.0374 13.5163C10.8381 13.5168 11.6388 13.5171 12.4395 13.5171C12.5248 13.5171 12.6101 13.5171 12.6954 13.5171C12.7165 13.5171 12.7375 13.5171 12.7591 13.5171C13.0977 13.5171 13.4362 13.5173 13.7748 13.5176C14.1149 13.5179 14.455 13.518 14.7951 13.5177C14.9973 13.5176 15.1995 13.5177 15.4017 13.518C15.5367 13.5182 15.6716 13.5182 15.8066 13.5179C15.8835 13.5178 15.9605 13.5178 16.0375 13.518C16.1075 13.5183 16.1775 13.5182 16.2475 13.5179C16.2726 13.5178 16.2978 13.5179 16.323 13.5181C16.4791 13.5192 16.5944 13.5136 16.7167 13.4081C16.7245 13.3982 16.7324 13.3884 16.7404 13.3783C16.7486 13.3686 16.7567 13.3588 16.765 13.3487C16.8277 13.2527 16.8267 13.1657 16.8261 13.0545C16.8261 13.0368 16.8262 13.0191 16.8262 13.0009C16.8263 12.9413 16.8261 12.8818 16.826 12.8222C16.826 12.7793 16.826 12.7364 16.8261 12.6935C16.8261 12.5999 16.8261 12.5063 16.8259 12.4128C16.8257 12.2718 16.8257 12.1309 16.8257 11.9899C16.8258 11.7537 16.8257 11.5175 16.8255 11.2813C16.8252 10.962 16.8251 10.6426 16.8251 10.3232C16.8249 9.55521 16.8244 8.7872 16.8239 8.01919C16.8232 6.30397 16.8225 4.58875 16.8217 2.82156C11.6242 2.82156 6.42675 2.82156 1.07175 2.82156Z" fill="#4B5563"/>
<path d="M8.28294 3.93574C8.29873 3.93564 8.31452 3.93554 8.33079 3.93544C8.3827 3.93524 8.43458 3.93566 8.48649 3.93612C8.52271 3.93615 8.55893 3.93615 8.59516 3.93612C8.67095 3.93614 8.74672 3.93647 8.82251 3.93703C8.91955 3.93773 9.01657 3.9378 9.11361 3.93767C9.18836 3.93762 9.26311 3.93783 9.33786 3.93813C9.37364 3.93825 9.40942 3.93831 9.4452 3.93829C9.49522 3.93832 9.54523 3.9387 9.59525 3.93917C9.60997 3.93912 9.62468 3.93907 9.63984 3.93902C9.73831 3.94045 9.81489 3.95642 9.88972 4.02627C9.95499 4.11163 9.96838 4.14908 9.96937 4.25637C9.96977 4.28029 9.9702 4.30421 9.97064 4.32812C9.97125 4.36565 9.97177 4.40316 9.97201 4.44069C9.97332 4.61423 9.98065 4.77162 10.0959 4.91115C10.2404 5.02813 10.3451 5.05076 10.5288 5.0364C10.6561 5.00878 10.7328 4.92697 10.8202 4.83487C11.0646 4.57899 11.0646 4.57899 11.2077 4.57168C11.2221 4.57061 11.2365 4.56955 11.2513 4.56845C11.418 4.60418 11.5648 4.80173 11.6816 4.91891C11.7045 4.94181 11.7274 4.9647 11.7504 4.98759C11.7982 5.03536 11.8459 5.08319 11.8937 5.13107C11.9547 5.19234 12.016 5.25345 12.0772 5.31452C12.1245 5.36168 12.1717 5.40891 12.2189 5.45617C12.2414 5.47874 12.264 5.50129 12.2866 5.52381C12.3182 5.55527 12.3496 5.58684 12.381 5.61844C12.3903 5.62765 12.3996 5.63687 12.4091 5.64637C12.4682 5.70612 12.5246 5.76445 12.5397 5.84932C12.5395 5.86203 12.5394 5.87474 12.5393 5.88784C12.5394 5.90051 12.5395 5.91317 12.5397 5.92622C12.5158 6.06878 12.405 6.15193 12.3054 6.24603C12.1728 6.37412 12.0744 6.49262 12.0691 6.68215C12.0694 6.80293 12.0975 6.87191 12.1635 6.96999C12.1693 6.98739 12.1751 7.0048 12.1811 7.02273C12.2119 7.04179 12.2119 7.04179 12.2514 7.05788C12.2688 7.06695 12.2862 7.07601 12.3042 7.08535C12.3872 7.12513 12.4523 7.13029 12.5445 7.13067C12.5674 7.13101 12.5904 7.13135 12.614 7.1317C12.6502 7.1322 12.6863 7.13259 12.7225 7.1326C12.9638 7.133 12.9638 7.133 13.067 7.2046C13.1591 7.2995 13.1758 7.37277 13.1743 7.4995C13.1745 7.52319 13.1745 7.52319 13.1746 7.54735C13.1748 7.59935 13.1745 7.65133 13.1742 7.70333C13.1742 7.73958 13.1742 7.77583 13.1743 7.81208C13.1743 7.88797 13.1741 7.96385 13.1737 8.03974C13.1732 8.13692 13.1732 8.23408 13.1735 8.33126C13.1736 8.40609 13.1735 8.48091 13.1732 8.55574C13.1732 8.59157 13.1732 8.62739 13.1732 8.66322C13.1733 8.71333 13.173 8.76342 13.1726 8.81353C13.1727 8.82827 13.1728 8.84301 13.1728 8.8582C13.1716 8.95681 13.1557 9.03333 13.0858 9.10828C13.0004 9.17358 12.9624 9.18701 12.8551 9.18854C12.8311 9.18904 12.8071 9.18954 12.7831 9.19005C12.7454 9.19077 12.7077 9.19142 12.67 9.19189C12.4763 9.1945 12.3052 9.19813 12.1635 9.34304C12.0929 9.44374 12.0724 9.53146 12.068 9.65285C12.0669 9.67302 12.0658 9.69319 12.0647 9.71397C12.0925 9.88808 12.2206 10.0065 12.3437 10.1231C12.3721 10.1502 12.4004 10.1775 12.4286 10.2048C12.4472 10.2224 12.4472 10.2224 12.4662 10.2404C12.5169 10.2959 12.5381 10.3449 12.5404 10.4197C12.5411 10.4321 12.5418 10.4445 12.5425 10.4573C12.5169 10.5769 12.4244 10.672 12.34 10.7558C12.3298 10.766 12.3197 10.7762 12.3093 10.7867C12.2763 10.8201 12.2431 10.8533 12.2098 10.8864C12.1866 10.9097 12.1634 10.933 12.1401 10.9564C12.0916 11.0051 12.043 11.0536 11.9943 11.1021C11.9321 11.1642 11.8701 11.2265 11.8082 11.2889C11.7604 11.3371 11.7124 11.3851 11.6643 11.433C11.6414 11.4559 11.6186 11.4789 11.5958 11.5019C11.5638 11.5341 11.5317 11.566 11.4995 11.5979C11.4902 11.6074 11.4809 11.6168 11.4714 11.6266C11.3901 11.7062 11.3134 11.7445 11.1989 11.7611C11.0302 11.7538 10.8988 11.5802 10.7931 11.4655C10.6979 11.366 10.6066 11.3073 10.4695 11.2843C10.3367 11.2844 10.2325 11.3009 10.1245 11.3821C10.0214 11.4884 9.97962 11.5891 9.97967 11.7373C9.97939 11.762 9.97911 11.7867 9.97881 11.8114C9.97852 11.85 9.97836 11.8885 9.97849 11.927C9.97881 12.1845 9.97881 12.1845 9.9092 12.2861C9.8085 12.3764 9.72382 12.3944 9.59298 12.3932C9.56929 12.3933 9.56929 12.3933 9.54512 12.3935C9.49322 12.3938 9.44133 12.3936 9.38943 12.3934C9.3532 12.3934 9.31698 12.3935 9.28076 12.3936C9.20497 12.3937 9.12919 12.3936 9.0534 12.3932C8.95636 12.3928 8.85934 12.3931 8.7623 12.3935C8.68755 12.3937 8.6128 12.3936 8.53805 12.3935C8.50227 12.3934 8.46649 12.3935 8.43072 12.3936C8.38069 12.3938 8.33069 12.3935 8.28066 12.3932C8.26595 12.3933 8.25123 12.3934 8.23607 12.3936C8.14245 12.3922 8.0896 12.3754 8.0151 12.3137C7.93905 12.2274 7.92513 12.1843 7.92412 12.0698C7.92372 12.045 7.92329 12.0202 7.92285 11.9954C7.92224 11.9564 7.92172 11.9175 7.92148 11.8785C7.92022 11.7047 7.9134 11.5601 7.79867 11.4206C7.65324 11.3022 7.53288 11.2805 7.34714 11.2942C7.2294 11.3214 7.15489 11.4113 7.07392 11.4957C7.01588 11.5556 6.95393 11.6098 6.8901 11.6634C6.87379 11.6771 6.85748 11.6909 6.84067 11.7051C6.76415 11.7619 6.68282 11.7647 6.59128 11.7512C6.44559 11.6771 6.32599 11.5262 6.21191 11.4117C6.18899 11.3888 6.16606 11.3659 6.14313 11.343C6.09531 11.2953 6.04755 11.2474 5.99984 11.1995C5.93877 11.1383 5.87753 11.0772 5.81625 11.0161C5.76898 10.9689 5.72178 10.9217 5.67461 10.8744C5.65206 10.8519 5.62949 10.8293 5.60689 10.8068C5.57534 10.7753 5.54391 10.7438 5.5125 10.7122C5.50321 10.703 5.49393 10.6937 5.48436 10.6842C5.40925 10.6083 5.35329 10.5437 5.35312 10.434C5.35278 10.4197 5.35244 10.4054 5.35209 10.3907C5.37746 10.2578 5.50352 10.1648 5.59677 10.0752C5.71263 9.96218 5.80592 9.85903 5.82374 9.69199C5.82525 9.56752 5.81431 9.48325 5.74753 9.3782C5.73985 9.36001 5.73985 9.36001 5.73201 9.34146C5.70729 9.2992 5.68612 9.29302 5.64206 9.27273C5.62444 9.26357 5.62444 9.26357 5.60647 9.25422C5.4706 9.19111 5.33612 9.19297 5.18942 9.19363C5.14116 9.19384 5.09293 9.19359 5.04468 9.19308C5.02352 9.19316 5.00236 9.19323 4.98056 9.19332C4.88958 9.18028 4.83575 9.13653 4.77524 9.06948C4.71991 8.98956 4.72518 8.9131 4.72488 8.81952C4.72471 8.79584 4.72471 8.79585 4.72453 8.77169C4.72419 8.71941 4.72398 8.66713 4.72381 8.61485C4.72374 8.597 4.72366 8.57914 4.72359 8.56074C4.72322 8.46625 4.72297 8.37176 4.72281 8.27727C4.72261 8.17968 4.72201 8.08209 4.72131 7.9845C4.72085 7.90945 4.7207 7.8344 4.72064 7.75934C4.72055 7.72337 4.72035 7.6874 4.72002 7.65142C4.7196 7.60106 4.71961 7.55071 4.71973 7.50034C4.7194 7.4781 4.7194 7.4781 4.71905 7.45541C4.71988 7.36133 4.73619 7.30849 4.79831 7.23366C4.88464 7.15761 4.92771 7.14369 5.04227 7.14268C5.06707 7.14228 5.09187 7.14185 5.11667 7.14141C5.15562 7.1408 5.19457 7.14028 5.23353 7.14004C5.42119 7.13867 5.58969 7.12783 5.72995 6.98757C5.80003 6.88612 5.82107 6.79957 5.82553 6.67776C5.82659 6.65759 5.82766 6.63742 5.82876 6.61664C5.80101 6.44247 5.67323 6.32483 5.54977 6.20864C5.52136 6.18174 5.49307 6.15471 5.4649 6.12755C5.4525 6.11587 5.4401 6.10419 5.42733 6.09216C5.36868 6.02441 5.35169 5.95363 5.35412 5.86427C5.37505 5.74896 5.47338 5.65437 5.55382 5.57484C5.56395 5.56462 5.57408 5.5544 5.58452 5.54387C5.61764 5.51051 5.65096 5.47735 5.68429 5.4442C5.70756 5.42089 5.73083 5.39757 5.75409 5.37424C5.80269 5.32556 5.85138 5.27698 5.90015 5.22847C5.96253 5.16639 6.02466 5.10407 6.08674 5.04169C6.13467 4.99356 6.18273 4.94556 6.23083 4.8976C6.25379 4.87468 6.27671 4.85171 6.2996 4.8287C6.3316 4.79656 6.36377 4.7646 6.39599 4.73267C6.41001 4.7185 6.41001 4.7185 6.42431 4.70403C6.50151 4.62812 6.56866 4.58391 6.67697 4.57168C6.86132 4.58055 6.97177 4.72612 7.08855 4.85087C7.18552 4.95184 7.26783 5.02354 7.40852 5.04635C7.54678 5.0462 7.65678 5.03413 7.76901 4.94851C7.8774 4.83854 7.91372 4.72656 7.91444 4.57278C7.9148 4.54796 7.91517 4.52315 7.91554 4.49834C7.91594 4.45969 7.91623 4.42105 7.91633 4.3824C7.9165 4.34478 7.91709 4.30717 7.91774 4.26955C7.91788 4.24721 7.91803 4.22487 7.91818 4.20185C7.93219 4.10579 7.97672 4.04716 8.05154 3.98804C8.12723 3.93559 8.19297 3.93431 8.28294 3.93574Z" fill="#4B5563"/>
<path d="M1.44148 0.567107C1.47436 0.566962 1.47436 0.566962 1.5079 0.566813C1.53231 0.566883 1.55673 0.566956 1.58114 0.567032C1.60711 0.566985 1.63308 0.566922 1.65905 0.566846C1.73083 0.566679 1.80261 0.566732 1.8744 0.56682C1.95233 0.566877 2.03027 0.566732 2.10821 0.566612C2.24494 0.566431 2.38167 0.566382 2.51841 0.566418C2.72173 0.566471 2.92506 0.566325 3.12839 0.566141C3.51262 0.5658 3.89685 0.565702 4.28108 0.565682C4.57774 0.565666 4.8744 0.565593 5.17106 0.565481C5.25637 0.56545 5.34167 0.565418 5.42698 0.565387C5.45879 0.565376 5.45879 0.565376 5.49124 0.565364C6.08796 0.565147 6.68468 0.565009 7.28139 0.565024C7.3039 0.565025 7.32642 0.565025 7.34961 0.565026C7.46371 0.565029 7.57781 0.565032 7.69191 0.565036C7.7259 0.565037 7.7259 0.565037 7.76058 0.565038C7.80641 0.565039 7.85224 0.565041 7.89807 0.565042C8.61119 0.565064 9.32432 0.5648 10.0374 0.564319C10.8381 0.56378 11.6388 0.563477 12.4395 0.563509C12.5248 0.563512 12.6101 0.563514 12.6954 0.563515C12.727 0.563515 12.727 0.563515 12.7591 0.563516C13.0977 0.563517 13.4362 0.563292 13.7748 0.56299C14.1149 0.562692 14.455 0.562657 14.7951 0.562888C14.9973 0.563018 15.1995 0.562953 15.4017 0.562609C15.5367 0.562399 15.6716 0.562443 15.8066 0.562696C15.8835 0.562833 15.9605 0.562858 16.0375 0.562574C16.1075 0.562319 16.1775 0.562386 16.2475 0.562712C16.2726 0.562773 16.2978 0.562715 16.323 0.562526C16.4788 0.561432 16.5954 0.566416 16.7167 0.673178C16.7284 0.688133 16.7284 0.688133 16.7404 0.703391C16.7486 0.713361 16.7567 0.723331 16.765 0.733603C17.0536 1.15269 16.8217 1.75022 16.8217 2.25905C11.6242 2.25905 6.42675 2.25905 1.07175 2.25905C1.07175 0.835227 1.07175 0.835227 1.15964 0.694602C1.25249 0.607435 1.31408 0.567176 1.44148 0.567107Z" fill="white"/>
<path d="M8.28294 3.93574C8.29873 3.93564 8.31452 3.93554 8.33079 3.93544C8.3827 3.93524 8.43458 3.93566 8.48649 3.93612C8.52271 3.93615 8.55893 3.93615 8.59516 3.93612C8.67095 3.93614 8.74672 3.93647 8.82251 3.93703C8.91955 3.93773 9.01657 3.9378 9.11361 3.93767C9.18836 3.93762 9.26311 3.93783 9.33786 3.93813C9.37364 3.93825 9.40942 3.93831 9.4452 3.93829C9.49522 3.93832 9.54523 3.9387 9.59525 3.93917C9.60997 3.93912 9.62468 3.93907 9.63984 3.93902C9.73831 3.94045 9.81489 3.95642 9.88972 4.02627C9.95499 4.11163 9.96838 4.14908 9.96937 4.25637C9.96977 4.28029 9.9702 4.30421 9.97064 4.32812C9.97125 4.36565 9.97177 4.40316 9.97201 4.44069C9.97332 4.61423 9.98065 4.77162 10.0959 4.91115C10.2404 5.02813 10.3451 5.05076 10.5288 5.0364C10.6561 5.00878 10.7328 4.92697 10.8202 4.83487C11.0646 4.57899 11.0646 4.57899 11.2077 4.57168C11.2221 4.57061 11.2365 4.56955 11.2513 4.56845C11.418 4.60418 11.5648 4.80173 11.6816 4.91891C11.7045 4.94181 11.7274 4.9647 11.7504 4.98759C11.7982 5.03536 11.8459 5.08319 11.8937 5.13107C11.9547 5.19234 12.016 5.25345 12.0772 5.31452C12.1245 5.36168 12.1717 5.40891 12.2189 5.45617C12.2414 5.47874 12.264 5.50129 12.2866 5.52381C12.3182 5.55527 12.3496 5.58684 12.381 5.61844C12.3903 5.62765 12.3996 5.63687 12.4091 5.64637C12.4682 5.70612 12.5246 5.76445 12.5397 5.84932C12.5395 5.86203 12.5394 5.87474 12.5393 5.88784C12.5394 5.90051 12.5395 5.91317 12.5397 5.92622C12.5158 6.06878 12.405 6.15193 12.3054 6.24603C12.1728 6.37412 12.0744 6.49262 12.0691 6.68215C12.0694 6.80293 12.0975 6.87191 12.1635 6.96999C12.1693 6.98739 12.1751 7.0048 12.1811 7.02273C12.2119 7.04179 12.2119 7.04179 12.2514 7.05788C12.2688 7.06695 12.2862 7.07601 12.3042 7.08535C12.3872 7.12513 12.4523 7.13029 12.5445 7.13067C12.5674 7.13101 12.5904 7.13135 12.614 7.1317C12.6502 7.1322 12.6863 7.13259 12.7225 7.1326C12.9638 7.133 12.9638 7.133 13.067 7.2046C13.1591 7.2995 13.1758 7.37277 13.1743 7.4995C13.1745 7.52319 13.1745 7.52319 13.1746 7.54735C13.1748 7.59935 13.1745 7.65133 13.1742 7.70333C13.1742 7.73958 13.1742 7.77583 13.1743 7.81208C13.1743 7.88797 13.1741 7.96385 13.1737 8.03974C13.1732 8.13692 13.1732 8.23408 13.1735 8.33126C13.1736 8.40609 13.1735 8.48091 13.1732 8.55574C13.1732 8.59157 13.1732 8.62739 13.1732 8.66322C13.1733 8.71333 13.173 8.76342 13.1726 8.81353C13.1727 8.82827 13.1728 8.84301 13.1728 8.8582C13.1716 8.95681 13.1557 9.03333 13.0858 9.10828C13.0004 9.17358 12.9624 9.18701 12.8551 9.18854C12.8311 9.18904 12.8071 9.18954 12.7831 9.19005C12.7454 9.19077 12.7077 9.19142 12.67 9.19189C12.4763 9.1945 12.3052 9.19813 12.1635 9.34304C12.0929 9.44374 12.0724 9.53146 12.068 9.65285C12.0669 9.67302 12.0658 9.69319 12.0647 9.71397C12.0925 9.88808 12.2206 10.0065 12.3437 10.1231C12.3721 10.1502 12.4004 10.1775 12.4286 10.2048C12.4472 10.2224 12.4472 10.2224 12.4662 10.2404C12.5169 10.2959 12.5381 10.3449 12.5404 10.4197C12.5411 10.4321 12.5418 10.4445 12.5425 10.4573C12.5169 10.5769 12.4244 10.672 12.34 10.7558C12.3298 10.766 12.3197 10.7762 12.3093 10.7867C12.2763 10.8201 12.2431 10.8533 12.2098 10.8864C12.1866 10.9097 12.1634 10.933 12.1401 10.9564C12.0916 11.0051 12.043 11.0536 11.9943 11.1021C11.9321 11.1642 11.8701 11.2265 11.8082 11.2889C11.7604 11.3371 11.7124 11.3851 11.6643 11.433C11.6414 11.4559 11.6186 11.4789 11.5958 11.5019C11.5638 11.5341 11.5317 11.566 11.4995 11.5979C11.4902 11.6074 11.4809 11.6168 11.4714 11.6266C11.3901 11.7062 11.3134 11.7445 11.1989 11.7611C11.0302 11.7538 10.8988 11.5802 10.7931 11.4655C10.6979 11.366 10.6066 11.3073 10.4695 11.2843C10.3367 11.2844 10.2325 11.3009 10.1245 11.3821C10.0214 11.4884 9.97962 11.5891 9.97967 11.7373C9.97939 11.762 9.97911 11.7867 9.97881 11.8114C9.97852 11.85 9.97836 11.8885 9.97849 11.927C9.97881 12.1845 9.97881 12.1845 9.9092 12.2861C9.8085 12.3764 9.72382 12.3944 9.59298 12.3932C9.56929 12.3933 9.56929 12.3933 9.54512 12.3935C9.49322 12.3938 9.44133 12.3936 9.38943 12.3934C9.3532 12.3934 9.31698 12.3935 9.28076 12.3936C9.20497 12.3937 9.12919 12.3936 9.0534 12.3932C8.95636 12.3928 8.85934 12.3931 8.7623 12.3935C8.68755 12.3937 8.6128 12.3936 8.53805 12.3935C8.50227 12.3934 8.46649 12.3935 8.43072 12.3936C8.38069 12.3938 8.33069 12.3935 8.28066 12.3932C8.26595 12.3933 8.25123 12.3934 8.23607 12.3936C8.14245 12.3922 8.0896 12.3754 8.0151 12.3137C7.93905 12.2274 7.92513 12.1843 7.92412 12.0698C7.92372 12.045 7.92329 12.0202 7.92285 11.9954C7.92224 11.9564 7.92172 11.9175 7.92148 11.8785C7.92022 11.7047 7.9134 11.5601 7.79867 11.4206C7.65324 11.3022 7.53288 11.2805 7.34714 11.2942C7.2294 11.3214 7.15489 11.4113 7.07392 11.4957C7.01588 11.5556 6.95393 11.6098 6.8901 11.6634C6.87379 11.6771 6.85748 11.6909 6.84067 11.7051C6.76415 11.7619 6.68282 11.7647 6.59128 11.7512C6.44559 11.6771 6.32599 11.5262 6.21191 11.4117C6.18899 11.3888 6.16606 11.3659 6.14313 11.343C6.09531 11.2953 6.04755 11.2474 5.99984 11.1995C5.93877 11.1383 5.87753 11.0772 5.81625 11.0161C5.76898 10.9689 5.72178 10.9217 5.67461 10.8744C5.65206 10.8519 5.62949 10.8293 5.60689 10.8068C5.57534 10.7753 5.54391 10.7438 5.5125 10.7122C5.50321 10.703 5.49393 10.6937 5.48436 10.6842C5.40925 10.6083 5.35329 10.5437 5.35312 10.434C5.35278 10.4197 5.35244 10.4054 5.35209 10.3907C5.37746 10.2578 5.50352 10.1648 5.59677 10.0752C5.71263 9.96218 5.80592 9.85903 5.82374 9.69199C5.82525 9.56752 5.81431 9.48325 5.74753 9.3782C5.73985 9.36001 5.73985 9.36001 5.73201 9.34146C5.70729 9.2992 5.68612 9.29302 5.64206 9.27273C5.62444 9.26357 5.62444 9.26357 5.60647 9.25422C5.4706 9.19111 5.33612 9.19297 5.18942 9.19363C5.14116 9.19384 5.09293 9.19359 5.04468 9.19308C5.02352 9.19316 5.00236 9.19323 4.98056 9.19332C4.88958 9.18028 4.83575 9.13653 4.77524 9.06948C4.71991 8.98956 4.72518 8.9131 4.72488 8.81952C4.72471 8.79584 4.72471 8.79585 4.72453 8.77169C4.72419 8.71941 4.72398 8.66713 4.72381 8.61485C4.72374 8.597 4.72366 8.57914 4.72359 8.56074C4.72322 8.46625 4.72297 8.37176 4.72281 8.27727C4.72261 8.17968 4.72201 8.08209 4.72131 7.9845C4.72085 7.90945 4.7207 7.8344 4.72064 7.75934C4.72055 7.72337 4.72035 7.6874 4.72002 7.65142C4.7196 7.60106 4.71961 7.55071 4.71973 7.50034C4.7194 7.4781 4.7194 7.4781 4.71905 7.45541C4.71988 7.36133 4.73619 7.30849 4.79831 7.23366C4.88464 7.15761 4.92771 7.14369 5.04227 7.14268C5.06707 7.14228 5.09187 7.14185 5.11667 7.14141C5.15562 7.1408 5.19457 7.14028 5.23353 7.14004C5.42119 7.13867 5.58969 7.12783 5.72995 6.98757C5.80003 6.88612 5.82107 6.79957 5.82553 6.67776C5.82659 6.65759 5.82766 6.63742 5.82876 6.61664C5.80101 6.44247 5.67323 6.32483 5.54977 6.20864C5.52136 6.18174 5.49307 6.15471 5.4649 6.12755C5.4525 6.11587 5.4401 6.10419 5.42733 6.09216C5.36868 6.02441 5.35169 5.95363 5.35412 5.86427C5.37505 5.74896 5.47338 5.65437 5.55382 5.57484C5.56395 5.56462 5.57408 5.5544 5.58452 5.54387C5.61764 5.51051 5.65096 5.47735 5.68429 5.4442C5.70756 5.42089 5.73083 5.39757 5.75409 5.37424C5.80269 5.32556 5.85138 5.27698 5.90015 5.22847C5.96253 5.16639 6.02466 5.10407 6.08674 5.04169C6.13467 4.99356 6.18273 4.94556 6.23083 4.8976C6.25379 4.87468 6.27671 4.85171 6.2996 4.8287C6.3316 4.79656 6.36377 4.7646 6.39599 4.73267C6.41001 4.7185 6.41001 4.7185 6.42431 4.70403C6.50151 4.62812 6.56866 4.58391 6.67697 4.57168C6.86132 4.58055 6.97177 4.72612 7.08855 4.85087C7.18552 4.95184 7.26783 5.02354 7.40852 5.04635C7.54678 5.0462 7.65678 5.03413 7.76901 4.94851C7.8774 4.83854 7.91372 4.72656 7.91444 4.57278C7.9148 4.54796 7.91517 4.52315 7.91554 4.49834C7.91594 4.45969 7.91623 4.42105 7.91633 4.3824C7.9165 4.34478 7.91709 4.30717 7.91774 4.26955C7.91788 4.24721 7.91803 4.22487 7.91818 4.20185C7.93219 4.10579 7.97672 4.04716 8.05154 3.98804C8.12723 3.93559 8.19297 3.93431 8.28294 3.93574ZM8.48971 4.50905C8.47811 4.62507 8.46651 4.74109 8.45456 4.86062C8.39369 5.02652 8.33087 5.17173 8.20846 5.30007C8.19716 5.31208 8.18585 5.32409 8.1742 5.33646C7.97616 5.52902 7.70821 5.62596 7.43467 5.62262C7.16333 5.61309 6.94133 5.50326 6.74989 5.31277C6.71542 5.27679 6.71542 5.27679 6.66159 5.28249C6.63022 5.30617 6.63022 5.30617 6.59913 5.33897C6.58681 5.35129 6.5745 5.3636 6.56181 5.37629C6.54863 5.38975 6.53544 5.40321 6.52186 5.41707C6.50148 5.43756 6.50149 5.43756 6.4807 5.45846C6.43723 5.50222 6.39395 5.54616 6.35068 5.59011C6.32129 5.61976 6.29189 5.6494 6.26248 5.67903C6.1903 5.75179 6.11827 5.8247 6.04635 5.89773C6.06464 5.95258 6.08464 5.97065 6.12498 6.00958C6.33235 6.2318 6.39184 6.48214 6.38576 6.77684C6.37508 7.01214 6.26228 7.23858 6.10259 7.41048C5.86023 7.62442 5.61094 7.68538 5.2905 7.70827C5.2905 8.00991 5.2905 8.31155 5.2905 8.62234C5.38331 8.62814 5.47612 8.63394 5.57175 8.63991C5.85935 8.70091 6.08439 8.85581 6.24411 9.10024C6.38036 9.33412 6.41808 9.58453 6.36825 9.85061C6.36134 9.87501 6.35359 9.89919 6.34518 9.92312C6.33959 9.93943 6.33399 9.95575 6.32822 9.97256C6.26594 10.137 6.17308 10.2758 6.04635 10.3977C6.07539 10.4734 6.13279 10.5234 6.18952 10.5789C6.20019 10.5894 6.21085 10.6 6.22184 10.6109C6.25592 10.6447 6.2901 10.6783 6.32431 10.7119C6.35831 10.7455 6.39229 10.779 6.42621 10.8126C6.44729 10.8335 6.46842 10.8543 6.4896 10.875C6.55105 10.9358 6.6073 10.9985 6.66159 11.0657C6.71926 11.04 6.76127 11.007 6.80881 10.9657C7.05861 10.7629 7.32996 10.7015 7.64596 10.7317C7.81673 10.7616 7.96462 10.8411 8.103 10.9426C8.1141 10.9501 8.1252 10.9576 8.13664 10.9653C8.31972 11.1016 8.41872 11.3442 8.47214 11.5579C8.47794 11.6449 8.48374 11.7319 8.48971 11.8216C8.79136 11.8216 9.09299 11.8216 9.40378 11.8216C9.40958 11.7287 9.41538 11.6359 9.42135 11.5403C9.49152 11.2489 9.63464 11.0173 9.89267 10.857C10.1268 10.7311 10.4059 10.6801 10.6671 10.7537C10.6795 10.758 10.6918 10.7624 10.7046 10.7669C10.7211 10.7727 10.7376 10.7785 10.7546 10.7844C10.9183 10.8474 11.0608 10.9355 11.1792 11.0657C11.2549 11.0367 11.3049 10.9793 11.3603 10.9225C11.3709 10.9119 11.3815 10.9012 11.3924 10.8902C11.4261 10.8561 11.4598 10.8219 11.4934 10.7877C11.5269 10.7537 11.5604 10.7198 11.594 10.6858C11.6149 10.6648 11.6357 10.6436 11.6565 10.6224C11.7172 10.561 11.7799 10.5047 11.8471 10.4505C11.8198 10.3875 11.7812 10.3425 11.7362 10.2912C11.5513 10.0674 11.4922 9.80513 11.5132 9.51882C11.5424 9.27558 11.644 9.0501 11.8296 8.88601C12.0715 8.69813 12.2943 8.64439 12.603 8.62234C12.603 8.3207 12.603 8.01905 12.603 7.70827C12.4928 7.69667 12.3826 7.68507 12.269 7.67312C11.9932 7.59036 11.7802 7.4428 11.6367 7.19034C11.505 6.94133 11.4631 6.66522 11.5406 6.38991C11.6078 6.20602 11.7113 6.05502 11.8471 5.9153C11.8232 5.86176 11.7963 5.82498 11.7547 5.78376C11.7431 5.77215 11.7315 5.76054 11.7196 5.74858C11.707 5.73626 11.6945 5.72393 11.6817 5.71123C11.6688 5.69846 11.656 5.68568 11.6428 5.67252C11.6019 5.63178 11.5608 5.59117 11.5197 5.55056C11.4919 5.52294 11.4642 5.49531 11.4364 5.46768C11.3683 5.4 11.3001 5.33242 11.2319 5.26491C11.1742 5.29248 11.131 5.32423 11.0825 5.36599C10.8402 5.56171 10.5701 5.62341 10.2651 5.5989C10.0216 5.56688 9.80209 5.43906 9.64506 5.25262C9.56472 5.14625 9.50878 5.04056 9.4653 4.91445C9.46103 4.90232 9.45675 4.89019 9.45235 4.87769C9.41255 4.75143 9.41378 4.64918 9.40378 4.50905C9.10214 4.50905 8.8005 4.50905 8.48971 4.50905Z" fill="#4B5563"/>
<path d="M10.0025 6.83822C10.3627 7.14424 10.597 7.54069 10.6382 8.01738C10.6658 8.48339 10.5311 8.92649 10.2201 9.27822C10.1942 9.30578 10.1682 9.33326 10.1421 9.36062C10.1282 9.37649 10.1282 9.37649 10.114 9.39268C9.85755 9.67403 9.43689 9.83652 9.06258 9.86008C8.71374 9.87322 8.38516 9.80567 8.08542 9.62429C8.06561 9.61235 8.04581 9.60041 8.0254 9.5881C7.63838 9.3364 7.38951 8.95965 7.28575 8.51179C7.2074 8.09351 7.2665 7.66963 7.48776 7.30398C7.4997 7.28417 7.51164 7.26437 7.52395 7.24396C7.76827 6.86828 8.14349 6.60419 8.5809 6.50527C9.07812 6.40474 9.60311 6.52326 10.0025 6.83822Z" fill="white"/>
<path d="M9.9487 6.14382C9.97585 6.15684 9.97585 6.15684 10.0036 6.17012C10.5078 6.42847 10.9115 6.90482 11.0902 7.4424C11.2121 7.84254 11.2457 8.26639 11.144 8.67507C11.1402 8.69184 11.1364 8.70861 11.1325 8.72588C11.0379 9.11074 10.8342 9.44357 10.5639 9.72976C10.5501 9.74512 10.5363 9.76048 10.522 9.77631C10.2577 10.0584 9.89838 10.2474 9.52682 10.345C9.50833 10.35 9.48984 10.3551 9.47079 10.3602C9.16342 10.4409 8.81843 10.4469 8.50729 10.3801C8.49502 10.3776 8.48274 10.375 8.47009 10.3724C8.04037 10.2803 7.67718 10.0702 7.36471 9.76491C7.35085 9.75213 7.33698 9.73936 7.32269 9.72619C7.12417 9.53877 6.98981 9.30572 6.87253 9.06179C6.85951 9.0349 6.85951 9.0349 6.84623 9.00748C6.67792 8.61686 6.64338 8.13987 6.7319 7.72585C6.73559 7.70772 6.73559 7.70772 6.73936 7.68922C6.82575 7.27693 7.02532 6.8938 7.32956 6.60085C7.34297 6.58708 7.35639 6.5733 7.37021 6.5591C7.3858 6.54388 7.40139 6.52865 7.41745 6.51296C7.42887 6.50161 7.44029 6.49026 7.45205 6.47856C8.11287 5.84968 9.14582 5.74901 9.9487 6.14382ZM8.08542 6.70632C8.06561 6.71826 8.04581 6.7302 8.0254 6.74251C7.64972 6.98683 7.38563 7.36205 7.28671 7.79946C7.19445 8.25577 7.28789 8.72641 7.54104 9.11686C7.81477 9.49671 8.19836 9.76096 8.66343 9.84113C9.1061 9.90506 9.54805 9.81371 9.91677 9.55645C9.99651 9.49584 10.0697 9.42972 10.1421 9.36062C10.1526 9.35135 10.1632 9.34208 10.1741 9.33253C10.4683 9.06443 10.6151 8.63959 10.6415 8.25148C10.6555 7.91484 10.5802 7.59238 10.4057 7.30398C10.3938 7.28417 10.3818 7.26437 10.3695 7.24396C10.1178 6.85694 9.74109 6.60807 9.29323 6.50431C8.87495 6.42596 8.45107 6.48506 8.08542 6.70632Z" fill="#4B5563"/>
<path d="M1.63425 1.13405C3.4905 1.13405 5.34675 1.13405 7.25925 1.13405C7.25925 1.31968 7.25925 1.5053 7.25925 1.69655C5.403 1.69655 3.54675 1.69655 1.63425 1.69655C1.63425 1.51093 1.63425 1.3253 1.63425 1.13405Z" fill="#4B5563"/>
<path d="M15.1342 1.13405C15.3199 1.13405 15.5055 1.13405 15.6967 1.13405C15.6967 1.31968 15.6967 1.5053 15.6967 1.69655C15.5111 1.69655 15.3255 1.69655 15.1342 1.69655C15.1342 1.51093 15.1342 1.3253 15.1342 1.13405Z" fill="#4B5563"/>
<path d="M13.1655 1.13405C13.3511 1.13405 13.5367 1.13405 13.728 1.13405C13.728 1.31968 13.728 1.5053 13.728 1.69655C13.5424 1.69655 13.3567 1.69655 13.1655 1.69655C13.1655 1.51093 13.1655 1.3253 13.1655 1.13405Z" fill="#4B5563"/>
</svg>
