<svg width="48" height="37" viewBox="0 0 48 37" fill="none" xmlns="http://www.w3.org/2000/svg">
<path d="M8.14062 0C12.4306 0 16.7206 0 21.1406 0C21.1406 1.32 21.1406 2.64 21.1406 4C22.1061 5.0334 23.1121 6.02932 24.1406 7C25.9656 10.2644 27.5195 13.6263 29.1406 17C32.1106 11.39 35.0806 5.78 38.1406 0C40.7806 0 43.4206 0 46.1406 0C45.9776 0.697625 45.8147 1.39525 45.6467 2.11401C45.1059 5.19823 45.0275 8.04557 45.043 11.1758C45.0462 12.3327 45.0494 13.4896 45.0527 14.6816C45.0611 15.8798 45.0695 17.078 45.0781 18.3125C45.0826 19.53 45.0871 20.7475 45.0918 22.002C45.1036 25.0014 45.12 28.0007 45.1406 31C45.8006 31.33 46.4606 31.66 47.1406 32C47.1406 32.99 47.1406 33.98 47.1406 35C43.5106 35 39.8806 35 36.1406 35C36.1406 29.06 36.1406 23.12 36.1406 17C34.1606 20.96 32.1806 24.92 30.1406 29C28.8206 29 27.5006 29 26.1406 29C24.1606 25.04 22.1806 21.08 20.1406 17C20.0375 18.6912 19.9344 20.3825 19.8281 22.125C19.4155 26.828 18.6201 30.0113 16.1406 34C15.1506 34 14.1606 34 13.1406 34C13.1406 34.66 13.1406 35.32 13.1406 36C11.5368 36.0542 9.93251 36.0929 8.32812 36.125C7.4348 36.1482 6.54148 36.1714 5.62109 36.1953C3.14062 36 3.14062 36 0.140625 34C-0.046875 31.375 -0.046875 31.375 0.140625 29C1.46063 28.67 2.78062 28.34 4.14062 28C4.80063 29.65 5.46062 31.3 6.14062 33C9.2626 31.691 9.2626 31.691 11.1406 29C11.2255 27.1136 11.2478 25.2242 11.2383 23.3359C11.2351 22.2145 11.2318 21.093 11.2285 19.9375C11.2201 18.7619 11.2118 17.5862 11.2031 16.375C11.1986 15.1916 11.1941 14.0083 11.1895 12.7891C11.1776 9.85932 11.1612 6.92969 11.1406 4C10.1506 3.67 9.16062 3.34 8.14062 3C8.14062 2.01 8.14062 1.02 8.14062 0Z" fill="#A8A7A6"/>
<path d="M9.14062 1C12.7706 1 16.4006 1 20.1406 1C19.8106 1.66 19.4806 2.32 19.1406 3C19.01 5.06912 18.9379 7.14206 18.8945 9.21484C18.8617 10.4581 18.8288 11.7014 18.7949 12.9824C18.7338 15.6151 18.6765 18.248 18.623 20.8809C18.5889 22.1254 18.5547 23.37 18.5195 24.6523C18.4945 25.797 18.4694 26.9416 18.4436 28.1208C18.1406 31 18.1406 31 16.1406 34C15.1506 34 14.1606 34 13.1406 34C13.1406 34.66 13.1406 35.32 13.1406 36C11.5368 36.0542 9.93251 36.0929 8.32812 36.125C7.4348 36.1482 6.54148 36.1714 5.62109 36.1953C3.14062 36 3.14062 36 0.140625 34C-0.046875 31.375 -0.046875 31.375 0.140625 29C1.46063 28.67 2.78062 28.34 4.14062 28C4.80063 29.65 5.46062 31.3 6.14062 33C9.2626 31.691 9.2626 31.691 11.1406 29C11.2259 26.9677 11.2478 24.9325 11.2383 22.8984C11.2351 21.6867 11.2318 20.475 11.2285 19.2266C11.2201 17.9555 11.2118 16.6845 11.2031 15.375C11.1986 14.0963 11.1941 12.8175 11.1895 11.5C11.1776 8.33329 11.1612 5.16667 11.1406 2C10.4806 1.67 9.82063 1.34 9.14062 1Z" fill="#B59E44"/>
<path d="M8.14062 0C12.4306 0 16.7206 0 21.1406 0C21.4706 1.98 21.8006 3.96 22.1406 6C23.268 8.52502 24.4178 10.9367 25.7031 13.375C26.0325 14.0157 26.3618 14.6563 26.7012 15.3164C27.507 16.8814 28.3228 18.4412 29.1406 20C30.4606 19.34 31.7806 18.68 33.1406 18C32.5336 22.1275 31.1025 25.3321 29.1406 29C28.1506 29 27.1606 29 26.1406 29C24.1606 25.04 22.1806 21.08 20.1406 17C19.8106 20.63 19.4806 24.26 19.1406 28C18.8106 28 18.4806 28 18.1406 28C18.1118 23.8542 18.0939 19.7084 18.0781 15.5625C18.0697 14.3785 18.0614 13.1945 18.0527 11.9746C18.0495 10.8499 18.0463 9.7252 18.043 8.56641C18.0351 7.00322 18.0351 7.00322 18.0271 5.40845C18.1406 3 18.1406 3 19.1406 2C17.2534 1.96906 17.2534 1.96906 15.3281 1.9375C14.6204 1.9259 13.9127 1.9143 13.1836 1.90234C10.9376 1.91737 10.9376 1.91737 8.14062 3C8.14062 2.01 8.14062 1.02 8.14062 0Z" fill="#AEADAB"/>
<path d="M41.1406 2C42.1306 2 43.1206 2 44.1406 2C44.1328 3.34747 44.1328 3.34747 44.1248 4.72217C44.1077 8.05063 44.0952 11.379 44.0857 14.7075C44.0807 16.1489 44.0738 17.5903 44.0652 19.0317C44.0531 21.1019 44.0474 23.172 44.043 25.2422C44.0377 26.4885 44.0325 27.7349 44.0271 29.019C43.9325 31.9277 43.9325 31.9277 45.1406 34C42.1706 34 39.2006 34 36.1406 34C36.8006 33.67 37.4606 33.34 38.1406 33C38.1058 32.0242 38.071 31.0484 38.0352 30.043C38.0081 28.7707 37.981 27.4984 37.9531 26.1875C37.9183 24.9229 37.8835 23.6584 37.8477 22.3555C38.1823 18.5222 38.6271 18.5136 41.1406 16C41.5046 12.5692 41.5046 12.5692 41.3281 8.8125C41.3011 7.5402 41.274 6.26789 41.2461 4.95703C41.2113 3.98121 41.1765 3.00539 41.1406 2Z" fill="#555451"/>
<path d="M11.1406 3C11.8006 3 12.4606 3 13.1406 3C13.2277 7.41654 13.281 11.8329 13.3281 16.25C13.3533 17.5043 13.3784 18.7585 13.4043 20.0508C13.4188 21.8587 13.4188 21.8587 13.4336 23.7031C13.4572 25.3684 13.4572 25.3684 13.4812 27.0674C13.1058 30.2996 12.3182 31.6391 10.1406 34C11.1306 34 12.1206 34 13.1406 34C13.1406 34.66 13.1406 35.32 13.1406 36C11.5368 36.0542 9.93251 36.0929 8.32812 36.125C7.4348 36.1482 6.54148 36.1714 5.62109 36.1953C3.14062 36 3.14062 36 0.140625 34C-0.046875 31.375 -0.046875 31.375 0.140625 29C1.46063 28.67 2.78062 28.34 4.14062 28C4.80063 29.65 5.46062 31.3 6.14062 33C9.2626 31.691 9.2626 31.691 11.1406 29C11.2257 27.0406 11.2478 25.0784 11.2383 23.1172C11.2334 21.3673 11.2334 21.3673 11.2285 19.582C11.2201 18.3587 11.2118 17.1354 11.2031 15.875C11.1986 14.6439 11.1941 13.4129 11.1895 12.1445C11.1776 9.09631 11.1612 6.04818 11.1406 3Z" fill="#B0A693"/>
<path d="M17.1406 22C17.4706 22 17.8006 22 18.1406 22C18.1949 23.4371 18.2335 24.8748 18.2656 26.3125C18.2888 27.113 18.312 27.9135 18.3359 28.7383C18.1406 31 18.1406 31 16.1406 34C12.617 35.4355 8.88863 35.0721 5.14062 35C5.14062 34.67 5.14062 34.34 5.14062 34C6.08938 33.8144 7.03812 33.6287 8.01562 33.4375C11.5243 32.266 11.5243 32.266 12.5156 28.375C12.7219 27.2613 12.9281 26.1475 13.1406 25C14.4606 24.67 15.7806 24.34 17.1406 24C17.1406 23.34 17.1406 22.68 17.1406 22Z" fill="#7B5417"/>
<path d="M26.1406 18C26.8006 18 27.4606 18 28.1406 18C28.8006 18.66 29.4606 19.32 30.1406 20C30.4706 19.34 30.8006 18.68 31.1406 18C31.8006 18 32.4606 18 33.1406 18C32.5336 22.1275 31.1025 25.3321 29.1406 29C26.0489 26.4704 25.2313 23.7755 24.1406 20C24.8006 19.34 25.4606 18.68 26.1406 18Z" fill="#7D7B77"/>
<path d="M41.1406 2C42.1306 2 43.1206 2 44.1406 2C44.0597 5.10523 43.9469 8.2085 43.8281 11.3125C43.8056 12.1936 43.783 13.0746 43.7598 13.9824C43.7243 14.83 43.6889 15.6775 43.6523 16.5508C43.6262 17.3311 43.6 18.1114 43.573 18.9153C43.0406 21.4821 41.9959 22.2167 40.1406 24C39.4102 27.6102 39.4102 27.6102 39.1406 31C38.8106 31 38.4806 31 38.1406 31C38.0595 29.0632 38.0014 27.1254 37.9531 25.1875C37.9183 24.1086 37.8835 23.0296 37.8477 21.918C38.1406 19 38.1406 19 39.6406 17.5625C41.498 15.9547 41.498 15.9547 41.4336 12.6445C41.3988 11.38 41.364 10.1154 41.3281 8.8125C41.3011 7.5402 41.274 6.26789 41.2461 4.95703C41.2113 3.98121 41.1765 3.00539 41.1406 2Z" fill="#6F6D69"/>
<path d="M17.1406 3C17.2216 5.10353 17.2798 7.20796 17.3281 9.3125C17.3629 10.4843 17.3977 11.656 17.4336 12.8633C17.1406 16 17.1406 16 15.6289 17.918C15.1378 18.275 14.6466 18.6321 14.1406 19C12.7805 16.2798 12.9344 14.0338 12.8906 11C12.8648 9.9275 12.8391 8.855 12.8125 7.75C12.9208 6.8425 13.0291 5.935 13.1406 5C16.1406 3 16.1406 3 17.1406 3Z" fill="#B9A34A"/>
<path d="M23.1406 12C23.8006 12 24.4606 12 25.1406 12C25.8006 13.98 26.4606 15.96 27.1406 18C25.1606 18.99 25.1606 18.99 23.1406 20C22.0156 17.6875 22.0156 17.6875 21.1406 15C21.8006 14.01 22.4606 13.02 23.1406 12Z" fill="#97948F"/>
<path d="M41.1406 16C41.7656 17.875 41.7656 17.875 42.1406 20C41.4806 20.66 40.8206 21.32 40.1406 22C39.6806 24.2025 39.6806 24.2025 39.5156 26.625C39.4409 27.4423 39.3661 28.2595 39.2891 29.1016C39.2156 30.0413 39.2156 30.0413 39.1406 31C38.8106 31 38.4806 31 38.1406 31C38.0595 29.0632 38.0014 27.1254 37.9531 25.1875C37.9183 24.1086 37.8835 23.0296 37.8477 21.918C38.1406 19 38.1406 19 39.6523 17.1133C40.1435 16.7459 40.6346 16.3785 41.1406 16Z" fill="#777572"/>
<path d="M36.1406 9C37.1306 9.33 38.1206 9.66 39.1406 10C38.4806 10 37.8206 10 37.1406 10C36.1506 12.97 35.1606 15.94 34.1406 19C33.1506 18.34 32.1606 17.68 31.1406 17C32.7906 14.36 34.4406 11.72 36.1406 9Z" fill="#908E89"/>
<path d="M15.1406 28C16.1306 28 17.1206 28 18.1406 28C17.6346 30.1687 17.1408 31.9997 16.1406 34C15.4806 34 14.8206 34 14.1406 34C13.5156 32.125 13.5156 32.125 13.1406 30C13.8006 29.34 14.4606 28.68 15.1406 28Z" fill="#917959"/>
<path d="M17.1406 18C17.8281 19.8125 17.8281 19.8125 18.1406 22C16.8281 23.75 16.8281 23.75 15.1406 25C14.4806 25 13.8206 25 13.1406 25C13.7043 21.7305 14.6402 20.1742 17.1406 18Z" fill="#A27D28"/>
<path d="M31.1406 23C30.4806 24.98 29.8206 26.96 29.1406 29C27.6406 27.625 27.6406 27.625 26.1406 26C26.1406 25.34 26.1406 24.68 26.1406 24C29.1406 23 29.1406 23 31.1406 23Z" fill="#63615E"/>
<path d="M17.1406 14C17.8906 15.75 17.8906 15.75 18.1406 18C16.2031 20.25 16.2031 20.25 14.1406 22C13.8106 20.35 13.4806 18.7 13.1406 17C14.1306 16.67 15.1206 16.34 16.1406 16C16.4706 15.34 16.8006 14.68 17.1406 14Z" fill="#AF9234"/>
</svg>
