<svg width="36" height="34" viewBox="0 0 36 34" fill="none" xmlns="http://www.w3.org/2000/svg">
<path d="M24.6667 11.3334C27.3189 11.3334 29.8624 12.3869 31.7378 14.2623C33.6131 16.1377 34.6667 18.6812 34.6667 21.3334V33H28V21.3334C28 20.4493 27.6489 19.6015 27.0237 18.9764C26.3986 18.3512 25.5508 18 24.6667 18C23.7827 18 22.9348 18.3512 22.3097 18.9764C21.6846 19.6015 21.3334 20.4493 21.3334 21.3334V33H14.6667V21.3334C14.6667 18.6812 15.7203 16.1377 17.5956 14.2623C19.471 12.3869 22.0145 11.3334 24.6667 11.3334Z" stroke="#B3B3B3" stroke-width="2" stroke-linecap="round" stroke-linejoin="round"/>
<path d="M8.00004 13H1.33337V33H8.00004V13Z" stroke="#B3B3B3" stroke-width="2" stroke-linecap="round" stroke-linejoin="round"/>
<path d="M4.66671 8.00004C6.50766 8.00004 8.00004 6.50766 8.00004 4.66671C8.00004 2.82576 6.50766 1.33337 4.66671 1.33337C2.82576 1.33337 1.33337 2.82576 1.33337 4.66671C1.33337 6.50766 2.82576 8.00004 4.66671 8.00004Z" stroke="#B3B3B3" stroke-width="2" stroke-linecap="round" stroke-linejoin="round"/>
</svg>
