<svg width="18" height="17" viewBox="0 0 18 17" fill="none" xmlns="http://www.w3.org/2000/svg">
<path d="M15.6569 4.42655C16.0849 5.16617 16.4236 5.93003 16.6189 6.76347C16.6245 6.7875 16.6301 6.81153 16.6359 6.83629C16.6657 6.96871 16.6824 7.09048 16.6961 7.22742C16.9355 7.22742 17.1749 7.22742 17.4216 7.22742C17.4216 8.04183 17.4216 8.85624 17.4216 9.69532C17.2016 9.69532 16.9816 9.69532 16.7549 9.69532C16.7238 9.83435 16.7238 9.83435 16.6952 9.97374C16.4272 11.3212 15.8555 12.5592 14.9706 13.6126C14.9624 13.6225 14.9542 13.6323 14.9457 13.6425C14.8053 13.8104 14.6586 13.9697 14.5032 14.1238C14.4692 14.1576 14.4353 14.1916 14.4015 14.2256C14.2704 14.3567 14.1356 14.4766 13.9902 14.5919C13.9684 14.6105 13.9466 14.6291 13.9251 14.648C13.7719 14.7817 13.6105 14.8999 13.4427 15.0146C13.4049 15.0404 13.3674 15.0665 13.3298 15.0926C13.1262 15.2326 12.9123 15.3539 12.6961 15.4733C12.6798 15.4825 12.6634 15.4916 12.6466 15.501C11.952 15.8871 10.9905 16.3156 10.1863 16.3156C10.1863 16.5095 10.1863 16.7034 10.1863 16.9032C9.37745 16.9032 8.56863 16.9032 7.73529 16.9032C7.73529 16.7092 7.73529 16.5153 7.73529 16.3156C7.67706 16.3091 7.61882 16.3026 7.55882 16.296C6.08994 16.0467 4.71868 15.3388 3.63243 14.3277C3.57651 14.2768 3.51921 14.2286 3.46078 14.1806C3.34618 14.2719 3.23471 14.3649 3.12745 14.4646C3.02022 14.5643 2.90839 14.6571 2.79412 14.7486C2.71463 14.8078 2.71463 14.8078 2.65686 14.8857C2.63745 14.8857 2.61804 14.8857 2.59804 14.8857C2.5961 14.6773 2.59703 14.4697 2.60784 14.2614C2.61719 14.0789 2.61857 13.8969 2.61765 13.7142C2.61677 13.5405 2.61785 13.3681 2.63028 13.1949C2.64049 13.0412 2.63825 12.8874 2.63653 12.7335C2.63557 12.6133 2.64084 12.4979 2.65686 12.3787C2.70863 12.3787 2.76039 12.3787 2.81373 12.3787C2.81373 12.3916 2.81373 12.4045 2.81373 12.4178C2.82879 12.4187 2.84384 12.4196 2.85936 12.4205C3.01339 12.4307 3.16367 12.4504 3.31571 12.4768C3.35828 12.4842 3.40089 12.4915 3.44349 12.4987C3.49312 12.5071 3.54274 12.5156 3.59236 12.524C3.76434 12.5534 3.93643 12.582 4.10853 12.6107C4.12315 12.6131 4.13776 12.6155 4.15282 12.618C4.22722 12.6304 4.30162 12.6428 4.37603 12.6551C4.50737 12.6769 4.63871 12.6988 4.77005 12.7207C4.83371 12.7313 4.89737 12.7419 4.96103 12.7525C4.9969 12.7585 5.03276 12.7644 5.06863 12.7704C5.05324 12.8447 5.03423 12.8668 4.97181 12.9112C4.90353 12.9617 4.83961 13.0142 4.77696 13.0715C4.69324 13.1478 4.6069 13.2198 4.51884 13.2911C4.41327 13.3772 4.3097 13.4657 4.20588 13.5539C4.27937 13.6434 4.35504 13.7241 4.44363 13.7987C4.46108 13.8135 4.46108 13.8135 4.47889 13.8285C5.41874 14.6133 6.51871 15.1121 7.71569 15.3558C7.72216 15.065 7.72863 14.7741 7.73529 14.4744C8.54412 14.4744 9.35294 14.4744 10.1863 14.4744C10.1927 14.7653 10.1992 15.0561 10.2059 15.3558C11.7614 15.0318 13.2975 14.249 14.2843 12.9663C14.3014 12.9456 14.3186 12.9251 14.3359 12.9046C15.0927 11.9982 15.572 10.8526 15.7745 9.69532C15.739 9.69547 15.739 9.69547 15.7028 9.69563C15.6154 9.69599 15.5279 9.69621 15.4405 9.6964C15.4026 9.6965 15.3647 9.69663 15.3268 9.6968C15.2724 9.69704 15.218 9.69715 15.1637 9.69723C15.1381 9.69739 15.1381 9.69739 15.112 9.69754C15.0714 9.69754 15.0308 9.69654 14.9902 9.69532C14.9579 9.66306 14.9681 9.62576 14.9681 9.58131C14.968 9.56087 14.968 9.54044 14.9679 9.51939C14.968 9.49678 14.968 9.47417 14.9681 9.45087C14.968 9.42721 14.968 9.40355 14.9679 9.37918C14.9679 9.3141 14.9679 9.24903 14.968 9.18396C14.968 9.11601 14.968 9.04805 14.9679 8.98009C14.9679 8.86595 14.9679 8.75181 14.968 8.63767C14.9681 8.50553 14.9681 8.37339 14.968 8.24124C14.9679 8.12798 14.9679 8.01472 14.9679 7.90146C14.968 7.83373 14.968 7.766 14.9679 7.69827C14.9678 7.6228 14.9679 7.54734 14.9681 7.47187C14.968 7.44926 14.968 7.42665 14.9679 7.40336C14.968 7.38292 14.968 7.36249 14.9681 7.34144C14.9681 7.32357 14.9681 7.3057 14.9681 7.28729C14.9706 7.24701 14.9706 7.24701 14.9902 7.22742C15.0453 7.22428 15.1 7.22234 15.1551 7.22122C15.1716 7.22082 15.1881 7.22041 15.2051 7.21999C15.2581 7.21871 15.311 7.21755 15.364 7.2164C15.3998 7.21556 15.4356 7.2147 15.4714 7.21384C15.5594 7.21174 15.6473 7.20976 15.7353 7.20783C15.5829 6.454 15.3177 5.71121 14.9148 5.05301C14.8922 5.01415 14.8922 5.01415 14.8922 4.97497C14.9269 4.94651 14.9269 4.94651 14.9779 4.91132C15.0989 4.82572 15.2157 4.7353 15.3324 4.64397C15.3751 4.61058 15.4179 4.5773 15.4608 4.54407C15.4754 4.53266 15.49 4.52126 15.5051 4.50951C15.5261 4.49336 15.5261 4.49336 15.5476 4.47689C15.5601 4.4672 15.5727 4.45751 15.5856 4.44752C15.6176 4.42655 15.6176 4.42655 15.6569 4.42655ZM15.6176 7.87378C15.6176 8.26159 15.6176 8.6494 15.6176 9.04897C16.0059 9.04897 16.3941 9.04897 16.7941 9.04897C16.7941 8.66115 16.7941 8.27334 16.7941 7.87378C16.4059 7.87378 16.0176 7.87378 15.6176 7.87378ZM8.38235 15.1208C8.38235 15.5021 8.38235 15.8835 8.38235 16.2764C8.76412 16.2764 9.14588 16.2764 9.53922 16.2764C9.53922 15.895 9.53922 15.5137 9.53922 15.1208C9.15745 15.1208 8.77569 15.1208 8.38235 15.1208Z" fill="#4B5563"/>
<path d="M7.73529 0C8.54412 0 9.35294 0 10.1863 0C10.1863 0.265005 10.1863 0.530011 10.1863 0.803047C10.2498 0.813146 10.3133 0.823245 10.3787 0.833651C11.5549 1.03362 12.6546 1.53809 13.6176 2.23286C13.6781 2.20655 13.7131 2.17967 13.754 2.1282C13.7697 2.10868 13.7697 2.10868 13.7856 2.08877C13.7965 2.07492 13.8074 2.06106 13.8186 2.04679C13.8356 2.0255 13.8356 2.0255 13.853 2.00378C13.8858 1.96272 13.9184 1.92152 13.951 1.8803C13.9787 1.8456 14.0065 1.81091 14.0343 1.77625C14.0462 1.76128 14.0582 1.74631 14.0705 1.73088C14.1135 1.67744 14.1572 1.62466 14.201 1.57182C14.2479 1.515 14.2927 1.45898 14.3321 1.39676C14.3422 1.38182 14.3523 1.36687 14.3627 1.35147C14.3757 1.35147 14.3886 1.35147 14.402 1.35147C14.404 1.36397 14.4061 1.37646 14.4082 1.38934C14.4433 1.60093 14.4784 1.81245 14.5167 2.02349C14.5446 2.18055 14.5677 2.3384 14.591 2.4962C14.5942 2.51733 14.5974 2.53847 14.6006 2.56025C14.6035 2.57926 14.6063 2.59827 14.6092 2.61785C14.6155 2.66398 14.6155 2.66398 14.6373 2.70294C14.6433 2.74795 14.6472 2.79298 14.6513 2.83821C14.6547 2.88028 14.6547 2.88028 14.6765 2.91839C14.6814 2.94518 14.6855 2.97212 14.6892 2.99911C14.6915 3.01564 14.6938 3.03218 14.6961 3.04922C14.6997 3.07596 14.6997 3.07596 14.7034 3.10324C14.7254 3.26258 14.7492 3.42146 14.7762 3.58004C14.7895 3.66083 14.7969 3.73714 14.7941 3.81937C14.0101 3.85092 13.2258 3.86258 12.4412 3.85854C12.4412 3.87147 12.4412 3.8844 12.4412 3.89771C12.4153 3.89771 12.3894 3.89771 12.3627 3.89771C12.3566 3.84508 12.3566 3.84508 12.3627 3.7802C12.402 3.73613 12.402 3.73613 12.4295 3.7118C12.4672 3.67619 12.4975 3.63746 12.5294 3.59657C12.5988 3.50858 12.6713 3.42382 12.7451 3.3395C12.843 3.22753 12.9379 3.11405 13.0294 2.99674C12.9673 2.92979 12.8983 2.87898 12.8223 2.82903C12.8095 2.82058 12.7967 2.81213 12.7835 2.80343C12.6212 2.69764 12.4536 2.60122 12.2843 2.50707C12.2684 2.49816 12.2525 2.48924 12.2361 2.48006C11.5965 2.12451 10.9016 1.90569 10.1863 1.76279C10.1863 1.98901 10.1863 2.21523 10.1863 2.44831C9.37745 2.44831 8.56863 2.44831 7.73529 2.44831C7.73529 2.22209 7.73529 1.99587 7.73529 1.76279C6.20387 2.08945 4.68428 2.82178 3.69776 4.08096C3.66012 4.12863 3.62093 4.17454 3.58099 4.2203C2.85106 5.06136 2.41678 6.12928 2.18627 7.20783C2.43216 7.2143 2.67804 7.22076 2.93137 7.22742C2.93137 8.04183 2.93137 8.85624 2.93137 9.69532C2.67255 9.69532 2.41373 9.69532 2.14706 9.69532C2.26908 10.2845 2.42239 10.8481 2.66345 11.4006C2.69111 11.4645 2.7145 11.5288 2.73529 11.5952C2.52967 11.6885 2.32363 11.7809 2.11642 11.8706C2.09003 11.8822 2.09003 11.8822 2.0631 11.894C2.0467 11.9011 2.0303 11.9081 2.0134 11.9154C1.99896 11.9217 1.98451 11.9279 1.96963 11.9344C1.93137 11.9478 1.93137 11.9478 1.87255 11.9478C1.52218 11.2548 1.27222 10.4679 1.18627 9.69532C0.959804 9.69532 0.733333 9.69532 0.5 9.69532C0.5 8.88091 0.5 8.06651 0.5 7.22742C0.739412 7.22742 0.978824 7.22742 1.22549 7.22742C1.23196 7.16279 1.23843 7.09815 1.2451 7.03156C1.41658 5.92712 1.93977 4.74998 2.63725 3.87813C2.65406 3.85643 2.67084 3.8347 2.68758 3.81294C2.80765 3.65759 2.93325 3.5076 3.06229 3.35962C3.08581 3.3325 3.10903 3.3051 3.1322 3.27768C3.14438 3.26334 3.15657 3.249 3.16912 3.23422C3.17928 3.22215 3.18944 3.21008 3.19991 3.19765C3.22549 3.17301 3.22549 3.17301 3.26471 3.17301C3.26931 3.16203 3.27391 3.15105 3.27865 3.13973C3.35457 3.00437 3.49828 2.8976 3.61558 2.7975C3.66387 2.75562 3.71049 2.71213 3.75735 2.66866C3.87049 2.56576 3.98898 2.47123 4.11046 2.37838C4.13489 2.35969 4.15927 2.34092 4.18358 2.32207C5.22011 1.51888 6.4441 1.01264 7.73529 0.803047C7.73529 0.538041 7.73529 0.273036 7.73529 0ZM8.36275 0.626768C8.36275 1.01458 8.36275 1.40239 8.36275 1.80196C8.75098 1.80196 9.13922 1.80196 9.53922 1.80196C9.54569 1.41415 9.55216 1.02633 9.55882 0.626768C9.16412 0.626768 8.76941 0.626768 8.36275 0.626768ZM1.12745 7.87378C1.12745 8.26159 1.12745 8.6494 1.12745 9.04897C1.51569 9.04897 1.90392 9.04897 2.30392 9.04897C2.30392 8.66115 2.30392 8.27334 2.30392 7.87378C1.91569 7.87378 1.52745 7.87378 1.12745 7.87378Z" fill="#4B5563"/>
<path d="M14.3627 1.35147C14.3757 1.35147 14.3886 1.35147 14.402 1.35147C14.404 1.36397 14.4061 1.37646 14.4082 1.38934C14.4433 1.60093 14.4784 1.81245 14.5167 2.02349C14.5446 2.18055 14.5677 2.3384 14.591 2.4962C14.5942 2.51733 14.5974 2.53847 14.6006 2.56025C14.6035 2.57926 14.6063 2.59827 14.6092 2.61785C14.6155 2.66398 14.6155 2.66398 14.6373 2.70294C14.6433 2.74795 14.6472 2.79298 14.6513 2.83821C14.6547 2.88028 14.6547 2.88028 14.6765 2.91839C14.6814 2.94518 14.6855 2.97212 14.6892 2.99911C14.6915 3.01564 14.6938 3.03218 14.6961 3.04922C14.6997 3.07596 14.6997 3.07596 14.7034 3.10324C14.7254 3.26258 14.7492 3.42146 14.7762 3.58004C14.7895 3.66083 14.7969 3.73714 14.7941 3.81937C14.0101 3.85092 13.2258 3.86258 12.4412 3.85854C12.4412 3.87147 12.4412 3.8844 12.4412 3.89771C12.4153 3.89771 12.3894 3.89771 12.3627 3.89771C12.3566 3.84508 12.3566 3.84508 12.3627 3.7802C12.402 3.73613 12.402 3.73613 12.4295 3.7118C12.4672 3.67619 12.4975 3.63746 12.5294 3.59657C12.6089 3.49583 12.6926 3.39929 12.7771 3.30272C12.8569 3.2113 12.9341 3.11833 13.0098 3.02351C13.053 2.97246 13.0998 2.92647 13.1471 2.87922C13.1854 2.83664 13.2227 2.79312 13.2598 2.74946C13.27 2.73749 13.2802 2.72552 13.2907 2.71319C13.4738 2.50011 13.4738 2.50011 13.6373 2.27203C13.7117 2.16702 13.7933 2.06827 13.8762 1.96974C13.9415 1.89199 14.0052 1.81313 14.0684 1.73364C14.112 1.67922 14.1565 1.62554 14.201 1.57182C14.2479 1.515 14.2927 1.45898 14.3321 1.39676C14.3422 1.38182 14.3523 1.36687 14.3627 1.35147Z" fill="#4B5563"/>
<path d="M2.65686 12.3787C2.70863 12.3787 2.76039 12.3787 2.81373 12.3787C2.81373 12.3916 2.81373 12.4045 2.81373 12.4178C2.83631 12.4192 2.83631 12.4192 2.85936 12.4205C3.01339 12.4307 3.16367 12.4504 3.31571 12.4768C3.35828 12.4842 3.40089 12.4915 3.44349 12.4987C3.49312 12.5071 3.54274 12.5156 3.59236 12.524C3.76434 12.5534 3.93643 12.582 4.10853 12.6107C4.13046 12.6143 4.13046 12.6143 4.15282 12.618C4.22722 12.6304 4.30162 12.6428 4.37603 12.6551C4.50737 12.6769 4.63871 12.6988 4.77005 12.7207C4.83371 12.7313 4.89737 12.7419 4.96103 12.7525C4.9969 12.7585 5.03276 12.7644 5.06863 12.7704C5.05324 12.8447 5.03423 12.8668 4.97181 12.9112C4.90353 12.9617 4.83961 13.0142 4.77696 13.0715C4.69324 13.1478 4.6069 13.2198 4.51884 13.2911C4.47732 13.325 4.43588 13.3596 4.3953 13.3946C4.37861 13.409 4.37861 13.409 4.36158 13.4237C4.34018 13.4421 4.31885 13.4607 4.29762 13.4793C4.2459 13.5238 4.19531 13.5614 4.13542 13.5943C4.07313 13.6296 4.02726 13.6653 3.97549 13.7142C3.82885 13.8496 3.67406 13.9741 3.51333 14.0923C3.47503 14.1218 3.47503 14.1218 3.46078 14.1806C3.43039 14.208 3.3987 14.2339 3.36642 14.259C3.28373 14.3248 3.20472 14.3926 3.12745 14.4646C3.02022 14.5643 2.90839 14.6571 2.79412 14.7486C2.71463 14.8078 2.71463 14.8078 2.65686 14.8857C2.63745 14.8857 2.61804 14.8857 2.59804 14.8857C2.5961 14.6773 2.59703 14.4697 2.60784 14.2614C2.61719 14.0789 2.61857 13.8969 2.61765 13.7142C2.61677 13.5405 2.61785 13.3681 2.63028 13.1949C2.64049 13.0412 2.63825 12.8874 2.63653 12.7335C2.63557 12.6133 2.64084 12.4979 2.65686 12.3787Z" fill="#4B5563"/>
<path d="M3.59804 14.0044C3.61098 14.0108 3.62392 14.0173 3.63725 14.0239C3.61532 14.0469 3.59323 14.0697 3.57108 14.0925C3.55879 14.1052 3.54651 14.1179 3.53385 14.1311C3.5 14.161 3.5 14.161 3.46078 14.161C3.48786 14.0799 3.53134 14.0568 3.59804 14.0044Z" fill="#4B5563"/>
</svg>
