<svg width="19" height="18" viewBox="0 0 19 18" fill="none" xmlns="http://www.w3.org/2000/svg">
<path d="M10.0505 0.145739C10.1928 0.220423 10.2912 0.307443 10.3954 0.423647C10.4293 0.455988 10.4633 0.488329 10.4983 0.52165C10.6919 0.790196 10.7569 1.09044 10.7344 1.40928C10.7858 1.42706 10.7858 1.42706 10.8383 1.44521C10.9838 1.50167 11.1159 1.56804 11.2526 1.64081C11.3066 1.6694 11.3605 1.69799 11.416 1.72745C11.4744 1.75859 11.5328 1.78974 11.5911 1.82089C11.652 1.85324 11.7129 1.88559 11.7738 1.91792C11.9301 2.00099 12.0863 2.08424 12.2425 2.16756C12.381 2.24141 12.5195 2.31517 12.658 2.38895C12.8642 2.49885 13.0703 2.60888 13.2763 2.71901C13.4993 2.83822 13.7225 2.95719 13.9457 3.07602C14.0328 3.1224 14.1199 3.16877 14.2069 3.21515C14.2896 3.25917 14.3723 3.30314 14.455 3.34712C14.5048 3.37368 14.5547 3.40024 14.606 3.42761C14.65 3.45102 14.694 3.47442 14.7393 3.49854C14.8268 3.54629 14.9122 3.59723 14.9967 3.64934C15.1464 3.63337 15.2421 3.57787 15.363 3.49814C15.7768 3.25226 16.2356 3.19759 16.7132 3.27693C17.1393 3.37513 17.489 3.59781 17.7576 3.91815C17.9049 4.15621 18.0282 4.40326 18.0482 4.67977C18.0532 4.73244 18.0582 4.78511 18.0633 4.83938C18.054 5.29152 17.8581 5.70616 17.5154 6.02381C17.2328 6.24782 17.2328 6.24782 17.0795 6.24782C17.0955 7.91846 17.1114 9.5891 17.1279 11.3104C17.2877 11.3695 17.4476 11.4286 17.6123 11.4896C18.1269 11.7976 18.3507 12.1457 18.4841 12.6992C18.5532 13.1086 18.39 13.5328 18.1316 13.8611C17.8521 14.1712 17.5276 14.4092 17.0821 14.4565C16.4798 14.4974 16.037 14.407 15.5536 14.0597C15.4811 13.9984 15.4811 13.9984 15.4327 13.9088C15.2493 13.9723 15.084 14.0502 14.9144 14.1404C14.8605 14.169 14.8066 14.1976 14.751 14.227C14.6927 14.2582 14.6343 14.2893 14.576 14.3205C14.5151 14.3528 14.4542 14.3851 14.3933 14.4175C14.237 14.5005 14.0807 14.5838 13.9246 14.6671C13.7861 14.741 13.6476 14.8147 13.5091 14.8885C13.1101 15.1012 12.7112 15.3139 12.3132 15.528C12.1973 15.5903 12.0814 15.6525 11.9655 15.7147C11.8838 15.7586 11.8022 15.8026 11.7206 15.8467C11.6463 15.8865 11.6463 15.8865 11.5705 15.9272C11.527 15.9506 11.4836 15.974 11.4388 15.9981C11.3194 16.0574 11.2002 16.1049 11.0735 16.1489C11.0895 16.1785 11.1054 16.208 11.1219 16.2385C11.1398 16.7198 10.9999 17.1155 10.6678 17.4873C10.6259 17.5188 10.5839 17.5502 10.5407 17.5825C10.5135 17.605 10.4862 17.6274 10.4582 17.6504C10.1123 17.9183 9.70319 18.0141 9.25563 17.9984C8.78111 17.9484 8.38014 17.7587 8.05533 17.4341C7.83485 17.1731 7.7308 16.9433 7.72044 16.6092C7.70837 16.3794 7.69303 16.2074 7.52004 16.0343C7.36171 15.9391 7.19964 15.8616 7.02911 15.7877C6.96741 15.7585 6.90586 15.729 6.84447 15.6992C6.71822 15.6383 6.59141 15.5786 6.46401 15.5198C6.18332 15.3888 5.91358 15.2405 5.64264 15.0933C5.54008 15.0384 5.43747 14.9835 5.33481 14.9288C5.28365 14.9014 5.23249 14.8741 5.17979 14.8459C5.00841 14.7544 4.83693 14.6631 4.66542 14.5718C4.57835 14.5254 4.49128 14.479 4.40422 14.4326C4.32155 14.3886 4.23886 14.3446 4.15616 14.3007C4.08139 14.2608 4.08139 14.2608 4.00511 14.2202C3.93913 14.1851 3.93913 14.1851 3.87183 14.1492C3.78435 14.1015 3.69892 14.0506 3.61441 13.9984C3.45303 14.0134 3.36151 14.078 3.23903 14.172C2.805 14.4763 2.35057 14.4987 1.82229 14.4465C1.64283 14.4087 1.49648 14.3529 1.33794 14.2673C1.30385 14.2493 1.26976 14.2313 1.23464 14.2128C0.895886 14.0073 0.698013 13.6937 0.541781 13.3544C0.460214 12.8682 0.476205 12.3868 0.790013 11.974C1.05192 11.6778 1.29343 11.5072 1.67699 11.3552C1.69297 9.68452 1.70895 8.01388 1.72542 6.29262C1.6455 6.26305 1.56559 6.23348 1.48325 6.20302C1.11099 5.98143 0.908256 5.64721 0.77412 5.26289C0.679192 4.77041 0.776151 4.31447 1.08365 3.90415C1.37661 3.57106 1.75242 3.36313 2.20978 3.29093C2.75658 3.24219 3.23786 3.37252 3.66284 3.69414C4.07123 3.4973 4.47319 3.29308 4.86919 3.07564C5.1831 2.90337 5.49891 2.73423 5.81519 2.56571C5.86805 2.53754 5.9209 2.50937 5.97535 2.48034C6.11255 2.40722 6.24977 2.33413 6.38699 2.26104C6.61875 2.13758 6.85045 2.01403 7.08213 1.89046C7.16352 1.84705 7.24493 1.80368 7.32633 1.7603C7.4007 1.72064 7.4007 1.72064 7.47657 1.68018C7.54178 1.64542 7.54178 1.64542 7.60831 1.60996C7.69383 1.56392 7.77848 1.51647 7.86238 1.46795C7.9736 1.40928 7.9736 1.40928 8.07047 1.40928C8.06747 1.35106 8.06448 1.29285 8.06139 1.23287C8.0639 0.862356 8.18511 0.59208 8.45928 0.321794C8.9079 -0.0413975 9.51867 -0.0777752 10.0505 0.145739ZM8.40952 2.0813C7.88176 2.34879 7.35954 2.62402 6.84034 2.90547C6.45565 3.11377 6.06925 3.31914 5.682 3.52334C5.153 3.8023 4.62521 4.08311 4.09876 4.36616C4.10338 4.41 4.108 4.45383 4.11276 4.49899C4.14851 4.89002 4.13744 5.19967 4.00189 5.5758C4.02658 5.59723 4.05127 5.61866 4.07671 5.64073C4.18876 5.73877 4.29966 5.83786 4.41056 5.93701C4.44943 5.97071 4.4883 6.0044 4.52834 6.03912C4.84548 6.32504 4.84548 6.32504 4.87619 6.5126C4.87222 6.7362 4.87222 6.7362 4.82529 6.83023C4.64294 6.88646 4.53322 6.89836 4.34094 6.87503C4.19425 6.78688 4.07614 6.67615 3.95345 6.56143C3.91337 6.52493 3.87329 6.48843 3.83199 6.45082C3.72633 6.35401 3.6216 6.25648 3.51754 6.15821C3.46134 6.18091 3.46134 6.18091 3.40402 6.20407C3.32834 6.23404 3.32834 6.23404 3.25114 6.26462C3.20169 6.28437 3.15224 6.30412 3.10129 6.32447C2.93631 6.38222 2.93631 6.38222 2.54883 6.47182C2.54883 8.06854 2.54883 9.66526 2.54883 11.3104C2.93803 11.5199 2.93803 11.5199 3.17849 11.4448C3.27427 11.3645 3.36266 11.285 3.45094 11.1984C3.74867 10.9106 3.74867 10.9106 3.99886 10.896C4.11851 10.8984 4.18464 10.9021 4.2925 10.952C4.3744 11.1035 4.3846 11.2387 4.34094 11.4C4.24511 11.5362 4.12768 11.6455 4.00189 11.7584C3.95872 11.7991 3.95872 11.7991 3.91467 11.8406C3.84772 11.9036 3.77962 11.9655 3.71128 12.0272C3.7212 12.0569 3.73113 12.0867 3.74136 12.1173C3.75441 12.1569 3.76746 12.1964 3.7809 12.2372C3.79383 12.2762 3.80675 12.3152 3.82007 12.3553C3.90074 12.6202 3.89767 12.8278 3.86415 13.1008C3.93166 13.3255 4.1302 13.3953 4.34094 13.5056C4.38106 13.5273 4.42119 13.5489 4.46252 13.5712C4.59184 13.6402 4.72205 13.7074 4.85254 13.7744C5.24423 13.9774 5.63376 14.1832 6.02104 14.3933C6.6689 14.7444 7.32107 15.0884 7.9736 15.4321C8.01556 15.3942 8.05751 15.3563 8.10074 15.3173C8.36197 15.1077 8.68009 14.9844 8.99074 14.8497C8.99103 14.8152 8.99131 14.7807 8.99161 14.7451C8.99441 14.4201 8.9979 14.0951 9.00216 13.7701C9.00433 13.6031 9.00623 13.436 9.00752 13.2689C9.00878 13.1076 9.01074 12.9464 9.01318 12.7852C9.01399 12.7237 9.01455 12.6621 9.01485 12.6006C9.01531 12.5145 9.01675 12.4284 9.01824 12.3422C9.01904 12.2687 9.01904 12.2687 9.01987 12.1936C9.03918 12.072 9.03918 12.072 9.10661 11.9892C9.20878 11.9215 9.27745 11.9167 9.40245 11.9152C9.45864 11.9131 9.45864 11.9131 9.51597 11.911C9.62041 11.9376 9.62041 11.9376 9.69828 12.0342C9.77491 12.179 9.78483 12.2733 9.78665 12.4338C9.78761 12.4876 9.78857 12.5414 9.78956 12.5968C9.79002 12.6833 9.79002 12.6833 9.7905 12.7715C9.79131 12.8314 9.79219 12.8914 9.79313 12.9513C9.79543 13.1086 9.79688 13.2658 9.79814 13.4231C9.79959 13.5837 9.80184 13.7444 9.80403 13.9051C9.80819 14.2199 9.81145 14.5348 9.81415 14.8497C9.8533 14.867 9.89244 14.8843 9.93278 14.9022C9.98454 14.9255 10.0363 14.9488 10.0896 14.9729C10.1408 14.9957 10.1919 15.0186 10.2446 15.0422C10.4533 15.1478 10.602 15.2484 10.7344 15.4321C10.9539 15.358 11.1519 15.2575 11.355 15.1521C11.3928 15.1326 11.4305 15.1131 11.4695 15.093C11.8833 14.8781 12.2926 14.656 12.7021 14.4342C12.9683 14.2901 13.2349 14.1468 13.5021 14.0043C13.6097 13.9467 13.7172 13.8887 13.8245 13.8304C14.052 13.7072 14.2765 13.589 14.5184 13.4916C14.864 13.3619 14.864 13.3619 15.0851 13.1003C15.1376 12.8939 15.1479 12.69 15.14 12.4787C15.142 12.3856 15.142 12.3856 15.1771 12.2731C15.2045 12.1584 15.2045 12.1584 15.1204 12.0719C15.0856 12.0435 15.0509 12.015 15.0151 11.9857C14.9778 11.9537 14.9405 11.9217 14.902 11.8887C14.8223 11.8227 14.7423 11.7569 14.6621 11.6913C14.3407 11.4143 14.3407 11.4143 14.3321 11.2048C14.3674 11.04 14.3754 11.0041 14.5124 10.9072C14.6636 10.8678 14.7961 10.8731 14.9483 10.9072C15.0968 11.0022 15.2091 11.12 15.3267 11.246C15.388 11.31 15.4499 11.3735 15.5123 11.4365C15.539 11.4649 15.5656 11.4933 15.5931 11.5226C15.6335 11.5506 15.6335 11.5506 15.6748 11.5792C15.9089 11.5319 15.9089 11.5319 16.2561 11.3552C16.2561 9.72888 16.2561 8.10259 16.2561 6.42702C15.6326 6.22639 15.6326 6.22639 15.3579 6.42335C15.2968 6.48527 15.238 6.54914 15.1814 6.61463C15.1212 6.67784 15.061 6.74102 15.0007 6.80416C14.9754 6.8327 14.95 6.86124 14.9239 6.89064C14.8012 7.01593 14.722 7.05291 14.5396 7.06824C14.3671 7.05424 14.3671 7.05424 14.249 7.00944C14.1533 6.89608 14.1373 6.80142 14.1457 6.65873C14.2012 6.46329 14.3598 6.3403 14.5124 6.20302C14.5518 6.166 14.5913 6.12898 14.632 6.09084C14.7366 5.993 14.842 5.89609 14.9483 5.7998C14.9314 5.76631 14.9145 5.73281 14.897 5.6983C14.875 5.65418 14.853 5.61006 14.8302 5.5646C14.8083 5.52094 14.7864 5.47728 14.7638 5.43229C14.6777 5.24532 14.6482 5.17054 14.6938 4.96573C14.7371 4.75432 14.7566 4.56627 14.6577 4.36616C14.3843 4.11484 14.0055 3.97208 13.6634 3.81711C13.3925 3.69118 13.1329 3.5479 12.8716 3.40573C12.7668 3.34969 12.6618 3.29375 12.5568 3.2379C12.2805 3.09066 12.0042 2.94338 11.7279 2.79601C11.6224 2.73973 11.5169 2.68348 11.4114 2.62723C11.0721 2.44625 10.7336 2.26407 10.3954 2.0813C10.1734 2.15946 9.9903 2.24601 9.81415 2.3949C9.72999 2.62728 9.74174 2.85388 9.7502 3.09545C9.75044 3.16388 9.75041 3.23231 9.75013 3.30074C9.75004 3.48024 9.75333 3.65954 9.75743 3.839C9.76185 4.05716 9.76258 4.27536 9.76353 4.49355C9.76429 4.66328 9.7657 4.83292 9.76916 5.00262C9.76963 5.03381 9.7701 5.065 9.77058 5.09714C9.77184 5.18123 9.77355 5.26531 9.77529 5.3494C9.76595 5.4828 9.74933 5.55574 9.66884 5.6654C9.51909 5.73466 9.39788 5.72335 9.23292 5.7102C9.08607 5.61172 9.04389 5.55734 9.01404 5.39039C9.01361 5.33507 9.01318 5.27976 9.01274 5.22277C9.01224 5.19215 9.01174 5.16154 9.01122 5.13C9.0098 5.02915 9.00972 4.92833 9.00966 4.82748C9.00894 4.75742 9.00813 4.68736 9.00724 4.61731C9.00512 4.43318 9.00415 4.24906 9.00342 4.06492C9.00248 3.87692 9.00044 3.68893 8.9985 3.50094C8.99485 3.13226 8.99242 2.76359 8.99074 2.3949C8.95089 2.37686 8.95089 2.37686 8.91024 2.35846C8.87537 2.34253 8.8405 2.32661 8.80457 2.3102C8.77001 2.29448 8.73545 2.27876 8.69985 2.26256C8.59398 2.21119 8.50134 2.15207 8.40952 2.0813Z" fill="#4A90E2"/>
<path d="M4.43781 7.23344C4.99724 7.23344 5.55667 7.23344 6.13305 7.23344C6.46871 8.16486 6.46871 8.16486 6.81115 9.1151C6.82713 8.49415 6.84312 7.87321 6.85958 7.23344C7.22721 7.23344 7.59483 7.23344 7.9736 7.23344C7.9736 8.40141 7.9736 9.56938 7.9736 10.7727C7.46212 10.7727 6.95064 10.7727 6.42366 10.7727C6.38046 10.662 6.33725 10.5513 6.29274 10.4373C6.25025 10.3284 6.20777 10.2196 6.16529 10.1107C6.13607 10.0359 6.10685 9.96102 6.07764 9.88616C6.03532 9.77772 5.99299 9.66928 5.95066 9.56084C5.93789 9.5281 5.92512 9.49537 5.91195 9.46164C5.8085 9.19664 5.70436 8.93188 5.60026 8.66709C5.58428 9.36195 5.56829 10.0568 5.55183 10.7727C5.1842 10.7727 4.81658 10.7727 4.43781 10.7727C4.43781 9.60478 4.43781 8.43681 4.43781 7.23344Z" fill="#4A90E2"/>
<path d="M11.6063 7.23344C11.9309 7.23067 12.2556 7.2279 12.5901 7.22504C12.6915 7.22382 12.7928 7.2226 12.8972 7.22134C13.9604 7.21381 13.9604 7.21381 14.3398 7.46305C14.6338 7.76812 14.6891 8.08682 14.6819 8.48508C14.6827 8.52652 14.6834 8.56796 14.6842 8.61065C14.6822 8.93583 14.6264 9.27432 14.3721 9.51603C14.0187 9.78955 13.6212 9.80036 13.1804 9.79272C12.9526 9.78995 12.9526 9.78995 12.7203 9.78712C12.7203 10.1124 12.7203 10.4376 12.7203 10.7727C12.3527 10.7727 11.985 10.7727 11.6063 10.7727C11.6063 9.60478 11.6063 8.43681 11.6063 7.23344ZM12.7203 8.03987C12.7203 8.35034 12.7203 8.66081 12.7203 8.9807C13.1222 8.98778 13.1222 8.98778 13.4468 8.84629C13.5752 8.67805 13.5448 8.50848 13.5234 8.31253C13.4895 8.20012 13.4484 8.15639 13.3499 8.08467C13.1536 8.01626 13.1536 8.01626 12.7203 8.03987Z" fill="#4A90E2"/>
<path d="M10.1532 0.199641C10.2924 0.308844 10.2924 0.308844 10.3954 0.423647C10.4303 0.460608 10.4653 0.49757 10.5013 0.535651C10.7335 0.831905 10.7204 1.1451 10.686 1.49888C10.6424 1.64786 10.5789 1.77065 10.4922 1.90209C10.4741 1.93108 10.456 1.96007 10.4374 1.98994C10.2966 2.19428 10.1472 2.29185 9.91102 2.3949C9.87905 2.3949 9.84708 2.3949 9.81415 2.3949C9.81447 2.43314 9.81479 2.47137 9.81513 2.51075C9.81804 2.87132 9.82025 3.23189 9.82168 3.59246C9.82243 3.77783 9.82346 3.96319 9.82511 4.14855C9.82669 4.32749 9.82756 4.50643 9.82793 4.68537C9.8282 4.75359 9.82873 4.8218 9.82951 4.89002C9.83057 4.98568 9.83071 5.08132 9.83064 5.17699C9.83097 5.23141 9.83129 5.28583 9.83162 5.3419C9.81248 5.49996 9.77156 5.58394 9.66884 5.7102C9.51682 5.78051 9.40058 5.77077 9.23292 5.755C9.0714 5.63935 8.99911 5.57295 8.96162 5.385C8.96216 5.32978 8.9627 5.27457 8.96325 5.21768C8.96322 5.18706 8.96318 5.15644 8.96314 5.12489C8.96331 5.02426 8.96519 4.92372 8.96709 4.8231C8.96755 4.75311 8.96789 4.68312 8.96813 4.61312C8.96906 4.42935 8.97143 4.24561 8.97411 4.06184C8.9766 3.87415 8.9777 3.68645 8.97892 3.49875C8.98151 3.13078 8.98564 2.76285 8.99074 2.3949C8.95378 2.38948 8.91682 2.38405 8.87874 2.37845C8.59941 2.31762 8.42905 2.10554 8.268 1.89947C8.06139 1.55535 8.05048 1.09086 8.1488 0.711531C8.28731 0.422974 8.57307 0.195338 8.88176 0.068037C9.31556 -0.057844 9.76076 -0.00625407 10.1532 0.199641Z" fill="#4A90E2"/>
<path d="M8.6517 7.23344C9.01932 7.23344 9.38695 7.23344 9.76571 7.23344C9.76571 8.09094 9.76571 8.94844 9.76571 9.83192C10.2292 9.83192 10.6928 9.83192 11.1703 9.83192C11.1703 10.1424 11.1703 10.4529 11.1703 10.7727C10.3392 10.7727 9.50804 10.7727 8.6517 10.7727C8.6517 9.60478 8.6517 8.43681 8.6517 7.23344Z" fill="#4A90E2"/>
<path d="M9.36915 2.06169C9.57253 2.08752 9.63667 2.16207 9.76571 2.3053C9.83481 2.43313 9.82108 2.54239 9.82195 2.68529C9.82219 2.7151 9.82243 2.7449 9.82268 2.77561C9.82339 2.87441 9.82372 2.9732 9.82399 3.072C9.82426 3.14064 9.82454 3.20928 9.82482 3.27793C9.82533 3.42199 9.82561 3.56604 9.82578 3.7101C9.82605 3.8945 9.82721 4.07888 9.82859 4.26328C9.82949 4.40514 9.82975 4.547 9.82982 4.68886C9.82997 4.75683 9.83035 4.82479 9.83099 4.89275C9.83182 4.98799 9.83173 5.08318 9.83141 5.17841C9.83159 5.23256 9.83144 5.28611 9.83162 5.3419C9.81248 5.49996 9.77156 5.58394 9.66884 5.7102C9.51682 5.78051 9.40058 5.77077 9.23292 5.755C9.0714 5.63935 8.99911 5.57295 8.96162 5.385C8.96216 5.32978 8.9627 5.27457 8.96325 5.21768C8.96322 5.18706 8.96318 5.15644 8.96314 5.12489C8.96331 5.02426 8.96519 4.92372 8.96709 4.8231C8.96755 4.75311 8.96789 4.68312 8.96813 4.61312C8.96906 4.42935 8.97143 4.24561 8.97411 4.06184C8.9766 3.87415 8.9777 3.68645 8.97892 3.49875C8.98151 3.13078 8.98564 2.76285 8.99074 2.3949C8.94279 2.38012 8.89484 2.36534 8.84544 2.3501C8.90937 2.3501 8.97331 2.3501 9.03918 2.3501C9.05317 2.32238 9.06715 2.29466 9.08156 2.2661C9.16044 2.12829 9.19982 2.08606 9.36915 2.06169Z" fill="#4A90E2"/>
<path d="M17.0878 12.0683C17.3179 12.1919 17.5577 12.3615 17.6414 12.6047C17.6986 12.8847 17.7039 13.1165 17.5396 13.3656C17.3546 13.5916 17.1658 13.7016 16.8638 13.7478C16.5534 13.7654 16.3466 13.6905 16.1108 13.5056C15.8619 13.2577 15.8455 13.0419 15.8491 12.7129C15.8791 12.4852 15.9742 12.3549 16.1592 12.2064C16.436 12.018 16.7623 11.941 17.0878 12.0683Z" fill="#4A90E2"/>
<path d="M2.55715 12.0683C2.78724 12.1919 3.0271 12.3615 3.11075 12.6047C3.16794 12.8847 3.17324 13.1165 3.00896 13.3656C2.82392 13.5916 2.63512 13.7016 2.33314 13.7478C2.02273 13.7654 1.81592 13.6905 1.58012 13.5056C1.33124 13.2577 1.31489 13.0419 1.31845 12.7129C1.34841 12.4852 1.44353 12.3549 1.62855 12.2064C1.90536 12.018 2.23162 11.941 2.55715 12.0683Z" fill="#4A90E2"/>
<path d="M2.74257 4.05255C3.00838 4.13838 3.19541 4.30566 3.33098 4.53172C3.42391 4.76435 3.42606 5.00141 3.32758 5.23261C3.17707 5.47533 2.98348 5.62099 2.69413 5.7102C2.44167 5.73256 2.22897 5.74032 1.99787 5.6374C1.77198 5.44835 1.59158 5.27596 1.53168 4.99338C1.52745 4.72172 1.58105 4.53344 1.77386 4.32136C2.08494 4.04981 2.31921 4.0103 2.74257 4.05255Z" fill="#4A90E2"/>
<path d="M16.7077 4.0452C16.9523 4.17363 17.1247 4.34574 17.2248 4.59017C17.2765 4.85644 17.2373 5.08301 17.0929 5.31784C16.9609 5.48584 16.8103 5.59907 16.5951 5.6654C16.2654 5.69703 15.9784 5.70204 15.7051 5.51297C15.4785 5.3069 15.4209 5.09847 15.4084 4.80858C15.4193 4.54234 15.4889 4.39815 15.6989 4.21251C15.9834 3.98019 16.3467 3.92511 16.7077 4.0452Z" fill="#4A90E2"/>
<path d="M9.66884 15.5665C9.93691 15.6531 10.1208 15.821 10.2574 16.0486C10.3468 16.2668 10.34 16.4781 10.2629 16.6988C10.1491 16.931 10.0034 17.074 9.7502 17.1828C9.47397 17.2707 9.18697 17.2684 8.92414 17.1513C8.70582 16.9686 8.52192 16.8049 8.49485 16.5204C8.48757 16.2387 8.48311 16.0519 8.70013 15.8353C9.01321 15.5649 9.24387 15.5241 9.66884 15.5665Z" fill="#4A90E2"/>
<path d="M1.53168 3.51494C1.56365 3.52972 1.59562 3.54451 1.62855 3.55974C1.43675 3.73715 1.24494 3.91456 1.04733 4.09735C1.04733 3.93075 1.08966 3.90195 1.20777 3.78094C1.25244 3.73443 1.25244 3.73443 1.29802 3.68697C1.38637 3.60454 1.38637 3.60454 1.53168 3.51494Z" fill="#4A90E2"/>
<path d="M8.6517 0.244442C8.58945 0.372886 8.52715 0.467377 8.40952 0.558051C8.37755 0.558051 8.34558 0.558051 8.31265 0.558051C8.46463 0.244442 8.46464 0.244442 8.6517 0.244442Z" fill="#4A90E2"/>
</svg>
