<svg width="30" height="31" viewBox="0 0 30 31" fill="none" xmlns="http://www.w3.org/2000/svg">
<path fill-rule="evenodd" clip-rule="evenodd" d="M0 11.5835H30V15.3335C30 19.3117 28.4196 23.1271 25.6066 25.9401C22.7936 28.7531 18.9782 30.3335 15 30.3335C11.0218 30.3335 7.20644 28.7531 4.3934 25.9401C1.58035 23.1271 0 19.3117 0 15.3335V11.5835ZM3.75 15.3335C3.75 16.8109 4.04099 18.2738 4.60636 19.6387C5.17172 21.0036 6.00039 22.2438 7.04505 23.2884C8.08971 24.3331 9.3299 25.1618 10.6948 25.7271C12.0597 26.2925 13.5226 26.5835 15 26.5835C16.4774 26.5835 17.9403 26.2925 19.3052 25.7271C20.6701 25.1618 21.9103 24.3331 22.955 23.2884C23.9996 22.2438 24.8283 21.0036 25.3936 19.6387C25.959 18.2738 26.25 16.8109 26.25 15.3335H3.75ZM3.75 2.2085H7.5V9.7085H3.75V2.2085ZM13.125 0.333496H16.875V7.8335H13.125V0.333496ZM22.5 2.2085H26.25V9.7085H22.5V2.2085Z" fill="black"/>
</svg>
