<svg width="29" height="30" viewBox="0 0 29 30" fill="none" xmlns="http://www.w3.org/2000/svg">
<path d="M17.4692 14.92C17.4692 15.743 17.2158 16.4456 16.7089 17.0277C16.202 17.6098 15.59 17.901 14.873 17.9014C14.1558 17.9014 13.5436 17.6103 13.0364 17.0282C12.5293 16.446 12.2757 15.7433 12.2757 14.92C12.2757 14.097 12.5291 13.3945 13.036 12.8124C13.5429 12.2303 14.1549 11.9391 14.8719 11.9387C15.5891 11.9387 16.2013 12.2298 16.7085 12.8119C17.2157 13.3941 17.4692 14.0968 17.4692 14.92ZM20.5452 0.666748C18.9816 0.666748 16.936 1.94675 14.8673 4.16275C12.7995 1.95875 10.7528 0.693415 9.19042 0.693415C8.71415 0.693415 8.28087 0.817415 7.90566 1.06408C6.30845 2.12142 5.95066 5.41608 6.77542 9.55075C3.23945 10.804 0.939453 12.808 0.939453 14.92C0.939453 17.04 3.25107 19.0494 6.79748 20.2934C5.9797 24.444 6.34445 27.744 7.94516 28.8C8.31688 29.0494 8.74667 29.1667 9.22526 29.1667C10.7876 29.1667 12.8344 27.8867 14.9032 25.668C16.9709 27.8734 19.0177 29.1387 20.5801 29.1387C21.0564 29.1387 21.4896 29.0187 21.8648 28.772C23.4609 27.716 23.8198 24.4214 22.9951 20.2854C26.5182 19.0427 28.8182 17.0347 28.8182 14.92C28.8182 12.8 26.5067 10.7907 22.9602 9.54408C23.778 5.39742 23.4132 2.09475 21.8126 1.03741C21.4432 0.792081 21.0133 0.668081 20.5452 0.666748ZM20.5394 2.12008C20.8007 2.12808 21.011 2.18675 21.1876 2.29742C21.9612 2.80675 22.297 4.74408 22.0356 7.23608C21.9729 7.84942 21.8706 8.49608 21.7451 9.15608C20.63 8.84142 19.415 8.60008 18.136 8.44408C17.3694 7.23742 16.5736 6.14142 15.7721 5.18142C17.6214 3.20808 19.358 2.12542 20.5394 2.12008ZM9.19042 2.14675C10.366 2.14675 12.1107 3.22408 13.9647 5.18675C13.1678 6.14675 12.3732 7.23608 11.6182 8.44275C10.3323 8.59875 9.11607 8.84008 8.00208 9.16008C7.87198 8.50675 7.77557 7.87475 7.70703 7.26675C7.43985 4.77608 7.76976 2.84008 8.53642 2.32408C8.75713 2.20408 9.00107 2.15475 9.19042 2.14675ZM14.8614 6.21342C15.39 6.83742 15.9185 7.53608 16.4412 8.29875C15.9301 8.27208 15.4074 8.25342 14.8788 8.25342C14.3445 8.25342 13.816 8.26675 13.2991 8.29875C13.8101 7.53608 14.3387 6.83742 14.8614 6.21342ZM14.8788 9.71475C15.7385 9.71475 16.5945 9.76008 17.4367 9.83875C17.9083 10.6147 18.3683 11.4427 18.8109 12.3187C19.243 13.172 19.6357 14.0387 19.9935 14.9134C19.6357 15.7867 19.243 16.66 18.8167 17.5134C18.3753 18.3934 17.9188 19.2307 17.446 20.0067C16.6004 20.0907 15.7431 20.1374 14.8788 20.1374C14.0192 20.1374 13.1632 20.0907 12.321 20.0134C11.8494 19.2374 11.3894 18.408 10.9468 17.5334C10.5147 16.68 10.122 15.8134 9.76422 14.9387C10.1162 14.0627 10.5147 13.188 10.941 12.3334C11.3824 11.4534 11.8389 10.6187 12.3116 9.84275C13.1573 9.75741 14.0146 9.71208 14.8788 9.71475ZM10.6563 10.0534C10.3776 10.5561 10.0988 11.0707 9.83862 11.6C9.57723 12.12 9.33329 12.6427 9.10097 13.1654C8.79314 12.2907 8.53178 11.4187 8.31572 10.5694C9.05915 10.3694 9.84324 10.1921 10.6563 10.0534ZM19.0897 10.0534C19.897 10.1907 20.6753 10.3601 21.4199 10.5694C21.2108 11.412 20.9495 12.2787 20.6532 13.1467C20.4209 12.6267 20.177 12.1027 19.9098 11.5814C19.6485 11.0587 19.3697 10.5494 19.0897 10.0534ZM22.6477 10.9534C23.21 11.1534 23.7443 11.376 24.245 11.6174C26.2569 12.604 27.5579 13.8947 27.5579 14.9187C27.5521 15.9427 26.251 17.2387 24.2391 18.2187C23.7513 18.4587 23.217 18.6747 22.6651 18.876C22.3399 17.5987 21.9148 16.268 21.3874 14.9027C21.9101 13.5467 22.3283 12.2227 22.6477 10.9534ZM7.08788 10.9587C7.41082 12.2387 7.83713 13.568 8.36567 14.932C7.84294 16.288 7.42243 17.612 7.10415 18.884C6.54193 18.684 6.00758 18.46 5.51273 18.2174C3.50082 17.2347 2.19981 15.9427 2.19981 14.9187C2.19981 13.8947 3.50082 12.596 5.51273 11.6174C6.00061 11.3774 6.53496 11.1614 7.08788 10.9587ZM20.6532 16.6654C20.961 17.5414 21.2224 18.4147 21.4385 19.2627C20.6951 19.472 19.9098 19.6494 19.0966 19.7827C19.3754 19.2827 19.6542 18.7667 19.9156 18.2387C20.1769 17.7187 20.4209 17.188 20.6532 16.6654ZM9.10097 16.692C9.33329 17.2147 9.57723 17.736 9.84437 18.2587C10.1116 18.7787 10.3845 19.288 10.6633 19.7827C9.85605 19.6467 9.07774 19.476 8.33314 19.268C8.54223 18.428 8.80476 17.5587 9.10097 16.692ZM21.7556 20.6747C21.8857 21.332 21.9879 21.9654 22.0507 22.572C22.3179 25.0627 21.9879 26.9987 21.2213 27.516C21.0505 27.636 20.8286 27.6867 20.5673 27.6867C19.3917 27.6867 17.6469 26.6107 15.793 24.6467C16.5899 23.6867 17.3845 22.5987 18.1395 21.3934C19.4254 21.236 20.6417 20.9934 21.7556 20.6747ZM8.0137 20.688C9.12885 21 10.3439 21.2414 11.6229 21.3974C12.3895 22.604 13.1852 23.7 13.9867 24.6587C12.1339 26.636 10.395 27.7187 9.21248 27.7187C8.95693 27.712 8.74087 27.652 8.57011 27.5427C7.79648 27.036 7.46076 25.0974 7.72213 22.6054C7.78485 21.992 7.88708 21.3467 8.0137 20.688ZM13.3107 21.5414C13.8218 21.568 14.3445 21.5867 14.873 21.5867C15.4074 21.5867 15.9359 21.5734 16.4529 21.5414C15.9417 22.304 15.4132 23.0014 14.8904 23.628C14.362 23.0014 13.8334 22.304 13.3107 21.5414Z" fill="#61DAFB"/>
</svg>
