<svg width="31" height="31" viewBox="0 0 31 31" fill="none" xmlns="http://www.w3.org/2000/svg">
<path d="M23.9665 2.87238C24.4418 3.22402 24.8843 3.59475 25.3267 3.9871C25.5104 4.14913 25.694 4.31116 25.8833 4.4781C28.5867 7.01071 30.3235 10.5206 30.4933 14.2596C30.5894 18.2847 29.6634 22.1575 26.862 25.1877C26.4938 25.5672 26.1172 25.9339 25.7361 26.3009C25.6042 26.4368 25.4722 26.5727 25.3363 26.7127C22.4962 29.4602 18.6779 30.3221 14.8553 30.2868C10.5629 30.159 6.95225 28.3307 3.99811 25.2389C0.985742 21.6822 0.275656 17.532 0.556361 12.9945C1.01078 9.29432 3.16136 5.93611 5.96767 3.55929C11.1998 -0.334925 18.4666 -0.757708 23.9665 2.87238Z" fill="#009688"/>
<path d="M14.2722 7.26252C17.3797 7.26252 20.4873 7.26252 23.689 7.26252C22.9224 7.8758 22.1512 8.47309 21.3604 9.05376C21.1692 9.19421 21.1692 9.19421 20.9741 9.33749C18.9713 10.7984 16.9243 12.1977 14.8863 13.6086C17.7236 13.71 17.7236 13.71 20.6183 13.8134C19.4671 14.9646 19.4671 14.9646 18.7431 15.4631C18.5025 15.6299 18.5025 15.6299 18.2571 15.8002C18.0863 15.9172 17.9155 16.0342 17.7395 16.1548C17.3711 16.4098 17.0027 16.6649 16.6344 16.92C16.3522 17.1146 16.3522 17.1146 16.0644 17.3132C15.1785 17.9254 14.2968 18.5435 13.4149 19.1615C13.2472 19.2787 13.0795 19.3959 12.9067 19.5166C12.0676 20.1034 11.2305 20.693 10.397 21.2878C10.2371 21.4016 10.0773 21.5155 9.91256 21.6327C9.61091 21.8478 9.30971 22.0635 9.00904 22.2799C8.4478 22.6797 7.96965 23.0109 7.3119 23.2302C7.7999 21.5937 8.5034 20.0701 9.22054 18.525C9.58852 17.7321 9.9533 16.9377 10.3186 16.1436C10.4296 15.9028 10.4296 15.9028 10.5427 15.6572C11.2753 14.066 11.9952 12.4693 12.7112 10.8706C12.7674 10.7455 12.8235 10.6204 12.8814 10.4915C13.3621 9.42062 13.8361 8.3526 14.2722 7.26252Z" fill="#F5FBFB"/>
</svg>
