<svg width="32" height="33" viewBox="0 0 32 33" fill="none" xmlns="http://www.w3.org/2000/svg">
<path d="M31.7792 15.9326L30.4361 15.1012C30.4305 15.0359 30.4246 14.9706 30.4183 14.9053C30.412 14.8401 30.4054 14.7749 30.3984 14.7097L31.5525 13.6338C31.6765 13.5162 31.7217 13.3736 31.6883 13.2061C31.6548 13.0385 31.5583 12.9242 31.3987 12.8632L29.9232 12.3112C29.905 12.2474 29.8862 12.1837 29.8669 12.1203C29.8475 12.0568 29.8276 11.9935 29.8072 11.9304L30.7277 10.6521C30.8284 10.5128 30.8458 10.3638 30.78 10.205C30.7142 10.0462 30.5965 9.95323 30.4268 9.92598L28.8717 9.67345C28.8414 9.61469 28.8106 9.55617 28.7793 9.4979C28.7481 9.43963 28.7163 9.38161 28.6841 9.32385L29.3375 7.88905C29.371 7.8163 29.3844 7.74002 29.3779 7.66019C29.3714 7.58037 29.3458 7.50728 29.3009 7.44092C29.2563 7.37446 29.1983 7.32297 29.1271 7.28647C29.0558 7.24996 28.9802 7.233 28.9001 7.23558L27.3208 7.29105C27.2803 7.23975 27.2392 7.18889 27.1976 7.13849C27.156 7.08808 27.1138 7.03814 27.0711 6.98865L27.4341 5.45132C27.4732 5.28422 27.4321 5.13998 27.3108 5.0186C27.1895 4.89722 27.0453 4.85604 26.8781 4.89505L25.3405 5.25825C25.2904 5.2161 25.24 5.17421 25.1893 5.13258C25.1387 5.09096 25.0879 5.0496 25.0368 5.00852L25.0921 3.42918C25.1004 3.25652 25.0327 3.12211 24.889 3.02596C24.7454 2.9298 24.5953 2.91843 24.4388 2.99185L23.0041 3.64652C22.8879 3.58305 22.7719 3.51958 22.6544 3.45892L22.4007 1.90252C22.372 1.73395 22.2786 1.61694 22.1206 1.55149C21.9627 1.48603 21.8139 1.50273 21.6744 1.60158L20.3948 2.52225C20.3317 2.50202 20.2684 2.48235 20.205 2.46324C20.1415 2.44413 20.0779 2.42558 20.0141 2.40758L19.4621 0.93211C19.4011 0.772427 19.2868 0.675855 19.1192 0.642393C18.9516 0.608932 18.809 0.654215 18.6913 0.778244L17.6155 1.93371C17.5503 1.92637 17.4851 1.91954 17.4199 1.91323C17.3546 1.90692 17.2893 1.90112 17.224 1.89585L16.3925 0.552644C16.3024 0.406545 16.1714 0.333496 15.9997 0.333496C15.828 0.333496 15.6971 0.406545 15.6069 0.552644L14.7755 1.89571C14.7102 1.90132 14.6449 1.90729 14.5796 1.9136C14.5144 1.91991 14.4492 1.92657 14.384 1.93358L13.3068 0.77811C13.1898 0.652344 13.047 0.606279 12.8785 0.639916C12.71 0.673554 12.5959 0.770907 12.5361 0.931977L11.984 2.40731C11.8557 2.44385 11.7303 2.48291 11.6033 2.52198L10.3251 1.60158C10.1855 1.50273 10.0368 1.48605 9.87878 1.55153C9.72081 1.61702 9.62748 1.73406 9.5988 1.90265L9.34506 3.45891C9.2863 3.48925 9.22779 3.52006 9.16952 3.55132C9.11125 3.58259 9.05323 3.61432 8.99546 3.64651L7.56053 2.99185C7.40418 2.92031 7.25457 2.93236 7.11169 3.028C6.96881 3.12364 6.90065 3.25737 6.9072 3.42918L6.96266 5.00851C6.91128 5.0492 6.86027 5.09035 6.80964 5.13198C6.75902 5.17361 6.70878 5.21569 6.65893 5.25825L5.12146 4.89491C4.95435 4.85586 4.81012 4.89701 4.68878 5.01836C4.56743 5.13971 4.52628 5.28394 4.56533 5.45105L4.92706 6.98851C4.84333 7.08851 4.75973 7.18971 4.67866 7.29091L3.09933 7.23558C2.92752 7.22903 2.79379 7.29719 2.69815 7.44007C2.60251 7.58295 2.59046 7.73257 2.662 7.88891L3.31666 9.32371C3.28445 9.38147 3.25271 9.43948 3.22145 9.49775C3.19018 9.55602 3.15938 9.61454 3.12906 9.67331L1.57413 9.92585C1.4056 9.95455 1.28859 10.0479 1.22311 10.2058C1.15763 10.3637 1.17428 10.5124 1.27306 10.652L2.1936 11.9302C2.17355 11.9935 2.15386 12.0568 2.13453 12.1203C2.1152 12.1837 2.09622 12.2473 2.0776 12.3109L0.602264 12.8629C0.442557 12.9239 0.345957 13.0382 0.312466 13.2058C0.278974 13.3734 0.32424 13.5161 0.448264 13.6337L1.6024 14.7097C1.59507 14.7748 1.58827 14.84 1.58198 14.9052C1.57569 14.9705 1.56992 15.0357 1.56466 15.101L0.221597 15.9325C0.0738656 16.0218 0 16.1527 0 16.3253C0 16.4979 0.0738656 16.6289 0.221597 16.7181L1.56466 17.5496C1.57533 17.6805 1.58893 17.8114 1.6024 17.941L0.448264 19.0182C0.322502 19.1353 0.276455 19.2781 0.310123 19.4466C0.34379 19.6151 0.441171 19.7292 0.602264 19.7889L2.0776 20.341C2.114 20.4693 2.1532 20.5962 2.1936 20.7217L1.27306 22C1.17133 22.1394 1.15364 22.2888 1.21999 22.4482C1.28634 22.6075 1.40483 22.7002 1.57546 22.7262L3.1304 22.9786C3.1912 23.096 3.25333 23.2121 3.31813 23.3282L2.66346 24.7632C2.59192 24.9195 2.60397 25.0691 2.69962 25.212C2.79526 25.3549 2.92899 25.4231 3.1008 25.4165L4.67866 25.3612C4.76106 25.4637 4.84333 25.5649 4.9284 25.6648L4.56666 27.2036C4.52735 27.3707 4.56845 27.5149 4.68999 27.6361C4.81152 27.7573 4.95579 27.7981 5.1228 27.7584L6.66013 27.3966C6.76013 27.4817 6.86146 27.564 6.964 27.6451L6.90866 29.2244C6.90096 29.3968 6.96887 29.5308 7.11239 29.6266C7.25591 29.7224 7.40578 29.7336 7.562 29.6604L8.9968 29.007C9.1128 29.0718 9.22893 29.1339 9.3464 29.1946L9.60013 30.7496C9.62841 30.9185 9.72158 31.0358 9.87964 31.1016C10.0377 31.1674 10.1866 31.1509 10.3264 31.052L11.6047 30.1315C11.6678 30.1518 11.7311 30.1716 11.7945 30.191C11.858 30.2103 11.9216 30.2291 11.9853 30.2475L12.5373 31.7229C12.5965 31.8848 12.7105 31.9826 12.8795 32.0163C13.0485 32.05 13.1914 32.0035 13.3081 31.8768L14.3853 30.7227C14.5149 30.7375 14.6459 30.7497 14.7768 30.7619L15.6083 32.1049C15.6989 32.2502 15.8298 32.3229 16.0011 32.3229C16.1723 32.3229 16.3032 32.2502 16.3939 32.1049L17.2253 30.7619C17.3563 30.7497 17.4872 30.7375 17.6168 30.7227L18.6927 31.8768C18.8103 32.0007 18.9529 32.046 19.1205 32.0125C19.288 31.9791 19.4023 31.8825 19.4633 31.7229L20.0155 30.2475C20.0792 30.2292 20.1429 30.2105 20.2063 30.1911C20.2698 30.1718 20.333 30.1519 20.3961 30.1315L21.6744 31.052C21.8138 31.1537 21.9632 31.1714 22.1226 31.1051C22.2819 31.0387 22.3746 30.9202 22.4007 30.7496L22.6544 29.1946C22.7717 29.1338 22.8879 29.0705 23.004 29.007L24.4389 29.6604C24.5949 29.7309 24.7441 29.7186 24.8865 29.6236C25.0289 29.5286 25.0975 29.3955 25.0923 29.2244L25.0369 27.6451C25.0882 27.6048 25.139 27.5639 25.1894 27.5225C25.2398 27.4811 25.2897 27.4391 25.3392 27.3966L26.8767 27.7584C27.0434 27.7972 27.1874 27.7562 27.3086 27.6353C27.4298 27.5144 27.4712 27.3705 27.4328 27.2037L27.0711 25.6648C27.1548 25.5649 27.2384 25.4637 27.3195 25.361L28.8988 25.4164C29.0715 25.4246 29.2059 25.3569 29.302 25.2133C29.3982 25.0696 29.4095 24.9195 29.3361 24.763L28.6828 23.3284C28.7461 23.2121 28.8096 23.0961 28.8704 22.9786L30.4253 22.7262C30.5939 22.6976 30.711 22.6042 30.7764 22.4463C30.8419 22.2883 30.8253 22.1395 30.7264 22L29.8059 20.7217L29.9219 20.341L31.3973 19.789C31.5585 19.7293 31.6559 19.6151 31.6895 19.4466C31.7231 19.2781 31.677 19.1353 31.5512 19.0182L30.3971 17.941C30.4105 17.8114 30.424 17.6805 30.4348 17.5496L31.7779 16.7181C31.9256 16.6288 31.9995 16.4979 31.9995 16.3253C31.9995 16.1527 31.9269 16.0219 31.7792 15.9326ZM22.7908 27.0728C22.5351 27.0166 22.3364 26.8784 22.1948 26.6583C22.0531 26.4382 22.0096 26.2001 22.0644 25.9442C22.1191 25.6882 22.2562 25.4887 22.4755 25.3458C22.6948 25.2029 22.9326 25.1581 23.1889 25.2114C23.4498 25.263 23.6534 25.3998 23.7996 25.622C23.9458 25.8441 23.991 26.0852 23.9352 26.3452C23.8794 26.6052 23.7392 26.8065 23.5147 26.9491C23.2902 27.0916 23.0499 27.1329 22.7908 27.0728ZM22.3345 23.9872C22.1004 23.9368 21.8828 23.9767 21.6818 24.107C21.4808 24.2372 21.3555 24.4195 21.3059 24.6538L20.8295 26.8785C19.3581 27.5465 17.7248 27.9178 16.0037 27.9178C15.1528 27.9191 14.3119 27.8282 13.4809 27.6451C12.6499 27.462 11.8486 27.1912 11.0769 26.8325L10.6004 24.608C10.5508 24.3737 10.4255 24.1916 10.2244 24.0615C10.0234 23.9315 9.80586 23.8919 9.57187 23.9426L7.60787 24.3637C7.4254 24.1758 7.24948 23.982 7.08011 23.7822C6.91074 23.5824 6.7483 23.3771 6.5928 23.1664H16.1496C16.2576 23.1664 16.3304 23.1476 16.3304 23.049V19.6677C16.3304 19.569 16.2589 19.5502 16.1496 19.5502H13.3541V17.4066H16.3777C16.6531 17.4066 17.8531 17.4849 18.2364 19.0184C18.3565 19.4894 18.6197 21.0242 18.8007 21.5156C18.9801 22.0662 19.7117 23.1664 20.492 23.1664H25.2541C25.2831 23.166 25.3121 23.1643 25.3409 23.1614C25.3698 23.1585 25.3984 23.1543 25.4269 23.1489C25.2618 23.3732 25.089 23.5913 24.9083 23.8033C24.7277 24.0152 24.5397 24.2205 24.3444 24.419L22.3345 23.9872ZM9.1156 27.0269C8.85653 27.087 8.61474 27.0458 8.39022 26.9032C8.16571 26.7607 8.02554 26.5594 7.96972 26.2994C7.9139 26.0393 7.95909 25.7983 8.10531 25.5761C8.25153 25.354 8.4551 25.2171 8.716 25.1656C8.97091 25.1152 9.20689 25.1615 9.42393 25.3043C9.64097 25.4472 9.77676 25.6457 9.8313 25.8997C9.88584 26.1538 9.84347 26.3905 9.7042 26.6098C9.56492 26.8292 9.36872 26.9682 9.1156 27.0269ZM5.49 12.3245C5.60587 12.5663 5.61744 12.8131 5.52473 13.0647C5.43202 13.3163 5.26312 13.4965 5.01804 13.6054C4.77296 13.7142 4.52601 13.7187 4.27717 13.6187C4.02833 13.5188 3.85305 13.3448 3.75133 13.0966C3.654 12.8585 3.65333 12.6201 3.74934 12.3815C3.84534 12.1428 4.0109 11.9713 4.24601 11.8669C4.48113 11.7625 4.7194 11.7547 4.96082 11.8435C5.20224 11.9324 5.37863 12.0926 5.49 12.3245ZM4.3764 14.9662L6.42266 14.0564C6.64156 13.9592 6.79398 13.7988 6.87992 13.5752C6.96585 13.3517 6.9601 13.1305 6.86266 12.9117L6.4416 11.9588H8.0992V19.4288H4.7556C4.54944 18.7039 4.41458 17.966 4.35102 17.215C4.28745 16.4641 4.29502 15.7155 4.3764 14.9662ZM13.3555 14.2413V12.0397H17.3023C17.5063 12.0397 18.7412 12.276 18.7412 13.1993C18.7412 13.966 17.7936 14.2413 17.0148 14.2413H13.3555ZM27.6987 16.2229C27.6987 16.5145 27.688 16.8046 27.6663 17.0909H26.4663C26.3463 17.0909 26.2976 17.1691 26.2976 17.2878V17.8385C26.2976 19.1358 25.566 19.418 24.9248 19.4894C24.3147 19.5584 23.6384 19.2344 23.5548 18.8605C23.1943 16.8357 22.5951 16.4024 21.6475 15.656C22.8231 14.9094 24.0461 13.808 24.0461 12.334C24.0461 10.7425 22.9541 9.73959 22.2103 9.24692C21.1669 8.55852 20.0115 8.42092 19.6996 8.42092H7.29066C8.14814 7.4621 9.13696 6.66654 10.2571 6.03423C11.3773 5.40192 12.5694 4.96641 13.8333 4.72772L15.2965 6.26238C15.4614 6.43587 15.6635 6.52539 15.9028 6.53094C16.142 6.53649 16.348 6.45644 16.5208 6.29078L18.1568 4.72505C19.8449 5.04165 21.3884 5.69811 22.7874 6.69445C24.1864 7.69079 25.3115 8.93486 26.1627 10.4266L25.0423 12.9576C24.9456 13.1764 24.9402 13.3974 25.026 13.6207C25.1119 13.844 25.2639 14.0045 25.4823 14.1022L27.6393 15.0606C27.6771 15.444 27.696 15.83 27.6987 16.2229ZM15.2979 3.42385C15.4877 3.24245 15.7139 3.15481 15.9765 3.1609C16.239 3.167 16.4609 3.26506 16.6421 3.45508C16.8234 3.64509 16.9108 3.87136 16.9045 4.13388C16.8982 4.3964 16.8 4.61821 16.6099 4.79931C16.4179 4.96503 16.1953 5.04175 15.942 5.02948C15.6887 5.0172 15.4745 4.91931 15.2994 4.7358C15.1244 4.5523 15.0367 4.33374 15.0364 4.08014C15.0361 3.82654 15.1233 3.60778 15.2979 3.42385ZM26.4164 12.3705C26.5222 12.1304 26.6976 11.9632 26.9424 11.8687C27.1872 11.7743 27.4294 11.7804 27.6691 11.8872C27.9096 11.9933 28.0773 12.169 28.1723 12.4141C28.2672 12.6593 28.2615 12.9021 28.1552 13.1425C28.0489 13.383 27.8732 13.5506 27.628 13.6454C27.3827 13.7402 27.1399 13.7343 26.8995 13.6279C26.6592 13.5214 26.4917 13.3455 26.397 13.1002C26.3024 12.855 26.3098 12.6108 26.4164 12.3705Z" fill="black"/>
</svg>
