<svg width="45" height="21" viewBox="0 0 45 21" fill="none" xmlns="http://www.w3.org/2000/svg">
<path d="M35.5706 8.68195L34.637 8.30859C30.2493 18.1812 12.7943 12.1791 11.744 15.1161C11.569 17.1 21.2762 15.4933 28.2158 15.8296C30.3321 15.9321 31.3933 17.5296 30.4947 20.1334L32.2646 20.1389C34.3063 13.774 40.8222 17.0223 41.0945 14.9217C40.6471 13.5406 33.606 14.9217 35.5706 8.68195Z" fill="white"/>
<path d="M30.996 19.0458C31.276 18.1122 31.1826 17.1786 30.7159 16.6184C30.2491 16.0582 29.5955 15.6848 28.7553 15.5915L12.5104 15.4046C12.4171 15.4046 12.3237 15.3113 12.2304 15.3113C12.137 15.2179 12.137 15.1246 12.2304 15.0313C12.3237 14.8446 12.4171 14.7511 12.6037 14.7511L28.9419 14.5644C30.9026 14.471 32.9566 12.8839 33.7033 11.0168L34.6371 8.58939C34.6371 8.49587 34.7304 8.40253 34.6371 8.30919C33.61 3.5478 29.3155 0 24.2739 0C19.6058 0 15.5913 2.98758 14.1909 7.18894C13.2573 6.53538 12.137 6.16185 10.8299 6.25536C8.58923 6.44204 6.81541 8.30919 6.53522 10.5499C6.44188 11.1101 6.53522 11.6703 6.62873 12.2304C2.98759 12.3237 0 15.3113 0 19.0458C0 19.4191 0 19.6993 0.0933401 20.0727C0.0933401 20.2595 0.28002 20.3529 0.373536 20.3529H30.3424C30.5291 20.3529 30.7159 20.2595 30.7159 20.0727L30.996 19.0458Z" fill="#F4811F"/>
<path d="M36.1306 8.58887H35.6638C35.5704 8.58887 35.4771 8.68221 35.3837 8.77555L34.7302 11.0162C34.4502 11.9498 34.5435 12.8836 35.0104 13.4436C35.4771 14.0038 36.1306 14.3772 36.9709 14.4707L40.4253 14.6574C40.5187 14.6574 40.612 14.7507 40.7054 14.7507C40.7987 14.8441 40.7987 14.9374 40.7054 15.0307C40.612 15.2176 40.5187 15.3109 40.3318 15.3109L36.7842 15.4976C34.8235 15.5909 32.7697 17.1781 32.0228 19.0452L31.8359 19.8856C31.7426 19.979 31.8359 20.1657 32.0228 20.1657H44.3465C44.5332 20.1657 44.6265 20.0723 44.6265 19.8856C44.8132 19.1387 44.9999 18.2985 44.9999 17.4581C44.9999 12.6034 40.9854 8.58887 36.1306 8.58887Z" fill="#FAAD3F"/>
</svg>
