<svg width="32" height="34" viewBox="0 0 32 34" fill="none" xmlns="http://www.w3.org/2000/svg">
<path d="M29.2691 0.000435809C29.351 -0.00481078 29.4287 0.0376458 29.4694 0.109884C29.5101 0.182122 29.5068 0.271553 29.4607 0.340427L21.1735 11.7544C21.1128 11.8239 21.0256 11.8637 20.934 11.8637C20.8424 11.8637 20.7552 11.8239 20.6945 11.7544L17.7724 8.45165C17.701 8.37653 17.5999 8.33832 17.4974 8.34776C17.395 8.3572 17.3023 8.41328 17.2455 8.50022L15.4731 10.783C15.417 10.9116 15.4354 11.061 15.521 11.1716L20.7903 16.7086C20.851 16.7781 20.9382 16.8179 21.0298 16.8179C21.1214 16.8179 21.2086 16.7781 21.2693 16.7086L31.6164 4.90603C31.6774 4.83946 31.7721 4.81685 31.8561 4.84877C31.9401 4.8807 31.9967 4.96085 31.9996 5.05174V33.7567C32.0035 33.8223 31.9796 33.8864 31.9338 33.9329C31.888 33.9793 31.8247 34.0036 31.7601 33.9996H0.239939C0.175282 34.0036 0.11203 33.9793 0.0662242 33.9329C0.0204188 33.8864 -0.00353991 33.8223 0.000424298 33.7567V0.243287C-0.00353991 0.177729 0.0204188 0.113596 0.0662242 0.0671523C0.11203 0.0207088 0.175282 -0.00358362 0.239939 0.000435809H29.2691ZM21.1256 19.3799C19.6995 19.3545 18.3251 19.9211 17.321 20.9483C16.317 21.9755 15.7705 23.3741 15.8084 24.8198C15.8084 28.1711 18.2035 30.3082 21.3172 30.3082C22.7586 30.3446 24.172 29.901 25.3411 29.0454C25.4494 28.9456 25.4698 28.7806 25.389 28.6569L24.5267 27.3455C24.4298 27.2328 24.2648 27.2118 24.1435 27.2969C23.394 27.8158 22.512 28.1027 21.6046 28.1226C19.928 28.1226 18.8742 27.054 18.6826 25.7912C18.686 25.7391 18.727 25.6976 18.7784 25.6941H26.0117C26.1659 25.6835 26.2887 25.559 26.2991 25.4026V25.1112C26.2991 21.7113 24.1914 19.3799 21.1256 19.3799ZM13.9881 17.5343C12.5331 16.3284 10.6921 15.7062 8.81456 15.7857C5.55716 15.7857 3.54524 17.7286 3.54524 20.0599C3.54524 25.3541 11.4971 23.6541 11.4971 26.1312C11.4971 26.9083 10.7307 27.6854 9.10198 27.6854C7.55513 27.6984 6.06273 27.107 4.93443 26.0341C4.86706 25.9702 4.77581 25.9389 4.68405 25.9482C4.59229 25.9575 4.50895 26.0065 4.4554 26.0826L3.20992 27.8312C3.12911 27.9549 3.14945 28.1199 3.25782 28.2197C4.5512 29.434 6.37151 30.2597 8.91037 30.2597C12.6468 30.2597 14.4671 28.3169 14.5629 25.7912C14.5629 20.5456 6.61103 22.0513 6.61103 19.8171C6.61103 18.9914 7.32957 18.4085 8.57505 18.4085C9.948 18.3895 11.2851 18.8528 12.3594 19.7199C12.4225 19.7724 12.5039 19.7968 12.585 19.7877C12.6662 19.7785 12.7402 19.7366 12.7905 19.6714L14.036 17.9714C14.0877 17.9074 14.1118 17.8249 14.1028 17.7426C14.0938 17.6603 14.0524 17.5852 13.9881 17.5343ZM21.1735 21.517C22.4764 21.4431 23.6012 22.4329 23.7124 23.7513C23.7089 23.8034 23.668 23.8449 23.6166 23.8484H18.7305C18.6791 23.8449 18.6381 23.8034 18.6347 23.7513C18.7948 22.4588 19.889 21.496 21.1735 21.517Z" fill="#2CB134"/>
</svg>
