<svg width="27" height="33" viewBox="0 0 27 33" fill="none" xmlns="http://www.w3.org/2000/svg">
<path d="M11.1208 28.8337C9.91963 29.1458 8.73727 29.0861 7.57368 28.6546C6.41009 28.2231 5.47468 27.4975 4.76744 26.4777C4.33904 25.8784 4.04356 25.2194 3.88098 24.5009C3.7184 23.7824 3.70144 23.0604 3.8301 22.335C3.85182 22.2171 3.87758 22.1001 3.90739 21.9839C3.93721 21.8678 3.971 21.7528 4.00877 21.639L4.14877 21.211L4.53144 21.491C4.97225 21.8148 5.43732 22.099 5.92664 22.3434C6.41595 22.5878 6.92244 22.789 7.4461 22.947L7.72344 23.031L7.69677 23.3084C7.68012 23.5048 7.69769 23.6981 7.74949 23.8884C7.80129 24.0786 7.88416 24.2541 7.9981 24.415C8.21092 24.7224 8.49256 24.9411 8.843 25.0713C9.19344 25.2015 9.54959 25.2196 9.91144 25.1257C9.99231 25.1042 10.0711 25.0767 10.1478 25.0432C10.2244 25.0097 10.2981 24.9705 10.3688 24.9257L17.8221 20.1764C18.0061 20.0601 18.159 19.9117 18.2806 19.7312C18.4022 19.5506 18.4822 19.3533 18.5208 19.139C18.5595 18.9204 18.5545 18.7027 18.5058 18.4861C18.457 18.2694 18.3682 18.0706 18.2394 17.8897C18.0265 17.5825 17.7448 17.3638 17.3944 17.2337C17.0441 17.1036 16.6879 17.0853 16.3261 17.179C16.2452 17.2005 16.1665 17.228 16.0898 17.2615C16.0131 17.2951 15.9394 17.3342 15.8688 17.379L13.0248 19.1924C12.791 19.3412 12.5472 19.4713 12.2935 19.5829C12.0398 19.6944 11.7791 19.786 11.5114 19.8577C10.3104 20.1699 9.12816 20.1104 7.96459 19.6792C6.80102 19.2479 5.86552 18.5225 5.1581 17.503C4.7297 16.9034 4.43432 16.2443 4.27196 15.5255C4.10961 14.8067 4.09299 14.0845 4.2221 13.359C4.34987 12.6474 4.61592 11.992 5.02027 11.3927C5.42461 10.7934 5.93278 10.3013 6.54477 9.91636L13.9968 5.16569C14.2305 5.01683 14.4743 4.88663 14.728 4.77509C14.9817 4.66355 15.2424 4.57197 15.5101 4.50036C16.7112 4.18827 17.8936 4.24797 19.0572 4.67946C20.2208 5.11096 21.1562 5.83659 21.8634 6.85636C22.2918 7.45569 22.5873 8.11463 22.7499 8.83316C22.9125 9.55169 22.9294 10.2737 22.8008 10.999C22.779 11.1169 22.7532 11.2339 22.7233 11.3501C22.6935 11.4662 22.6598 11.5812 22.6221 11.695L22.4821 12.123L22.1008 11.843C21.6598 11.5188 21.1946 11.2344 20.705 10.9897C20.2155 10.7451 19.7087 10.5437 19.1848 10.3857L18.9074 10.3017L18.9341 10.0257C18.9508 9.82903 18.9332 9.63548 18.8815 9.44503C18.8297 9.25459 18.7468 9.07881 18.6328 8.91769C18.4198 8.6106 18.1381 8.3921 17.7876 8.26218C17.4372 8.13227 17.0811 8.11433 16.7194 8.20836C16.6386 8.22984 16.5598 8.25734 16.4831 8.29087C16.4065 8.3244 16.3328 8.36356 16.2621 8.40836L8.80877 13.1577C8.62462 13.2738 8.47173 13.4222 8.35011 13.6027C8.2285 13.7833 8.14849 13.9807 8.1101 14.195C8.07117 14.4137 8.0761 14.6314 8.1249 14.848C8.17369 15.0647 8.26254 15.2635 8.39144 15.4444C8.60438 15.7515 8.88605 15.9702 9.23643 16.1003C9.58682 16.2305 9.94293 16.2487 10.3048 16.155C10.3859 16.1334 10.4649 16.1057 10.5418 16.0719C10.6187 16.0382 10.6926 15.9988 10.7634 15.9537L13.6061 14.1404C13.8399 13.9917 14.0836 13.8617 14.3373 13.7504C14.591 13.6391 14.8517 13.5477 15.1194 13.4764C16.3204 13.1641 17.5027 13.2236 18.6663 13.6549C19.8299 14.0861 20.7653 14.8115 21.4728 15.831C21.9012 16.4306 22.1966 17.0898 22.3589 17.8086C22.5213 18.5274 22.5379 19.2495 22.4088 19.975C22.281 20.6868 22.015 21.3424 21.6106 21.942C21.2063 22.5415 20.6981 23.0339 20.0861 23.419L12.6341 28.1684C12.4003 28.3172 12.1566 28.4474 11.9029 28.559C11.6492 28.6705 11.3885 28.7621 11.1208 28.8337ZM24.9314 4.90036C21.9608 0.647027 16.0914 -0.612968 11.8488 2.09103L4.39543 6.84036C3.37782 7.4808 2.53292 8.29948 1.86072 9.2964C1.18853 10.2933 0.746319 11.3835 0.534101 12.567C0.356286 13.5531 0.343441 14.5414 0.495565 15.5318C0.647689 16.5222 0.956534 17.4611 1.4221 18.3484C1.10299 18.8321 0.835677 19.3429 0.620151 19.8808C0.404624 20.4187 0.245274 20.9728 0.142101 21.543C-0.0720974 22.7492 -0.0441389 23.9498 0.225976 25.1448C0.496091 26.3397 0.987244 27.4356 1.69943 28.4324C4.67143 32.6857 10.5394 33.9457 14.7821 31.243L22.2354 26.4937C23.2532 25.8534 24.0981 25.0347 24.7704 24.0378C25.4426 23.0408 25.8847 21.9506 26.0968 20.767C26.2746 19.781 26.2876 18.7928 26.1357 17.8024C25.9838 16.812 25.6753 15.8731 25.2101 14.9857C25.5288 14.5019 25.7956 13.991 26.0107 13.4531C26.2258 12.9152 26.3847 12.3612 26.4874 11.791C26.7022 10.5847 26.6746 9.38391 26.4047 8.18869C26.1348 6.99348 25.6437 5.89737 24.9314 4.90036Z" fill="#FF3E00"/>
</svg>
