<svg width="26" height="31" viewBox="0 0 26 31" fill="none" xmlns="http://www.w3.org/2000/svg">
<path d="M21.6625 9.06914C26.5384 13.945 26.5384 21.7667 21.6625 26.6764C16.8883 31.5522 9.03273 31.5522 4.15688 26.6764C-0.718962 21.8005 -0.718962 13.945 4.15688 9.06914L12.8928 0.333252V4.7012L6.29007 11.3039C2.63318 14.8931 2.63318 20.7847 6.29007 24.4416C9.87923 28.0985 15.7709 28.0985 19.4278 24.4416C23.0846 20.8524 23.0846 14.9608 19.4278 11.3039L21.6625 9.06914ZM17.2946 8.52738C16.397 8.52738 15.6693 7.79972 15.6693 6.9021C15.6693 6.00448 16.397 5.27682 17.2946 5.27682C18.1922 5.27682 18.9199 6.00448 18.9199 6.9021C18.9199 7.79972 18.1922 8.52738 17.2946 8.52738Z" fill="#EE4C2C"/>
</svg>
