<svg width="30" height="29" viewBox="0 0 30 29" fill="none" xmlns="http://www.w3.org/2000/svg">
<path fill-rule="evenodd" clip-rule="evenodd" d="M8.81505 6.25276C8.71411 5.31279 9.50112 5.71123 9.40058 6.27795C9.25288 6.42897 8.98007 6.3051 8.81505 6.25276ZM9.75188 6.07649C9.9501 6.05474 10.1391 6.02279 10.197 5.84996C9.92278 5.66828 9.51307 6.11654 9.68163 6.32839C9.7752 6.31985 9.69243 6.12183 9.75188 6.07649ZM7.12859 6.65556C7.29367 6.57304 7.56488 6.60419 7.64393 6.42903C7.1526 6.24508 6.26779 6.38086 6.12135 6.73113C6.49591 6.70624 6.80914 6.38676 7.12859 6.65556ZM6.02767 6.75638C5.92124 6.73236 5.8802 6.8623 5.93404 6.93253C6.01721 6.92958 6.0283 6.84922 6.02767 6.75638ZM5.77 7.25994C5.75502 7.01977 5.21453 6.82802 5.16109 7.15924C5.20785 7.34731 5.64379 7.46828 5.77 7.25994ZM4.85661 7.03341C4.74498 7.039 4.68759 7.10358 4.62232 7.15924C4.70725 7.21245 4.89542 7.1934 4.85661 7.03341ZM4.57562 7.71306C4.98819 7.68191 5.11376 8.08968 5.46552 8.04035C5.53108 7.60142 4.69188 6.99765 4.57562 7.71306ZM10.15 9.90333C10.027 9.46452 10.4037 9.0879 10.1734 8.74512C9.85459 8.77247 9.57886 10.3631 10.0329 10.3567C10.359 10.3518 10.4739 9.38975 10.5013 9.07272C10.2626 9.21858 10.3666 9.73332 10.15 9.90333ZM6.23852 9.7273C6.24561 9.66076 6.20606 9.64454 6.14484 9.65155C6.14639 9.7195 6.19834 9.77264 6.23852 9.7273ZM7.38626 10.4574C7.39078 10.3014 7.38506 10.1565 7.2692 10.1301C7.18101 10.1194 7.18627 10.2088 7.12859 10.2309C7.16077 10.364 7.22616 10.4618 7.38626 10.4574ZM6.26196 11.2631C6.71105 11.3174 7.01176 11.6657 7.43308 11.6658C7.0971 11.4227 6.74803 11.1937 6.21509 11.1624C6.19811 11.231 6.26162 11.213 6.26196 11.2631ZM9.79875 11.6407C9.76382 11.4684 9.69426 11.3332 9.61144 11.2126C9.6419 11.3896 9.68391 11.5542 9.79875 11.6407ZM7.22222 12.1945C6.92825 11.7717 6.4599 11.4033 5.93404 11.3133C6.00829 11.9887 6.70677 11.9936 7.22222 12.1945ZM6.42595 12.3455C6.22521 11.9823 5.88106 11.7731 5.46552 11.6407C5.69906 11.9527 5.91301 12.4177 6.42595 12.3455ZM5.34845 11.9932C5.42842 12.1424 5.62945 12.295 5.58275 12.4967C5.37738 12.4322 5.27752 12.2541 5.06741 12.1946C5.17898 12.3612 5.60481 13.0996 5.86368 13.076C6.02892 13.0606 6.10363 12.8645 6.07448 12.5472C5.94787 12.2551 5.54485 12.1262 5.34845 11.9932ZM6.54301 12.6478C6.59508 12.8017 6.61337 12.9917 6.80073 13.0001C6.76884 12.8247 6.6735 12.7173 6.54301 12.6478ZM6.37902 12.7234C6.29168 12.7132 6.24167 12.7433 6.23858 12.8239C6.26482 12.8295 6.27505 12.8518 6.28534 12.8743C6.36021 12.8711 6.38857 12.8173 6.37902 12.7234ZM10.3843 13.3024C10.4087 13.1601 10.4335 12.8859 10.3843 12.7484C10.3542 12.8899 10.2411 13.208 10.3843 13.3024ZM8.74475 12.7736C8.76264 12.9224 8.6957 13.1621 8.81499 13.2018C8.8202 13.0917 8.84409 12.8436 8.74475 12.7736ZM9.84556 13.3527C9.7776 13.288 9.68008 13.3859 9.63476 13.3277C9.58686 13.161 9.60669 12.9216 9.47083 12.8492C9.45534 12.8492 9.43962 12.8492 9.42407 12.8492C9.23116 13.2787 9.2502 14.2014 9.58795 14.4353C9.65173 14.5514 9.65796 14.7294 9.82218 14.7375C9.95719 14.6223 9.99034 14.3981 10.0096 14.1583C9.71644 14.0921 9.98954 13.5489 9.84556 13.3527ZM10.5483 13.6295C10.5772 13.4066 10.7545 13.0824 10.6186 12.8492C10.5737 13.0699 10.4888 13.3808 10.5483 13.6295ZM6.42595 13.8312C6.46327 13.7162 6.43395 13.521 6.35564 13.4535C6.301 13.5637 6.26922 13.8176 6.42595 13.8312ZM6.84749 13.9318C6.94209 13.998 6.94935 14.1579 7.08178 14.1836C7.24657 13.9575 6.93397 13.559 6.84749 13.9318ZM10.8527 14.4353C10.8529 14.5124 10.7588 14.618 10.8294 14.687C10.8429 14.6246 10.9142 14.4949 10.8527 14.4353ZM11.0635 15.4172C11.0625 15.3009 11.0767 15.1684 11.0167 15.1152C11.0062 15.2048 10.9444 15.4034 11.0635 15.4172ZM8.08891 16.4496C8.1028 16.5434 8.11703 16.6374 8.20597 16.651C8.26342 16.5646 8.221 16.4116 8.08891 16.4496ZM9.14291 16.5756C9.17549 16.642 9.26912 16.7741 9.33022 16.7263C9.27603 16.6834 9.2135 16.5174 9.14291 16.5756ZM11.368 16.8525C11.3022 17.1523 11.4579 17.4254 11.5788 17.6078C11.6283 17.3156 11.6237 16.897 11.368 16.8525ZM11.9537 18.7908C11.9891 18.7147 12.0016 18.4801 11.9302 18.4387C11.8686 18.5297 11.8136 18.7473 11.9537 18.7908ZM13.0074 19.9996C12.9735 19.8146 12.8387 19.6148 12.7031 19.6217C12.7505 19.8056 12.7587 20.032 13.0074 19.9996ZM13.2185 20.3519C13.2194 20.4684 13.2054 20.6013 13.2652 20.6539C13.2683 20.5335 13.2667 20.4175 13.2185 20.3519ZM5.48895 20.3772C5.48929 20.4694 5.53519 20.5121 5.58275 20.5534C5.57337 20.4709 5.5624 20.3907 5.48895 20.3772ZM14.0617 21.7617C14.004 21.287 13.7717 20.9996 13.4761 20.7801C13.5184 21.2714 13.7424 21.5681 14.0617 21.7617ZM17.8327 24.2544C17.8185 24.2401 17.7215 24.1956 17.7156 24.2544C17.7508 24.2835 17.8142 24.3428 17.8327 24.2544ZM29.708 26.1175C29.708 26.21 29.708 26.302 29.708 26.3945C29.67 26.4796 29.6576 26.592 29.6377 26.6965C28.9863 27.1461 27.7627 26.9806 27.2251 27.5527C26.2821 27.0066 25.4058 27.8667 24.4146 27.9556C24.2508 27.9701 24.0687 27.9408 23.899 27.9556C23.3133 28.0065 22.7414 28.1537 22.1424 28.2073C21.5283 28.2623 20.9128 28.3026 20.2687 28.3333C20.0343 28.3333 19.8003 28.3333 19.5661 28.3333C16.661 28.1693 13.7887 27.7492 11.6492 26.7218C10.5826 26.2095 9.60075 25.5811 8.69799 24.8335C7.81947 24.1063 6.91768 23.2979 6.28534 22.3914C5.61213 21.4261 4.93857 20.4874 4.34127 19.4207C3.76506 18.391 3.22645 17.3064 2.74861 16.0971C2.27722 14.9047 1.94136 13.7248 1.62419 12.2702C1.41688 11.3189 1.19807 10.2418 0.82786 9.34976C0.683707 9.00237 0.51589 8.71803 0.5 8.39289C0.5 8.3175 0.5 8.24175 0.5 8.16636C0.615517 7.10886 1.38064 6.49501 2.28008 6.20244C2.50529 6.12926 2.72426 6.05934 2.93592 5.92547C2.94969 5.91693 3.08464 5.90212 3.02971 5.82483C2.62898 5.72118 2.29929 6.35536 1.8586 6.17731C1.46735 6.01916 1.69261 5.36802 2.11627 5.17025C2.31403 5.0779 2.70671 5.05388 2.8891 4.94366C3.20359 4.75369 3.34631 4.3523 3.28738 3.98692C3.25246 3.77102 3.044 3.65735 3.05315 3.48336C3.06595 3.24073 3.46955 3.02975 3.66206 2.8791C3.89761 2.69484 4.17642 2.46468 4.15396 2.17413C4.1303 1.87062 3.79821 1.77392 3.63862 1.54474C3.3881 1.18508 3.34837 0.647477 3.75568 0.4368C4.18271 0.215924 4.9783 0.336285 5.06741 0.915232C5.14594 1.42549 4.80894 1.61989 4.95018 1.9978C5.21333 2.70104 7.25989 1.58788 6.75386 3.05531C7.20393 3.81366 8.96275 3.16491 9.00242 4.36453C9.73599 4.38038 10.0731 4.97874 10.6654 5.22057C10.8241 5.28533 11.0131 5.28533 11.1807 5.3464C12.1796 5.71135 13.4174 6.10284 13.8274 7.13399C13.4569 7.4023 12.9513 7.22265 12.5159 7.05848C12.1371 6.91551 11.5849 6.63239 11.2042 6.80664C10.8266 6.97947 10.8468 7.67282 10.8997 8.36752C11.0403 10.217 11.1228 12.1246 11.368 13.7806C11.7106 16.0922 12.4428 17.9435 13.4762 19.3952C14.4759 20.7997 15.6503 22.2704 17.1768 23.2978C18.4649 24.1644 19.912 24.8481 21.7443 25.2866C22.0161 25.3518 22.3445 25.4941 22.4938 25.4628C22.715 25.4171 23.1912 24.7255 23.3606 24.5566C23.7636 24.1539 24.3057 23.5905 24.8828 24.0781C24.8044 24.7493 24.2449 24.9034 24.1099 25.5134C24.4569 25.7508 24.8249 25.5359 25.2577 25.5635C25.7614 25.5957 26.1476 25.9061 26.5696 25.8405C26.8388 25.7986 26.9736 25.583 27.1785 25.4378C27.6439 26.1691 29.4382 25.2171 29.708 26.1175ZM24.6251 24.2544C24.6152 24.1732 24.656 24.0367 24.5783 24.028C24.5108 24.0648 24.444 24.2963 24.6251 24.2544ZM12.8438 6.52973C13.0732 6.67743 13.2752 6.85487 13.4761 7.03347C13.5971 6.65064 13.25 6.40574 12.8438 6.42909C12.8438 6.46251 12.8438 6.49612 12.8438 6.52973ZM19.1444 25.0852C19.2338 25.1054 19.2984 25.1246 19.3084 25.0098C19.225 25.004 19.1682 25.0265 19.1444 25.0852ZM15.912 22.8695C15.9041 22.9881 16.1266 22.9904 16.1699 22.9702C16.1333 22.8915 16.0223 22.7894 15.912 22.8695ZM15.3498 22.3913C15.3888 22.4337 15.4874 22.4112 15.5606 22.4165C15.5685 22.3243 15.5345 22.2766 15.5138 22.215C15.3907 22.2005 15.3567 22.2811 15.3498 22.3913ZM10.8527 12.0937C10.7892 12.0358 10.7431 12.1419 10.7122 12.0937C10.7885 11.4691 10.9111 10.5075 10.6654 9.97908C10.6046 9.92207 10.5085 9.99911 10.4781 9.95377C10.6416 9.53413 10.752 8.65893 10.6888 8.14105C10.6666 7.95851 10.5784 7.63386 10.4781 7.56198C10.226 7.38159 9.99663 7.65881 9.82212 7.71306C9.71232 7.74747 9.59023 7.72289 9.47083 7.73813C8.99853 7.79932 8.49736 7.95071 8.18265 8.11574C8.3467 8.23327 8.57922 8.27695 8.65101 8.49334C8.2429 8.46232 7.92452 8.33465 7.57351 8.24169C7.61095 8.8097 6.96289 8.63171 6.56644 8.6698C6.70339 8.673 6.72534 8.74414 6.73043 8.84595C6.74672 9.18012 5.7237 9.57616 5.37189 9.3245C4.8701 9.75937 5.59269 10.2036 5.55926 10.7596C5.4606 10.8382 5.41504 10.9737 5.32502 11.0615C4.82631 11.0745 4.30177 11.1823 4.38797 11.7414C4.32058 11.6991 4.21426 11.6709 4.1303 11.716C4.00283 12.069 4.21683 12.4522 4.5052 12.5219C4.57785 12.4992 4.59477 12.4168 4.69256 12.4212C5.34394 12.5551 5.57326 13.0194 5.53582 13.9064C5.5293 14.0592 5.54342 14.2585 5.44214 14.3598C5.07249 14.3326 4.72977 13.3519 5.32496 13.3276C5.18224 13.1019 5.07415 12.7651 4.80962 12.7736C4.5064 12.7833 4.3703 13.2984 4.15379 13.4786C4.46587 13.6639 5.19881 14.1755 4.59877 14.5108C4.89582 14.5587 5.06158 14.6853 5.1843 14.8631C5.38881 15.16 5.38229 15.6048 5.53571 15.8452C5.84613 16.332 6.01001 15.4086 6.37879 15.7947C6.4659 15.8269 6.34044 15.7037 6.33198 15.6942C6.01561 15.3271 5.53308 15.0261 5.34828 14.5864C5.49032 14.5164 5.68072 14.5928 5.81664 14.6115C5.87037 14.3157 5.67917 13.981 5.74639 13.7552C5.7948 13.5934 5.88414 13.6647 5.98068 13.6043C6.03744 13.5688 5.99303 13.4366 6.09786 13.4785C6.09723 13.8242 5.90346 14.4059 6.12112 14.6618C6.43898 14.7231 6.53077 14.1355 6.8005 14.1331C6.95117 14.1317 7.09356 14.4168 7.19861 14.5611C7.32482 14.7343 7.49635 14.9471 7.45628 15.14C7.37192 15.5468 6.73643 15.2371 6.5194 15.0645C6.65166 15.6288 7.46554 15.7165 7.5031 16.4495C7.50738 16.5313 7.46897 16.6357 7.47972 16.7262C7.52573 17.113 7.86131 17.4005 8.20574 17.1545C8.25639 17.2932 8.26302 17.4792 8.39328 17.5321C8.50737 17.4284 8.46684 17.158 8.53372 17.0032C8.9424 17.0952 9.15577 17.3067 9.28318 17.6578C9.34628 17.8315 9.32999 18.1534 9.58766 18.1613C9.6271 17.7321 9.31421 17.4661 9.25986 17.0535C9.4698 17.4176 10.2271 17.8116 10.1968 18.388C10.1767 18.7682 9.75633 18.8095 9.35354 18.8663C9.73742 19.0081 9.8982 19.4702 10.3139 19.6215C10.4255 19.6624 10.569 19.6274 10.6886 19.6721C10.9927 19.7858 11.479 20.456 11.3445 20.8806C10.6965 21.2317 10.1909 20.2828 9.47066 20.3017C9.77434 20.7178 10.2711 20.8563 10.6886 21.0569C11.138 21.2726 11.588 21.4935 12.0237 21.7115C13.051 22.225 13.764 22.897 14.4363 23.7508C13.9699 24.0242 12.556 23.5695 13.4057 23.247C13.1102 23.2363 12.7973 23.037 12.539 23.1466C12.6759 24.1073 13.8518 23.9512 14.7408 24.1032C14.6599 24.268 14.5458 24.3972 14.4597 24.5564C14.5282 24.5999 14.6229 24.6157 14.7408 24.6067C14.6839 24.7049 14.5357 24.7051 14.5299 24.8584C14.6438 25.0214 14.8691 25.0646 15.0218 25.1857C15.6238 24.7217 15.6913 25.7743 16.0758 25.79C16.4392 25.8045 16.5089 25.2432 16.8724 25.1857C16.781 25.3899 16.6023 25.4997 16.5211 25.7146C16.8769 25.6221 16.9784 25.4162 17.2703 25.3367C18.3161 25.0523 19.1735 25.9887 20.0341 26.0922C20.3436 26.1293 20.6512 26.3161 20.9243 26.3692C21.2773 26.4376 21.4943 26.3127 21.7674 26.1679C21.3515 25.7504 20.3964 25.913 20.0577 25.4123C20.0708 25.3258 20.1259 25.2844 20.1749 25.2363C19.0786 25.4952 18.3883 24.789 17.9263 24.1285C16.5738 23.753 15.3872 23.1987 14.8109 21.9885C14.7832 21.8745 14.9148 21.9323 14.8814 21.8121C14.4059 21.2434 13.9306 20.666 13.5463 19.9994C13.4134 19.7692 13.3225 19.48 13.1714 19.2945C13.0757 19.1769 12.9152 19.1122 12.8201 18.9922C12.7161 18.8606 12.7019 18.6958 12.5389 18.6399C12.4763 18.7403 12.5183 18.9531 12.4688 19.0678C12.3561 18.5816 12.1051 18.1199 11.6256 18.111C11.6167 17.7574 11.8824 17.6992 12.0237 17.5068C11.8377 17.2663 11.7929 16.9636 11.6958 16.6005C11.4599 15.7183 11.2649 14.7967 11.0633 13.9819C10.7962 14.0892 10.7253 14.4075 10.595 14.6618C10.6078 14.2981 10.6237 13.9373 10.8058 13.7552C10.8891 13.7665 10.8982 13.8575 10.9463 13.9064C10.9903 13.7348 11.1413 13.5749 11.0633 13.3526C11.0028 13.2522 10.8261 13.299 10.7824 13.3022C10.898 12.9982 10.995 12.4463 10.8527 12.0937ZM20.2687 27.024C20.4712 26.931 20.6535 26.8165 20.7369 26.5958C20.5168 26.6551 20.2064 26.7445 20.2687 27.024ZM20.292 26.5204C20.1565 26.6011 20.0041 26.6642 19.9174 26.7974C20.1115 26.8099 20.339 26.6003 20.292 26.5204ZM19.566 26.898C19.6986 26.86 19.8405 26.7128 19.8237 26.5958C19.6697 26.6124 19.4315 26.7304 19.566 26.898ZM19.6597 26.3188C19.4489 26.2472 19.2768 26.4246 19.2613 26.6464C19.4491 26.5963 19.5763 26.4811 19.6597 26.3188ZM19.0037 26.3694C18.7978 26.408 18.6438 26.5022 18.582 26.6964C18.8337 26.8038 18.9625 26.5713 19.0037 26.3694ZM18.6759 27.024C18.7339 27.0276 18.7895 27.0286 18.7931 26.9735C18.7579 26.9335 18.6595 26.9366 18.6759 27.024ZM19.0507 25.9412C18.723 25.9142 18.331 26.1428 18.5354 26.4448C18.7536 26.3268 18.9747 26.212 19.0507 25.9412ZM17.4344 26.4198C17.6391 26.4507 17.6926 26.199 17.8328 26.2432C17.9141 26.2984 17.8647 26.4944 17.9966 26.4952C18.3029 26.4282 18.4132 25.9788 18.2307 25.6643C17.8178 25.7424 17.4401 25.9867 17.4344 26.4198ZM17.528 25.7651C17.4037 25.8328 17.2713 25.8916 17.2003 26.0168C17.3535 26.0097 17.5818 25.828 17.528 25.7651ZM16.8725 25.8911C16.8856 25.958 16.776 26.0191 16.8487 26.0671C16.8682 26.0355 16.9914 25.911 16.8725 25.8911ZM16.4508 26.4951C16.4435 26.5294 16.4173 26.5431 16.4276 26.5958C16.4585 26.5958 16.4899 26.5958 16.5213 26.5958C16.5276 26.5299 16.5124 26.4877 16.4508 26.4951ZM16.0995 26.3694C15.9812 26.3765 15.9364 26.4627 15.9355 26.5958C16.0375 26.5715 16.1304 26.537 16.0995 26.3694ZM13.7336 25.0852C13.5893 25.0784 13.5452 25.1024 13.7103 25.1359C13.8676 25.167 14.145 25.1834 14.2491 25.1359C14.1255 25.1343 13.806 25.0889 13.7336 25.0852ZM14.4365 24.6826C14.3139 24.5824 14.0676 24.655 13.9446 24.7076C14.0155 24.9171 14.3639 24.8241 14.4365 24.6826ZM13.6871 26.5707C14.2712 26.8998 15.0755 27.259 15.912 27.1497C15.3042 26.8298 14.4003 26.6934 13.6871 26.5707ZM12.8203 26.2938C12.8763 26.3763 13.0084 26.3768 13.1012 26.4198C13.2741 26.2401 12.8941 26.1389 12.8203 26.2938ZM10.6185 24.2544C10.4604 24.2692 10.2884 24.2687 10.2438 24.4057C10.3944 24.4657 10.6123 24.4284 10.6185 24.2544ZM10.1734 24.909C10.2285 24.9626 10.3297 25.0265 10.3608 24.909C10.3366 24.8824 10.1937 24.8571 10.1734 24.909ZM10.4545 22.7689C10.4758 22.6636 10.2893 22.6238 10.2672 22.7186C10.3185 22.7471 10.363 22.7835 10.4545 22.7689ZM10.7591 23.6248C10.758 23.5903 10.7702 23.5696 10.7825 23.5494C10.7127 23.4719 10.5716 23.4582 10.4545 23.4991C10.4733 23.6202 10.6609 23.6708 10.7591 23.6248ZM10.7826 25.2365C10.8125 25.2708 10.8931 25.2708 10.923 25.2365C10.9341 25.1573 10.8938 25.1335 10.8528 25.1103C10.8318 25.155 10.7962 25.1838 10.7826 25.2365ZM11.5087 22.341C11.4324 22.1039 11.1836 22.1664 11.0167 22.0892C10.7486 21.9651 10.5197 21.6687 10.1735 21.6613C10.1579 21.6613 10.1422 21.6613 10.1268 21.6613C10.4279 22.0427 10.8264 22.4526 11.5087 22.341ZM10.2906 21.4097C10.072 21.25 9.83247 21.1128 9.51764 21.0571C9.61773 21.3271 10.0073 21.4202 10.2906 21.4097ZM11.0167 22.5926C11.1809 22.7771 11.387 22.9166 11.7428 22.8947C11.606 22.6974 11.2792 22.5709 11.0167 22.5926ZM11.9067 23.7258C11.6656 23.5461 11.2863 23.2546 10.9699 23.3228C11.1529 23.5793 11.5208 23.7715 11.9067 23.7258ZM11.0167 24.6826C11.011 24.7184 10.9782 24.7248 10.9699 24.7577C11.0276 24.8387 11.1145 24.6995 11.0167 24.6826ZM11.5554 25.4378C11.5753 25.5339 11.6613 25.5589 11.7428 25.5889C11.7745 25.5306 11.8369 25.5053 11.8131 25.3875C11.7561 25.3507 11.5514 25.3295 11.5554 25.4378ZM12.0005 24.33C11.928 24.2823 11.6634 24.2289 11.6022 24.33C11.7158 24.3796 11.939 24.5079 12.0005 24.33ZM12.0707 23.4738C12.0942 23.2865 11.8971 23.2857 11.8131 23.3478C11.8209 23.4738 11.976 23.4417 12.0707 23.4738ZM12.3283 22.1143C12.2225 21.9426 11.9287 21.9732 11.7194 21.913C11.5661 21.706 11.1995 21.6309 10.8762 21.6864C11.2465 21.9516 11.6677 22.1616 12.3283 22.1143ZM12.2815 24.5313C12.3821 24.6246 12.5398 24.6565 12.6797 24.7076C12.6872 24.6483 12.7166 24.6131 12.7031 24.5313C12.6349 24.4468 12.339 24.4031 12.2815 24.5313ZM10.2906 20.4525C10.314 20.3351 10.2497 20.312 10.15 20.3268C10.1147 20.4572 10.2315 20.4237 10.2906 20.4525ZM10.8527 20.7548C10.7843 20.7362 10.8074 20.6192 10.7122 20.6289C10.6259 20.714 10.7814 20.8435 10.8527 20.7548ZM9.23659 20.9311C9.15886 20.7464 8.98367 20.6659 8.86186 20.5282C9.09027 20.1725 8.58064 20.0269 8.48708 19.7729C8.48599 19.6963 8.53652 19.675 8.55732 19.6216C8.36053 19.4977 8.13327 19.4063 8.01855 19.194C8.10915 19.1235 8.35064 19.2149 8.44009 19.1434C8.29822 19.0777 8.14504 19.0243 8.0888 18.8664C8.17093 18.661 8.50485 18.7264 8.58064 18.5141C8.17716 18.4183 7.77631 18.1878 7.33917 18.2118C7.34414 18.3912 7.49264 18.4162 7.54997 18.5391C7.42039 18.4773 7.31556 18.3881 7.12842 18.3881C7.11442 18.5123 7.18924 18.5409 7.17535 18.6651C7.0476 18.6763 6.98284 18.6202 6.84732 18.6401C6.94392 18.8718 7.19164 18.9412 7.26903 19.194C7.17323 19.2201 7.0432 19.1531 7.01136 19.194C7.25863 19.4148 7.61976 19.6475 7.76077 19.8987C7.5307 19.8527 7.39901 19.7004 7.17535 19.647C7.3626 20.0456 7.81855 20.1286 8.15905 20.3268C8.5076 20.5297 8.81991 20.8568 9.23659 20.9311ZM8.72125 21.2331C8.81917 21.2906 9.01408 21.4732 9.14291 21.3341C9.03431 21.2824 8.86346 21.1649 8.72125 21.2331ZM8.53395 21.1071C8.46804 20.9924 8.13178 20.9314 8.04216 21.0064C8.195 21.0537 8.33904 21.1812 8.53395 21.1071ZM8.11229 21.1828C8.10492 21.217 8.07902 21.2307 8.08891 21.2837C8.13012 21.2691 8.22649 21.3138 8.22946 21.2584C8.19311 21.2303 8.18059 21.1766 8.11229 21.1828ZM7.80781 17.8342C7.7439 17.5976 7.65857 17.3383 7.47995 17.1545C7.38375 17.0554 7.29058 17.0574 7.22228 16.9276C7.04126 16.5853 7.12802 16.1019 6.89436 15.7447C6.83909 15.7253 6.73249 15.6948 6.68356 15.7447C6.68796 15.9097 7.0444 16.3012 6.80079 16.4999C6.26213 16.5229 6.05476 16.062 5.53599 16.1473C5.41916 16.4726 5.83219 16.6397 5.72324 16.8776C6.46836 17.1347 7.06012 17.6916 7.80781 17.8342ZM6.12135 18.5894C6.25899 18.7021 6.45796 18.8823 6.63669 18.8664C6.49511 18.7586 6.36484 18.5047 6.12135 18.5894ZM5.86368 18.3631C5.80292 18.1599 5.69758 18.0046 5.46552 17.9855C5.51273 18.2031 5.73273 18.2354 5.86368 18.3631ZM5.46552 19.0177C5.59092 19.1099 5.71547 19.336 5.8403 19.345C5.74902 19.2164 5.63779 18.9755 5.46552 19.0177ZM5.62956 17.2803C5.64168 17.243 5.66408 17.2169 5.67637 17.1796C5.6163 17.0907 5.4682 17.1392 5.44219 17.2302C5.48826 17.2644 5.57594 17.2542 5.62956 17.2803ZM9.26009 18.2874C9.25677 18.0708 9.03288 17.9451 8.86186 18.061C8.91605 18.221 9.07935 18.2634 9.26009 18.2874ZM7.05818 14.9895C7.06212 14.9478 6.91396 14.9478 6.91774 14.9895C6.94986 14.9971 7.05903 15.1032 7.05818 14.9895ZM6.1449 14.8886C6.11363 14.8886 6.08237 14.8886 6.0511 14.8886C6.01892 14.9209 6.02795 14.9982 6.02767 15.0646C6.07048 15.0715 6.15902 15.1555 6.19171 15.0901C6.13375 15.0681 6.19846 14.9149 6.1449 14.8886ZM4.38802 14.8632C4.46564 15.0531 4.77984 15.039 4.83312 14.8382C4.69982 14.7828 4.50348 14.8213 4.38802 14.8632ZM4.45844 14.1583C4.36785 14.1534 4.28577 14.1575 4.22404 14.1836C4.24227 14.2935 4.45781 14.2739 4.45844 14.1583ZM4.66913 10.1049C4.54875 10.1647 4.29771 10.045 4.17734 10.1049C4.28394 10.5585 5.07404 10.3143 5.02059 9.95377C4.97521 9.64792 4.22387 9.72368 3.96654 9.75243C4.16596 9.90726 4.48296 9.93577 4.66913 10.1049ZM3.7323 10.5832C3.77637 10.6534 3.89749 10.6406 3.96654 10.6839C3.98008 10.6315 4.02467 10.6122 4.01335 10.5329C3.95191 10.498 3.73082 10.4705 3.7323 10.5832ZM4.92691 10.4826C4.91428 10.5375 4.8701 10.6455 4.95018 10.6589C5.00596 10.6166 4.9943 10.5191 4.92691 10.4826ZM5.58275 8.9719C5.57657 8.89829 5.63562 8.89473 5.62956 8.82088C5.53433 8.81087 5.46626 8.83004 5.46552 8.92152C5.5101 8.93246 5.52433 8.97577 5.58275 8.9719ZM5.55931 3.38259C5.46603 3.99699 5.98103 4.74023 6.58982 4.51548C6.61823 4.28361 6.5198 4.18807 6.51957 3.98686C6.67493 3.94637 6.76638 4.10672 6.84743 4.06237C6.6196 3.6192 6.01355 3.58252 5.55931 3.38259ZM5.30153 2.80352C5.50741 2.84733 5.83053 2.82515 5.91061 2.65244C5.75508 2.54075 5.28844 2.51082 5.30153 2.80352ZM4.73938 1.04106C4.78442 0.552061 4.22849 0.281849 3.89629 0.613132C3.68863 0.820062 3.59844 1.31981 3.91967 1.49436C3.8832 1.36559 3.77672 1.31232 3.80261 1.11675C4.04673 0.966719 4.49434 1.18993 4.73938 1.04106ZM4.57562 2.65238C4.63518 2.61583 4.72463 2.61146 4.71611 2.50136C4.64409 2.50917 4.52137 2.5926 4.57562 2.65238ZM4.0836 4.51548C4.37568 4.52292 4.59591 4.34585 4.87999 4.33934C5.12588 4.33375 5.36023 4.41239 5.65294 4.38966C5.44391 3.73022 4.42826 4.3061 4.0836 4.51548ZM3.63862 5.67369C4.19128 5.59818 4.96126 5.2073 5.69981 5.29608C5.9784 5.3295 6.22241 5.49803 6.37902 5.62337C6.29917 5.53176 6.20457 5.15581 6.37902 5.09474C6.76341 5.17344 6.77621 5.9541 7.24565 5.85002C7.4848 5.797 7.55762 5.29835 7.43308 4.99398C7.61181 5.12915 7.70389 5.35746 7.94842 5.42203C7.89263 5.17983 7.73047 5.05198 7.62055 4.86809C7.6896 4.77458 7.78003 4.7038 7.76099 4.51548C7.0907 4.44624 6.49574 4.83516 5.86374 4.96873C5.37326 5.07256 5.00825 5.17541 4.57567 5.29602C4.25044 5.38664 3.88857 5.45023 3.63862 5.67369ZM1.67112 10.8854C1.63894 10.9175 1.63031 11.0358 1.69449 11.0365C1.71376 11.0182 1.75737 10.8622 1.67112 10.8854ZM2.49077 7.88939C1.46369 8.06456 2.55844 9.23867 3.17015 8.94689C3.2476 8.81904 3.22354 8.70187 3.21696 8.51866C3.57335 8.5562 3.84148 8.36961 4.15396 8.44327C4.20437 8.56031 4.10903 8.65942 4.08366 8.77044C5.1464 8.698 5.6726 7.80043 6.824 7.66274C6.96706 7.6456 7.13014 7.67282 7.29258 7.66274C7.77745 7.63233 8.31457 7.53574 8.81505 7.43609C9.3061 7.33852 9.75508 7.14443 10.1735 7.03341C10.6986 6.89388 11.4974 6.52524 11.3916 5.77445C11.3795 5.68898 11.3243 5.61219 11.2744 5.52267C8.48313 5.23255 6.39617 6.40875 4.20083 6.88227C3.9371 6.9391 3.61644 6.90132 3.40439 7.13393C3.48109 7.3368 3.75065 7.33244 3.87274 7.48641C3.8117 7.56333 3.66074 7.54367 3.63862 7.66274C3.69029 7.87569 3.98397 7.82826 4.01335 8.06566C3.54711 8.41894 2.56947 7.96834 2.79536 7.25994C2.09089 7.42589 1.06518 7.59079 1.06215 8.44327C1.06072 8.81898 1.26907 9.16648 1.50707 9.37482C1.34583 8.58163 1.6199 7.40875 2.49077 7.88939ZM3.35752 12.5975C3.37884 12.427 3.11814 12.3076 3.02966 12.4213C3.11597 12.5047 3.25109 12.5355 3.35752 12.5975ZM2.53769 12.9248C2.70334 13.5438 2.75724 14.2834 3.19353 14.6116C3.12785 13.8849 2.88796 13.3456 2.53769 12.9248ZM3.52145 12.2702C3.59438 11.9147 3.10928 11.7755 3.07647 12.0183C3.04783 12.2298 3.35803 12.2052 3.52145 12.2702ZM3.61519 11.5903C3.50944 11.466 3.24406 11.3889 3.05309 11.4393C3.12048 11.6175 3.53511 11.8813 3.61519 11.5903ZM3.33414 10.4826C3.43994 10.4117 3.5522 10.3475 3.56826 10.1803C3.43234 10.0709 3.10693 10.0555 3.07647 10.2309C3.05343 10.3635 3.21874 10.4173 3.33414 10.4826ZM3.63862 10.9105C3.64885 10.824 3.62936 10.7695 3.61519 10.7091C3.49504 10.7059 3.43897 10.7714 3.42782 10.8854C3.48612 10.9066 3.55328 10.9183 3.63862 10.9105ZM1.99903 10.7847C1.98097 10.7202 1.9756 10.642 1.92879 10.6085C1.87054 10.6762 1.86831 10.798 1.99903 10.7847ZM2.23327 9.07272C2.12815 9.02867 1.97257 9.07567 1.92879 9.17336C1.97794 9.22104 2.0487 9.24592 2.11615 9.27394C2.13982 9.19063 2.24573 9.19523 2.23327 9.07272ZM2.49077 12.3205C2.43018 12.1759 2.42258 11.9743 2.30352 11.8926C1.9828 11.9416 2.30054 12.4369 2.49077 12.3205ZM2.93586 15.0395C3.16455 15.6338 3.40593 16.2762 3.89629 16.5501C3.52962 16.1116 3.44308 15.386 3.19353 14.8632C3.10722 14.6829 2.96953 14.5426 2.88905 14.3599C2.69968 13.9296 2.6124 13.4276 2.23327 13.2269C2.38268 13.86 2.70271 14.433 2.93586 15.0395ZM9.3772 24.481C9.23545 23.9621 8.85495 23.6994 8.32315 23.5998C8.19168 23.2628 7.81226 23.1925 7.73762 22.7942C7.7255 22.7124 7.88268 22.6836 7.83141 22.6432C7.11853 22.7883 7.09338 21.9761 6.75392 21.636C5.89729 21.6527 6.05665 20.5134 5.5828 19.9242C5.44745 19.7556 5.31325 19.7167 5.16115 19.5466C4.92708 18.7668 4.31623 18.3713 3.9666 17.6835C3.65605 17.0724 3.59072 16.383 3.07658 15.9461C3.48338 17.4265 4.35487 18.6779 5.13777 19.9242C5.76445 20.9214 6.19063 21.8711 6.89442 22.6683C7.13357 22.9388 7.40358 23.12 7.69086 23.3732C8.17951 23.8039 8.516 24.6029 9.3772 24.481ZM9.28341 22.7689C9.2582 22.6611 9.07752 22.5883 8.97892 22.6432C9.06975 22.6969 9.16955 22.7403 9.28341 22.7689ZM10.15 22.1143C9.99137 21.9156 9.65917 21.8399 9.35371 21.7116C8.97481 21.5521 8.4342 21.4012 8.15922 21.5856C8.18688 21.8327 8.36996 21.9129 8.48708 22.0639C8.81248 22.1178 8.9987 22.2885 9.30678 22.3156C9.66991 22.3478 10.009 22.3305 10.15 22.1143ZM21.3226 27.8549C20.6138 27.5074 19.5744 27.8983 18.8163 27.7036C18.6733 27.6668 18.5468 27.5611 18.4182 27.5526C18.2904 27.5442 18.1415 27.6167 18.0201 27.6282C17.3709 27.6903 16.7783 27.6213 16.1698 27.5273C15.7429 27.4614 15.2882 27.4356 14.9048 27.3259C14.5376 27.2212 14.1578 26.9795 13.7805 26.8224C13.3977 26.6632 12.9992 26.5046 12.6328 26.3441C11.91 26.0275 11.1418 25.4797 10.3842 25.2616C10.8953 25.8451 11.7751 26.0326 12.3753 26.5204C11.5272 26.2654 10.8872 25.7869 10.1267 25.4378C10.7192 26.0081 11.5461 26.3535 12.3753 26.7217C13.201 27.0886 14.0984 27.399 15.0687 27.5525C16.9961 27.8577 19.2568 28.3109 21.3226 27.8549ZM21.9316 27.7793C21.8113 27.7844 21.6615 27.7575 21.6506 27.8799C21.7526 27.974 21.924 27.9642 21.9316 27.7793ZM23.1964 24.8083C23.2296 24.9943 23.4809 24.9388 23.4543 24.7327C23.3266 24.7132 23.2712 24.7715 23.1964 24.8083ZM25.1404 26.1175C24.5108 26.1011 23.7341 25.8674 23.0791 25.8911C22.8279 25.9001 22.5225 25.9647 22.4469 26.2431C22.6401 26.3274 22.8471 26.2769 23.0791 26.2687C23.8388 26.2411 24.7671 26.608 25.1404 26.1175ZM25.773 26.0671C25.6634 26.0669 25.6311 26.1499 25.609 26.2431C25.6391 26.2778 25.7107 26.2684 25.773 26.2687C25.7618 26.1573 25.8051 26.1433 25.773 26.0671ZM27.1549 25.9665C27.0406 25.9479 26.998 26.1007 27.0378 26.1681C27.1114 26.18 27.1293 26.132 27.1784 26.1175C27.1953 26.0406 27.138 26.0434 27.1549 25.9665ZM29.0988 26.1175C28.6193 26.0626 28.0593 26.0965 27.6234 26.1681C27.8801 26.4279 28.8021 26.2621 29.0988 26.1175ZM6.56644 10.8097C6.79748 10.9477 7.01068 11.2384 7.31602 11.2126C7.23354 11.0915 7.11659 11.0073 7.0348 10.8854C7.12179 10.8781 7.1957 10.857 7.22222 10.7847C6.93734 10.5704 6.57199 10.3088 6.42589 10.0292C6.52232 10.23 6.6699 10.55 6.56644 10.8097ZM9.56457 11.0113C9.51444 10.9562 9.53702 10.8225 9.47077 10.7847C9.45585 10.8943 9.52181 11.0475 9.56457 11.0113ZM7.40964 13.2018C7.44554 13.6164 7.692 13.8043 7.71412 14.234C7.44034 13.8989 7.28749 13.4337 7.10516 13.0001C7.08727 13.5245 7.23474 13.8494 7.36283 14.2089C7.46143 14.4851 7.55385 14.8094 7.80781 14.8886C7.92641 14.8648 7.91978 14.7064 8.04221 14.687C8.17242 14.7072 8.24021 14.9269 8.32315 14.9139C8.26061 14.8383 8.24112 14.7166 8.22946 14.5866C8.2521 14.4933 8.37613 14.5092 8.41677 14.4353C8.18122 13.9166 7.84359 13.5073 7.40964 13.2018Z" fill="black"/>
</svg>
