<svg width="30" height="30" viewBox="0 0 30 30" fill="none" xmlns="http://www.w3.org/2000/svg">
<path d="M18.4324 0H30V30H0V0H11.5676C11.5653 0.053725 11.5597 0.106791 11.5597 0.161175C11.5597 2.06133 13.0999 3.60189 15 3.60189C16.9001 3.60189 18.4407 2.06133 18.4407 0.161175C18.4407 0.106791 18.4351 0.053725 18.4324 0ZM25.2676 26.7894H27.3299L24.206 16.1683H21.0709L18.4984 26.7894H20.4974L21.0181 24.4245H24.5906L25.2676 26.7894ZM14.3223 26.7894H16.296L18.8283 16.1683H16.8797L15.3286 23.4871H15.3032L13.8303 16.1683H11.9703L10.3316 23.3978H10.3062L8.94628 16.1683H6.95979L9.24852 26.7894H11.2601L12.8359 19.5599H12.8612L14.3223 26.7894ZM22.2657 18.7864H23.1012L24.0976 22.6839H21.3988L22.2657 18.7864Z" fill="#654FF0"/>
</svg>
