<svg width="29" height="29" viewBox="0 0 29 29" fill="none" xmlns="http://www.w3.org/2000/svg">
<path fill-rule="evenodd" clip-rule="evenodd" d="M11.5165 0.666748C9.31936 0.666748 7.5383 2.39128 7.5383 4.5186V7.18527H14.4236V7.92601H4.47817C2.28108 7.92601 0.5 9.65055 0.5 11.7779V17.5557C0.5 19.683 2.28108 21.4074 4.47817 21.4074H6.77326V18.1483C6.77326 16.021 8.55436 14.2963 10.7515 14.2963H18.0957C19.9548 14.2963 21.4619 12.8372 21.4619 11.0372V4.5186C21.4619 2.39128 19.6808 0.666748 17.4837 0.666748H11.5165ZM10.5985 5.40749C11.359 5.40749 11.9755 4.81053 11.9755 4.07416C11.9755 3.33778 11.359 2.74082 10.5985 2.74082C9.83787 2.74082 9.22136 3.33778 9.22136 4.07416C9.22136 4.81053 9.83787 5.40749 10.5985 5.40749Z" fill="url(#paint0_linear_275_658)"/>
<path fill-rule="evenodd" clip-rule="evenodd" d="M17.4835 28.6667C19.6806 28.6667 21.4618 26.9422 21.4618 24.8149V22.1482H14.5764V21.4076H24.5219C26.719 21.4076 28.5 19.6829 28.5 17.5556V11.7778C28.5 9.65055 26.719 7.92603 24.5219 7.92603H22.2268V11.1852C22.2268 13.3126 20.4456 15.0371 18.2486 15.0371H10.9043C9.04516 15.0371 7.53814 16.4963 7.53814 18.2963V24.8149C7.53814 26.9422 9.31926 28.6667 11.5163 28.6667H17.4835ZM18.4016 23.926C17.641 23.926 17.0245 24.5229 17.0245 25.2593C17.0245 25.9958 17.641 26.5926 18.4016 26.5926C19.1621 26.5926 19.7786 25.9958 19.7786 25.2593C19.7786 24.5229 19.1621 23.926 18.4016 23.926Z" fill="url(#paint1_linear_275_658)"/>
<defs>
<linearGradient id="paint0_linear_275_658" x1="14.5001" y1="0.666748" x2="14.5001" y2="28.6667" gradientUnits="userSpaceOnUse">
<stop stop-color="#327EBD"/>
<stop offset="1" stop-color="#1565A7"/>
</linearGradient>
<linearGradient id="paint1_linear_275_658" x1="18.0191" y1="7.92603" x2="18.0191" y2="28.6667" gradientUnits="userSpaceOnUse">
<stop stop-color="#FFDA4B"/>
<stop offset="1" stop-color="#F9C600"/>
</linearGradient>
</defs>
</svg>
