<svg width="83" height="27" viewBox="0 0 83 27" fill="none" xmlns="http://www.w3.org/2000/svg">
<path d="M10.3103 10.6296C8.41918 10.4055 8.2791 7.86989 5.8556 8.09403C4.67888 8.09403 3.58621 8.58433 3.58621 9.66299C3.58621 11.288 6.09375 11.4421 7.60668 11.8483C10.1843 12.6328 12.6778 13.1651 12.6778 15.9669C12.6778 19.5251 9.89009 20.7578 6.20582 20.7578C3.12392 20.7578 0 19.6651 0 16.8354C0 16.0509 0.756466 15.4345 1.48491 15.4345C2.40948 15.4345 2.73168 15.8268 3.05388 16.4712C3.76832 17.732 4.56681 18.4044 6.55604 18.4044C7.81681 18.4044 9.1056 17.9281 9.1056 16.8354C9.1056 15.2804 7.52263 14.9442 5.88362 14.566C2.98384 13.7535 0.490302 13.3333 0.196121 10.1113C-0.112069 4.61989 11.333 4.40976 11.9914 9.22873C11.9774 10.0973 11.1649 10.6296 10.3103 10.6296ZM23.9267 5.81062C27.9472 5.81062 30.2306 9.17269 30.2306 13.3192C30.2306 17.4798 28.0172 20.8279 23.9267 20.8279C21.6573 20.8279 20.2425 19.8613 19.2198 18.3764V23.8677C19.2198 25.5208 18.6875 26.3192 17.4828 26.3192C16.0119 26.3192 15.7457 25.3807 15.7457 23.8677V7.89791C15.7457 6.59511 16.292 5.79661 17.4828 5.79661C18.6035 5.79661 19.2198 6.67916 19.2198 7.89791V8.34618C20.3545 6.9173 21.6573 5.81062 23.9267 5.81062ZM22.9741 17.9701C25.3276 17.9701 26.3782 15.7988 26.3782 13.2632C26.3782 10.7837 25.3136 8.55631 22.9741 8.55631C20.5226 8.55631 19.3879 10.5736 19.3879 13.2632C19.3879 15.8828 20.5366 17.9701 22.9741 17.9701ZM32.9623 9.73303C32.9623 6.84726 36.2823 5.81062 39.5043 5.81062C44.0291 5.81062 45.8922 7.12743 45.8922 11.4981V15.7007C45.8922 16.6953 46.5086 18.6845 46.5086 19.2869C46.5086 20.1975 45.6681 20.7718 44.7716 20.7718C43.7769 20.7718 43.0345 19.5951 42.5022 18.7546C41.0313 19.9313 39.4763 20.7718 37.0948 20.7718C34.4612 20.7718 32.3879 19.2169 32.3879 16.6533C32.3879 14.3839 34.0129 13.0811 35.9741 12.6328C35.9741 12.6468 42.278 11.1479 42.278 11.1339C42.278 9.20071 41.5916 8.34618 39.5603 8.34618C37.7672 8.34618 36.8567 8.83648 36.1563 9.91515C35.5959 10.7276 35.666 11.2179 34.5873 11.2179C33.7188 11.2039 32.9623 10.6156 32.9623 9.73303ZM38.3416 18.4044C41.1013 18.4044 42.264 16.9475 42.264 14.0477V13.4313C41.5216 13.6835 38.5237 14.4259 37.7112 14.552C36.8427 14.7201 35.9741 15.3645 35.9741 16.3871C36.0022 17.5078 37.1509 18.4044 38.3416 18.4044ZM58.6121 0.333252C62.5065 0.333252 66.7231 2.65868 66.7231 6.35696C66.7231 7.30955 66.0086 8.09403 65.07 8.09403C63.7953 8.09403 63.6132 7.4076 63.0528 6.44101C62.1142 4.71795 61.0075 3.56924 58.5981 3.56924C54.8718 3.54122 53.2047 6.73519 53.2047 10.7136C53.2047 14.7201 54.5916 17.6059 58.444 17.6059C61.0075 17.6059 62.4224 16.121 63.1509 14.2018C63.445 13.3192 63.9774 12.4647 65.0841 12.4647C65.9526 12.4647 66.8211 13.3473 66.8211 14.2998C66.8211 18.2223 62.8147 20.9399 58.6961 20.9399C54.1853 20.9399 51.6358 19.0348 50.2349 15.8688C49.5485 14.3559 49.1142 12.7869 49.1142 10.6296C49.0862 4.54985 52.6304 0.333252 58.6121 0.333252ZM80.8858 5.81062C81.8804 5.81062 82.4548 6.45502 82.4548 7.46364C82.4548 7.86989 82.1326 8.68239 82.0065 9.11666L77.2155 21.7104C76.1509 24.4421 75.3524 26.3333 71.7241 26.3333C70.0011 26.3333 68.5022 26.1792 68.5022 24.6802C68.5022 23.8117 69.1606 23.3774 70.0711 23.3774C70.2392 23.3774 70.5194 23.4615 70.6875 23.4615C70.9537 23.4615 71.1358 23.5455 71.3039 23.5455C73.125 23.5455 73.3772 21.6824 74.0216 20.3936L69.3987 8.94855C69.1325 8.33218 68.9504 7.91192 68.9504 7.54769C68.9504 6.53907 69.7349 5.81062 70.7856 5.81062C71.9623 5.81062 72.4246 6.73519 72.7188 7.74381L75.7726 16.8214L78.8265 8.43023C79.2888 7.12743 79.3308 5.81062 80.8858 5.81062Z" fill="#09A3D5"/>
</svg>
