<svg width="27" height="31" viewBox="0 0 27 31" fill="none" xmlns="http://www.w3.org/2000/svg">
<path fill-rule="evenodd" clip-rule="evenodd" d="M24.3014 0.666748H2.70191C1.21132 0.666748 0 1.87483 0 3.36886V27.9671C0 29.4587 1.21132 30.6667 2.70191 30.6667H24.3014C25.7924 30.6667 27 29.4587 27 27.9671V3.36886C27 1.87483 25.7924 0.666748 24.3014 0.666748ZM25.4999 27.9671C25.4999 28.6295 24.9633 29.1657 24.3014 29.1657H2.70191C2.04044 29.1657 1.50014 28.6295 1.50014 27.9671V3.36886C1.50014 2.70402 2.04044 2.167 2.70191 2.167H24.3014C24.9633 2.167 25.4999 2.70402 25.4999 3.36886V27.9671ZM6.74996 26.1684L10.127 23.1671L6.74996 20.1666V26.1684ZM18.9458 14.0071C18.3387 13.3966 17.2303 12.6675 15.3766 12.6675C13.3428 12.6675 11.248 13.1974 9.75073 13.6826V5.16828H6.75004V18.1775L8.87057 17.2168C8.90584 17.201 12.3244 15.6684 15.3766 15.6684C16.8991 15.6684 17.2365 16.5067 17.2527 17.2072V26.1684H20.25V17.1686C20.2534 16.9761 20.2343 15.3115 18.9458 14.0071ZM15.0005 10.0422H18.0012C19.3569 8.50631 20.0479 6.87118 20.2504 5.16799H17.2526C16.9185 6.86786 16.1795 8.49344 15.0005 10.0422Z" fill="#6762A6"/>
</svg>
