<svg width="29" height="29" viewBox="0 0 29 29" fill="none" xmlns="http://www.w3.org/2000/svg">
<path d="M24.3 0.666504H4.7C2.3804 0.666504 0.5 2.54691 0.5 4.8665V24.4665C0.5 26.7861 2.3804 28.6665 4.7 28.6665H24.3C26.6196 28.6665 28.5 26.7861 28.5 24.4665V4.8665C28.5 2.54691 26.6196 0.666504 24.3 0.666504Z" fill="#3178C6"/>
<path d="M13.2422 16.1978H16.7422V13.9556H6.95312V16.1978H10.4531V26.2056H13.2422V16.1978ZM17.8359 25.6587C18.2789 25.8884 18.8203 26.0579 19.4219 26.1728C20.0234 26.2876 20.6797 26.3423 21.3359 26.3423C21.9922 26.3423 22.5938 26.2821 23.1953 26.1563C23.7969 26.0306 24.2891 25.8228 24.7266 25.5548C25.1695 25.2649 25.5469 24.8985 25.7656 24.4063C25.9844 23.9142 26.1539 23.3673 26.1539 22.6563C26.1539 22.1587 26.0773 21.7267 25.9297 21.3438C25.782 20.961 25.5688 20.6329 25.2734 20.3595C24.9945 20.0696 24.6719 19.8126 24.2891 19.5938C23.9063 19.3751 23.4688 19.1454 22.9766 18.9376C22.6156 18.7899 22.3203 18.6478 21.9922 18.5056C21.7078 18.3634 21.4617 18.2212 21.2813 18.079C21.0789 17.9313 20.9258 17.7782 20.8164 17.6196C20.707 17.4556 20.6523 17.2751 20.6523 17.0728C20.6523 16.8868 20.701 16.7173 20.8 16.5642C20.899 16.411 21.0352 16.2853 21.2102 16.1759C21.3852 16.0665 21.6039 15.9845 21.8664 15.9243C22.1234 15.8642 22.4078 15.8368 22.7414 15.8368C22.9711 15.8368 23.2117 15.8538 23.4523 15.8882C23.7039 15.9227 23.9609 15.9757 24.218 16.0468C24.475 16.1179 24.7266 16.2054 24.9836 16.3148C25.2242 16.4242 25.4484 16.5499 25.6398 16.6921V14.1218C25.2242 13.9632 24.7648 13.8429 24.2727 13.7663C23.7805 13.6898 23.2336 13.6515 22.5773 13.6515C21.9211 13.6515 21.3195 13.7226 20.718 13.8593C20.1164 13.996 19.6242 14.2148 19.1867 14.5156C18.7438 14.8109 18.4211 15.1718 18.1477 15.664C17.8906 16.1234 17.7648 16.6484 17.7648 17.3046C17.7648 18.1249 18 18.8359 18.4758 19.3828C18.9461 19.9843 19.6789 20.4218 20.6086 20.8593C20.9859 21.0124 21.3195 21.1656 21.6477 21.3132C21.9758 21.4609 22.2492 21.614 22.468 21.7726C22.7031 21.9312 22.8891 22.1062 23.0148 22.2921C23.1516 22.4781 23.2227 22.6968 23.2227 22.9484C23.2227 23.1234 23.18 23.2874 23.0969 23.4406C23.0138 23.5937 22.8836 23.7249 22.7086 23.8343C22.5336 23.9437 22.3203 24.0312 22.0523 24.0968C21.7953 24.157 21.5055 24.1898 21.1227 24.1898C20.5211 24.1898 19.9195 24.0859 19.3727 23.8781C18.7711 23.6703 18.2242 23.3585 17.8359 23.0337V25.6587Z" fill="white"/>
</svg>
