<svg width="32" height="37" viewBox="0 0 32 37" fill="none" xmlns="http://www.w3.org/2000/svg">
<path d="M22.3584 13.8313C22.3577 14.2847 22.2676 14.7335 22.0933 15.152C21.919 15.5705 21.6639 15.9506 21.3426 16.2705C21.0213 16.5903 20.6401 16.8437 20.2207 17.0161C19.8014 17.1885 19.3522 17.2765 18.8988 17.2751C18.4454 17.2765 17.9962 17.1885 17.5769 17.0161C17.1575 16.8437 16.7763 16.5903 16.455 16.2705C16.1337 15.9506 15.8786 15.5705 15.7043 15.152C15.53 14.7335 15.4399 14.2847 15.4392 13.8313C15.4402 13.3781 15.5306 12.9296 15.705 12.5114C15.8795 12.0931 16.1346 11.7134 16.4559 11.3938C16.7772 11.0742 17.1583 10.8211 17.5775 10.6489C17.9966 10.4767 18.4456 10.3887 18.8988 10.3901C19.352 10.3887 19.801 10.4767 20.2201 10.6489C20.6393 10.8211 21.0204 11.0742 21.3417 11.3938C21.663 11.7134 21.9181 12.0931 22.0926 12.5114C22.267 12.9296 22.3574 13.3781 22.3584 13.8313Z" fill="#FFC131"/>
<path d="M16.5608 23.5045C16.5598 23.9576 16.4694 24.4062 16.295 24.8244C16.1205 25.2426 15.8654 25.6224 15.5441 25.942C15.2228 26.2615 14.8417 26.5147 14.4225 26.6869C14.0034 26.8591 13.5544 26.947 13.1012 26.9457C12.6478 26.9474 12.1985 26.8597 11.7791 26.6876C11.3596 26.5156 10.9782 26.2625 10.6566 25.9429C10.3351 25.6233 10.0797 25.2434 9.90503 24.825C9.73041 24.4066 9.64 23.9579 9.63897 23.5045C9.63966 23.0509 9.72981 22.6019 9.90428 22.1831C10.0787 21.7644 10.3341 21.3842 10.6557 21.0644C10.9773 20.7445 11.3588 20.4912 11.7785 20.3189C12.1981 20.1467 12.6476 20.0589 13.1012 20.0607C13.5546 20.0593 14.0038 20.1473 14.4231 20.3197C14.8425 20.4921 15.2237 20.7454 15.545 21.0653C15.8663 21.3851 16.1214 21.7652 16.2957 22.1838C16.47 22.6023 16.5601 23.0511 16.5608 23.5045Z" fill="#24C8DB"/>
<path d="M10.4631 10.7324C4.49169 11.9488 0 17.204 0 23.5018C0 30.7028 5.86605 36.5372 13.1012 36.5372C15.8894 36.5409 18.606 35.6548 20.8557 34.0079C23.1055 32.3609 24.771 30.039 25.61 27.3801C24.0363 28.1517 22.3414 28.646 20.5996 28.8413C19.7443 30.0304 18.618 30.9985 17.314 31.6656C16.0101 32.3327 14.5659 32.6796 13.1012 32.6774C11.8935 32.6805 10.697 32.4457 9.57999 31.9865C8.46301 31.5272 7.44743 30.8523 6.59124 30.0006C5.73505 29.1488 5.05502 28.1367 4.58997 27.0221C4.12493 25.9075 3.88397 24.7122 3.88086 23.5045C3.88338 21.6212 4.46499 19.7843 5.54683 18.2428C6.62867 16.7013 8.15839 15.5298 9.92858 14.8871C9.78353 13.4795 9.96647 12.0574 10.4631 10.7324Z" fill="#24C8DB"/>
<path fill-rule="evenodd" clip-rule="evenodd" d="M21.5369 26.6034C27.5057 25.3896 32 20.1318 32 13.8339C32 6.63037 26.1339 0.795909 18.8988 0.795909C16.1103 0.792404 13.3935 1.67889 11.1436 3.32634C8.89384 4.9738 7.2285 7.29625 6.39 9.95569C7.96364 9.18406 9.65863 8.68973 11.4004 8.49444C12.2558 7.30556 13.3822 6.33752 14.6861 5.67043C15.9901 5.00335 17.4341 4.65642 18.8988 4.65834C20.1065 4.65522 21.303 4.89002 22.42 5.34932C23.537 5.80862 24.5526 6.48342 25.4088 7.33521C26.2649 8.187 26.945 9.19908 27.41 10.3137C27.8751 11.4283 28.116 12.6236 28.1191 13.8313C28.1166 15.7145 27.535 17.5515 26.4532 19.093C25.3713 20.6345 23.8416 21.806 22.0714 22.4487C22.2165 23.8563 22.0335 25.2783 21.5369 26.6034Z" fill="#FFC131"/>
</svg>
