<svg width="31" height="31" viewBox="0 0 31 31" fill="none" xmlns="http://www.w3.org/2000/svg">
<path d="M14.5176 0.674822C14.4531 0.680687 14.2478 0.701215 14.063 0.715878C9.80205 1.10004 5.81085 3.39916 3.28299 6.93288C1.87536 8.8977 0.975074 11.1264 0.634898 13.4871C0.514663 14.3112 0.5 14.5546 0.5 15.6719C0.5 16.7892 0.514663 17.0326 0.634898 17.8566C1.45015 23.4901 5.45895 28.2232 10.8959 29.9769C11.8695 30.2906 12.8959 30.5047 14.063 30.6337C14.5176 30.6836 16.4824 30.6836 16.937 30.6337C18.9516 30.4109 20.6584 29.9124 22.3416 29.0531C22.5998 28.9211 22.6495 28.886 22.6144 28.8566C22.5909 28.839 21.4912 27.364 20.1715 25.581L17.7728 22.3405L14.7669 17.8919C13.1129 15.4461 11.7522 13.4461 11.7405 13.4461C11.7287 13.4431 11.717 15.4197 11.7111 17.8331C11.7024 22.059 11.6994 22.2291 11.6466 22.3287C11.5704 22.4725 11.5117 22.5311 11.3886 22.5956C11.2947 22.6426 11.2126 22.6514 10.7698 22.6514H10.2625L10.1276 22.5664C10.0396 22.5106 9.97507 22.4372 9.93109 22.3522L9.8695 22.2202L9.87536 16.3405L9.88416 10.4578L9.97507 10.3434C10.022 10.2819 10.1217 10.2027 10.1921 10.1646C10.3123 10.1059 10.3592 10.1 10.8666 10.1C11.4648 10.1 11.5645 10.1235 11.7199 10.2936C11.7639 10.3405 13.3915 12.7921 15.3388 15.7452C17.2859 18.6982 19.9486 22.7305 21.2566 24.71L23.632 28.3082L23.7523 28.2291C24.8168 27.537 25.9429 26.5516 26.8342 25.5252C28.7316 23.3464 29.9545 20.6895 30.3651 17.8566C30.4854 17.0326 30.5 16.7892 30.5 15.6719C30.5 14.5546 30.4854 14.3112 30.3651 13.4871C29.5499 7.85371 25.541 3.12057 20.1041 1.3669C19.1451 1.05605 18.1246 0.841978 16.981 0.712946C16.6994 0.68362 14.761 0.651362 14.5176 0.674822ZM20.6584 9.74813C20.7991 9.81852 20.9135 9.95341 20.9545 10.0942C20.978 10.1704 20.9839 11.8009 20.978 15.4754L20.9692 20.7481L20.0396 19.3229L19.107 17.8977V14.0649C19.107 11.5868 19.1187 10.1939 19.1364 10.1264C19.1833 9.96221 19.2859 9.83319 19.4266 9.75694C19.5469 9.69535 19.5909 9.68948 20.0514 9.68948C20.4854 9.68948 20.5616 9.69535 20.6584 9.74813Z" fill="black"/>
</svg>
