<svg width="40" height="40" viewBox="0 0 40 40" fill="none" xmlns="http://www.w3.org/2000/svg">
<path d="M19.9219 0.3125C19.9477 0.3125 19.9734 0.3125 20 0.3125C20 5.41719 20 10.5219 20 15.7812C24.2023 15.7812 28.4047 15.7812 32.7344 15.7812C32.5588 16.3959 32.5588 16.3959 32.4112 16.6507C32.3793 16.7067 32.3473 16.7628 32.3145 16.8205C32.2806 16.8788 32.2468 16.937 32.2119 16.9971C31.9711 17.4204 31.7374 17.8436 31.5234 18.2812C31.3166 18.7026 31.0944 19.1124 30.8643 19.5215C30.6246 19.9482 30.3921 20.3764 30.1758 20.8154C29.5411 22.103 28.8771 23.3762 28.1792 24.6306C27.9343 25.0723 27.7072 25.5195 27.4847 25.9729C27.3176 26.3014 27.1387 26.6222 26.958 26.9434C26.6852 27.4289 26.4263 27.9185 26.1803 28.4181C25.6318 29.5294 25.0408 30.62 24.46 31.7147C23.9349 32.7046 23.4122 33.6957 22.8906 34.6875C22.4854 35.4582 22.0798 36.2286 21.6719 36.9979C21.4814 37.3574 21.2919 37.7175 21.1028 38.0777C20.9727 38.3252 20.8424 38.5725 20.7119 38.8197C20.657 38.9237 20.6022 39.0278 20.5476 39.1319C20.4827 39.2555 20.4172 39.3787 20.3516 39.502C20.3169 39.5674 20.2823 39.6329 20.2466 39.7003C20.1562 39.8438 20.1562 39.8438 20 39.9219C20 34.7398 20 29.5578 20 24.2188C13.7352 24.2574 13.7352 24.2574 7.34375 24.2969C7.47374 23.9719 7.61636 23.6616 7.77344 23.3496C7.8145 23.2678 7.8145 23.2678 7.85639 23.1843C8.09506 22.7111 8.34096 22.2419 8.58889 21.7735C8.7781 21.4159 8.96582 21.0576 9.15161 20.6982C9.58702 19.8561 10.0282 19.0187 10.4885 18.1899C10.7358 17.7432 10.9676 17.2917 11.1929 16.8335C11.4319 16.3545 11.6859 15.8834 11.9375 15.4109C12.0982 15.1084 12.2576 14.8051 12.417 14.502C12.4494 14.4404 12.4818 14.3788 12.5152 14.3154C12.6814 13.9994 12.8475 13.6834 13.0136 13.3673C13.08 13.241 13.1465 13.1146 13.2129 12.9883C13.245 12.9272 13.2771 12.866 13.3102 12.8031C13.4653 12.5082 13.6213 12.2137 13.779 11.9202C13.8079 11.8663 13.8369 11.8124 13.8667 11.7568C13.9208 11.6563 13.975 11.5558 14.0294 11.4555C14.1357 11.258 14.2257 11.0728 14.2969 10.8594C14.3484 10.8594 14.4 10.8594 14.4531 10.8594C14.4587 10.8083 14.4642 10.7573 14.4699 10.7047C14.5552 10.3766 14.7184 10.1112 14.8877 9.81934C15.1491 9.35935 15.4014 8.8977 15.6348 8.42285C15.8793 7.9264 16.1349 7.43724 16.3968 6.94977C16.5793 6.6101 16.759 6.26901 16.9385 5.92773C16.9874 5.83471 16.9874 5.83471 17.0373 5.7398C17.2831 5.27209 17.5283 4.80403 17.7734 4.33594C17.8818 4.12912 17.9901 3.9223 18.0985 3.71548C18.1664 3.58583 18.2342 3.45616 18.302 3.32645C18.8303 2.31535 19.373 1.31258 19.9219 0.3125Z" fill="#99A7F1"/>
<path d="M20.0781 15.8594C24.2547 15.8594 28.4312 15.8594 32.7344 15.8594C32.5391 16.3475 32.3847 16.7327 32.124 17.168C31.9129 17.5267 31.7164 17.8876 31.5332 18.2617C31.3231 18.6896 31.0981 19.1061 30.8643 19.5215C30.6246 19.9482 30.3921 20.3764 30.1758 20.8154C29.5411 22.103 28.8771 23.3762 28.1792 24.6306C27.9343 25.0723 27.7072 25.5195 27.4847 25.9729C27.3176 26.3014 27.1387 26.6222 26.958 26.9434C26.6852 27.4289 26.4263 27.9185 26.1803 28.4181C25.6318 29.5294 25.0408 30.62 24.46 31.7147C23.9349 32.7046 23.4122 33.6957 22.8906 34.6875C22.5138 35.4041 22.1369 36.1206 21.7578 36.8359C20.9801 38.2925 20.9801 38.2925 20.2344 39.7656C20.1828 39.7656 20.1313 39.7656 20.0781 39.7656C20.0781 31.8766 20.0781 23.9875 20.0781 15.8594Z" fill="#707EE7"/>
<path d="M19.9219 0.3125C19.9477 0.3125 19.9734 0.3125 20 0.3125C20 5.41719 20 10.5219 20 15.7812C24.2023 15.7812 28.4047 15.7812 32.7344 15.7812C32.7344 15.807 32.7344 15.8328 32.7344 15.8594C28.5578 15.8594 24.3813 15.8594 20.0781 15.8594C20.1039 23.7742 20.1297 31.6891 20.1562 39.8438C20.1047 39.8695 20.0531 39.8953 20 39.9219C20 34.7398 20 29.5578 20 24.2188C19.9484 24.2188 19.8969 24.2188 19.8438 24.2188C19.8438 16.4844 19.8438 8.75 19.8438 0.78125C19.7922 0.755469 19.7406 0.729688 19.6875 0.703125C19.7632 0.571487 19.8414 0.441267 19.9219 0.3125Z" fill="#A6B2F8"/>
<path d="M20.0781 15.8594C20.1555 15.8852 20.2328 15.9109 20.3125 15.9375C20.3143 18.9505 20.3157 21.9635 20.3165 24.9765C20.3166 25.3319 20.3167 25.6873 20.3168 26.0426C20.3168 26.1134 20.3168 26.1841 20.3169 26.257C20.3172 27.404 20.3178 28.5509 20.3185 29.6979C20.3193 30.874 20.3197 32.0501 20.3199 33.2262C20.32 33.9524 20.3203 34.6786 20.3209 35.4049C20.3213 35.9023 20.3215 36.3997 20.3214 36.8971C20.3213 37.1844 20.3214 37.4718 20.3218 37.7591C20.3223 38.0701 20.3221 38.381 20.3219 38.6919C20.3222 38.8294 20.3222 38.8294 20.3226 38.9696C20.3224 39.0524 20.3223 39.1352 20.3221 39.2205C20.3221 39.2923 20.3222 39.3642 20.3222 39.4382C20.3125 39.6094 20.3125 39.6094 20.2344 39.7656C20.1828 39.7656 20.1313 39.7656 20.0781 39.7656C20.0781 31.8766 20.0781 23.9875 20.0781 15.8594Z" fill="#7785EF"/>
<path d="M20.0781 24.2969C20.1039 24.2969 20.1297 24.2969 20.1562 24.2969C20.1562 29.2984 20.1562 34.3 20.1562 39.4531C20.2078 39.4531 20.2594 39.4531 20.3125 39.4531C20.2738 39.6078 20.2738 39.6078 20.2344 39.7656C20.1828 39.7656 20.1313 39.7656 20.0781 39.7656C20.0781 34.6609 20.0781 29.5562 20.0781 24.2969Z" fill="#8793F1"/>
<path d="M21.9532 35.9375C22.0048 35.9633 22.0564 35.9891 22.1095 36.0156C22.0243 36.3106 21.9604 36.5211 21.7189 36.7188C21.7032 36.4284 21.707 36.3459 21.8751 36.0938C21.9009 36.0422 21.9267 35.9906 21.9532 35.9375Z" fill="#828FF1"/>
<path d="M31.0938 18.5938C31.1711 18.6195 31.2484 18.6453 31.3281 18.6719C31.225 18.8781 31.1219 19.0844 31.0156 19.2969C30.9641 19.1937 30.9125 19.0906 30.8594 18.9844C30.9109 18.907 30.9625 18.8297 31.0156 18.75C31.0414 18.6984 31.0672 18.6469 31.0938 18.5938Z" fill="#8491F1"/>
</svg>
