<svg width="33" height="34" viewBox="0 0 33 34" fill="none" xmlns="http://www.w3.org/2000/svg">
<path d="M32.4153 20.4334C32.223 19.851 31.7192 19.4453 31.0676 19.3478C30.7604 19.302 30.4085 19.3215 29.9921 19.4074C29.2665 19.5571 28.728 19.6141 28.3351 19.6252C29.8182 17.1211 31.0242 14.2654 31.7185 11.5773C32.8411 7.23086 32.2412 5.25076 31.5402 4.35505C29.6849 1.98447 26.9781 0.710879 23.7124 0.671838C21.9705 0.650577 20.4411 0.994533 19.6434 1.24181C18.9006 1.11084 18.1018 1.03765 17.2638 1.02409C15.693 0.999052 14.3051 1.34145 13.1191 2.04522C12.4624 1.82327 11.4087 1.51028 10.1918 1.31049C7.32964 0.840594 5.02292 1.20677 3.33566 2.39873C1.29252 3.84197 0.345323 6.34945 0.520524 9.85161C0.576084 10.9636 1.19814 14.3466 2.17748 17.5551C2.74035 19.3992 3.34055 20.9306 3.96142 22.1072C4.84187 23.7756 5.78395 24.7581 6.8416 25.1109C7.43446 25.3084 8.51152 25.4467 9.64443 24.5033C9.788 24.6771 9.9795 24.85 10.2338 25.0104C10.5567 25.2141 10.9515 25.3804 11.3458 25.479C12.7669 25.8343 14.0979 25.7454 15.2335 25.2475C15.2405 25.4495 15.2459 25.6425 15.2505 25.8091C15.258 26.0794 15.2654 26.3444 15.2754 26.5922C15.3426 28.268 15.4566 29.571 15.7945 30.4827C15.813 30.5329 15.8379 30.6093 15.8643 30.6902C16.0328 31.2063 16.3146 32.0701 17.0315 32.7466C17.774 33.4474 18.672 33.6624 19.4945 33.6623C19.907 33.6623 20.3006 33.6082 20.6457 33.5342C21.8762 33.2705 23.2737 32.8687 24.2846 31.4293C25.2403 30.0686 25.705 28.019 25.789 24.7896C25.7999 24.6983 25.81 24.6111 25.8197 24.528C25.8262 24.4719 25.8329 24.4146 25.8396 24.3574L26.0648 24.3772L26.1228 24.3811C27.3761 24.4382 28.9086 24.1724 29.8497 23.7353C30.5934 23.3901 32.9764 22.1321 32.4153 20.4334Z" fill="black"/>
<path d="M30.2724 20.7638C26.546 21.5325 26.2898 20.2708 26.2898 20.2708C30.2243 14.4327 31.869 7.02202 30.4497 5.20831C26.5775 0.260839 19.8745 2.60067 19.7627 2.66142L19.7267 2.66787C18.9904 2.51504 18.1665 2.42399 17.2405 2.40888C15.5544 2.38125 14.2754 2.85092 13.3048 3.58691C13.3048 3.58691 1.34741 -1.33908 1.90353 9.78227C2.02184 12.1483 5.29465 27.6844 9.19832 22.9917C10.6251 21.2758 12.0037 19.8249 12.0037 19.8249C12.6884 20.2798 13.5081 20.5118 14.3674 20.4285L14.4342 20.3718C14.4134 20.5848 14.4229 20.7932 14.4609 21.0399C13.4553 22.1635 13.7508 22.3608 11.7405 22.7746C9.70629 23.1938 10.9013 23.9402 11.6815 24.1352C12.6274 24.3718 14.8156 24.7068 16.2942 22.637L16.2352 22.8732C16.6293 23.1888 16.906 24.926 16.8596 26.5008C16.8132 28.0757 16.7822 29.1569 17.0927 30.0014C17.4032 30.846 17.7126 32.7461 20.3554 32.1799C22.5636 31.7066 23.708 30.4803 23.8672 28.4347C23.9801 26.9804 24.2358 27.1954 24.2519 25.8952L24.457 25.2797C24.6935 23.3083 24.4946 22.6724 25.855 22.9682L26.1857 22.9972C27.187 23.0428 28.4976 22.8361 29.2667 22.4786C30.923 21.71 31.9053 20.4266 30.2722 20.7638H30.2724Z" fill="#336791"/>
<path d="M14.0047 10.8404C13.669 10.7936 13.3648 10.8369 13.211 10.9533C13.1244 11.0189 13.0976 11.0948 13.0904 11.1471C13.0711 11.2856 13.1681 11.4386 13.2277 11.5176C13.3963 11.7411 13.6427 11.8947 13.8866 11.9286C13.9219 11.9335 13.957 11.9359 13.992 11.9359C14.3987 11.9359 14.7684 11.6192 14.801 11.3855C14.8417 11.0928 14.4168 10.8977 14.0047 10.8404Z" fill="white"/>
<path d="M25.1294 10.8496C25.0974 10.6202 24.689 10.5548 24.3016 10.6086C23.9147 10.6626 23.5395 10.8372 23.5708 11.0671C23.596 11.246 23.9188 11.5512 24.3011 11.5512C24.3333 11.5512 24.3659 11.549 24.3987 11.5444C24.6538 11.5091 24.841 11.3471 24.9299 11.2537C25.0654 11.1114 25.1437 10.9527 25.1294 10.8496Z" fill="white"/>
<path d="M31.5124 20.6765C31.3703 20.2468 30.913 20.1085 30.1532 20.2655C27.8971 20.7311 27.0892 20.4085 26.8239 20.2132C28.5775 17.5417 30.0201 14.3126 30.7983 11.2997C31.167 9.8725 31.3706 8.54712 31.3872 7.46688C31.4056 6.281 31.2037 5.40974 30.7872 4.87747C29.1078 2.73165 26.6433 1.58066 23.6598 1.54903C21.6088 1.52599 19.8759 2.05092 19.54 2.19849C18.8325 2.02255 18.0612 1.91454 17.2217 1.90076C15.6819 1.87587 14.3511 2.24449 13.2491 2.99582C12.7705 2.81773 11.5335 2.3931 10.0208 2.14945C7.4055 1.7283 5.32731 2.04737 3.84422 3.09805C2.07459 4.35179 1.25763 6.59288 1.41594 9.75893C1.4692 10.8242 2.07607 14.101 3.03393 17.2392C4.29471 21.3696 5.66512 23.7079 7.10718 24.1888C7.27593 24.2451 7.47061 24.2845 7.68515 24.2845C8.2112 24.2845 8.85607 24.0474 9.52709 23.2407C10.6416 21.8998 11.6822 20.7763 12.0658 20.368C12.6327 20.6723 13.2553 20.8422 13.8924 20.8592C13.8935 20.8759 13.8952 20.8926 13.8967 20.9092C13.7689 21.0607 13.664 21.1936 13.5747 21.307C13.1334 21.8672 13.0415 21.9838 11.621 22.2763C11.2169 22.3597 10.1436 22.5809 10.128 23.3332C10.1108 24.1551 11.3965 24.5003 11.543 24.5369C12.0535 24.6647 12.5453 24.7277 13.0143 24.7277C14.155 24.7276 15.1587 24.3528 15.9609 23.6275C15.9362 26.5577 16.0584 29.4452 16.4102 30.325C16.6983 31.0451 17.4023 32.8052 19.626 32.8051C19.9522 32.8051 20.3114 32.7672 20.7064 32.6825C23.0271 32.1849 24.0348 31.1593 24.4247 28.898C24.6333 27.6895 24.9913 24.8037 25.1596 23.2557C25.515 23.3666 25.9725 23.4173 26.4671 23.4172C27.4986 23.4172 28.6888 23.1981 29.4352 22.8516C30.2736 22.4623 31.7868 21.5066 31.5124 20.6765ZM25.9859 10.2163C25.9782 10.6733 25.9153 11.0882 25.8487 11.5212C25.777 11.987 25.7027 12.4685 25.6841 13.0531C25.6656 13.6219 25.7367 14.2134 25.8054 14.7853C25.9442 15.9405 26.0867 17.1299 25.5352 18.3035C25.4494 18.1512 25.3667 17.9851 25.2908 17.8012C25.2223 17.635 25.0735 17.3681 24.8675 16.9987C24.0656 15.5608 22.188 12.1935 23.1492 10.8195C23.4354 10.4104 24.162 9.98999 25.9859 10.2163ZM23.7752 2.47444C26.4483 2.53348 28.5628 3.5335 30.0599 5.44655C31.2082 6.91394 29.9438 13.5908 26.2834 19.351C26.2472 19.305 26.2104 19.2586 26.1723 19.2111C26.1571 19.1921 26.1417 19.1727 26.126 19.1532C27.0719 17.591 26.8869 16.0455 26.7223 14.6751C26.6547 14.1128 26.5908 13.5816 26.607 13.0828C26.6238 12.5538 26.6938 12.1004 26.7613 11.6618C26.8445 11.1213 26.9291 10.5622 26.9057 9.90294C26.9231 9.83383 26.9302 9.75212 26.9211 9.65514C26.8615 9.02294 26.1398 7.13115 24.6687 5.41862C23.8641 4.4821 22.6906 3.43393 21.0884 2.72698C21.7776 2.58415 22.72 2.45096 23.7752 2.47444ZM8.81703 22.6503C8.07778 23.5391 7.56721 23.3688 7.39935 23.3129C6.3054 22.9479 5.03618 20.636 3.91712 16.9696C2.94881 13.7973 2.38291 10.6073 2.33816 9.71278C2.19674 6.88379 2.88251 4.91214 4.37649 3.85264C6.80782 2.12841 10.8052 3.16043 12.4114 3.68388C12.3883 3.70662 12.3643 3.72796 12.3414 3.75107C9.7057 6.41301 9.76822 10.961 9.77467 11.2389C9.77444 11.3462 9.78341 11.498 9.79578 11.707C9.84112 12.4718 9.9255 13.8955 9.70007 15.5078C9.49049 17.006 9.95231 18.4724 10.9669 19.531C11.072 19.6406 11.1816 19.7435 11.2949 19.8403C10.8432 20.324 9.86171 21.3935 8.81703 22.6503ZM11.6336 18.8921C10.8159 18.0389 10.4445 16.8521 10.6146 15.6357C10.8527 13.9325 10.7648 12.4492 10.7176 11.6523C10.711 11.5408 10.7051 11.4431 10.7016 11.366C11.0867 11.0246 12.8711 10.0684 14.1436 10.36C14.7244 10.4931 15.0781 10.8884 15.2252 11.5686C15.9866 15.0899 15.326 16.5576 14.7953 17.737C14.6858 17.9799 14.5825 18.2096 14.4942 18.4472L14.4258 18.6309C14.2526 19.0953 14.0915 19.527 13.9916 19.9371C13.1224 19.9344 12.2767 19.5631 11.6336 18.8921ZM11.7671 23.641C11.5133 23.5776 11.2849 23.4675 11.151 23.3761C11.2629 23.3235 11.462 23.2519 11.8073 23.1808C13.4785 22.8367 13.7365 22.5939 14.3001 21.8783C14.4294 21.7143 14.5758 21.5283 14.7787 21.3017L14.7789 21.3014C15.0811 20.9632 15.2192 21.0205 15.4698 21.1244C15.673 21.2085 15.8708 21.4631 15.951 21.7432C15.9889 21.8755 16.0316 22.1268 15.8921 22.3221C14.7147 23.9705 12.9992 23.9494 11.7671 23.641ZM20.5129 31.7796C18.4685 32.2176 17.7446 31.1745 17.2676 29.982C16.9597 29.2121 16.8085 25.7405 16.9158 21.9067C16.9172 21.8557 16.91 21.8064 16.8959 21.7601C16.8837 21.6707 16.8648 21.5803 16.8388 21.4892C16.6791 20.9314 16.2901 20.4648 15.8233 20.2713C15.6379 20.1945 15.2975 20.0535 14.8885 20.1581C14.9758 19.7988 15.1271 19.393 15.291 18.9536L15.3598 18.7687C15.4373 18.5603 15.5344 18.3444 15.6373 18.116C16.1927 16.8819 16.9534 15.1918 16.1278 11.3734C15.8185 9.94332 14.7858 9.24496 13.2203 9.40712C12.2817 9.50424 11.4231 9.88294 10.9948 10.1001C10.9028 10.1467 10.8185 10.1918 10.7399 10.2357C10.8594 8.7947 11.311 6.1018 13.0004 4.39802C14.0639 3.32533 15.4805 2.79558 17.2064 2.8241C20.6071 2.87981 22.7878 4.625 24.0185 6.07928C25.079 7.3325 25.6532 8.59483 25.8824 9.27563C24.159 9.10043 22.9868 9.44068 22.3925 10.2902C21.0998 12.138 23.0998 15.7247 24.061 17.4484C24.2372 17.7644 24.3894 18.0374 24.4372 18.1534C24.7502 18.912 25.1554 19.4184 25.4513 19.7881C25.542 19.9014 25.63 20.0112 25.6969 20.1072C25.1749 20.2577 24.2373 20.6054 24.3227 22.3434C24.2538 23.2155 23.7637 27.2985 23.5148 28.7411C23.1861 30.6469 22.4848 31.3568 20.5129 31.7796ZM29.0464 22.0141C28.5126 22.2619 27.6193 22.4477 26.7708 22.4876C25.8335 22.5315 25.3564 22.3826 25.2442 22.2911C25.1914 21.208 25.5946 21.0948 26.0213 20.975C26.0883 20.9561 26.1537 20.9378 26.2169 20.9158C26.2561 20.9477 26.2991 20.9794 26.3461 21.0104C27.0994 21.5077 28.4431 21.5613 30.3399 21.1698C30.3469 21.1683 30.3539 21.167 30.3608 21.1656C30.105 21.4048 29.6672 21.7258 29.0464 22.0141Z" fill="white"/>
</svg>
