<svg width="32" height="32" viewBox="0 0 32 32" fill="none" xmlns="http://www.w3.org/2000/svg">
<g clip-path="url(#clip0_625_506)">
<path d="M16 32C24.8366 32 32 24.8366 32 16C32 7.16344 24.8366 0 16 0C7.16344 0 0 7.16344 0 16C0 24.8366 7.16344 32 16 32Z" fill="#FD8469"/>
<path d="M25.5498 10.2803C23.8616 11.2378 21.7703 12.1448 19.4522 12.9007C17.134 13.6567 14.9167 14.1102 12.9766 14.337C13.1025 15.37 13.3293 16.4535 13.6821 17.537C15.5214 23.2063 19.9561 26.8598 23.5844 25.7007C27.2128 24.5165 28.6994 18.9732 26.86 13.3039C26.5073 12.2204 26.0537 11.2126 25.5498 10.2803ZM14.8663 16.8567C16.5041 15.9496 18.5703 16.5291 19.5025 18.1669C17.8396 19.0992 15.7734 18.4944 14.8663 16.8567ZM22.7277 23.0551C20.6364 23.7354 18.3939 22.7023 17.512 20.7622C18.7466 21.4677 20.4348 21.6441 22.123 21.1149C23.786 20.5858 25.0459 19.4519 25.6506 18.1417C26.0537 20.2582 24.8191 22.3748 22.7277 23.0551ZM22.501 17.2094C22.2742 15.3448 23.6096 13.6567 25.4742 13.4299C25.701 15.2944 24.3655 16.9826 22.501 17.2094Z" fill="#324A5E"/>
<path d="M20.3085 9.7762C18.1668 9.65022 15.6723 9.27227 13.077 8.59195C10.4818 7.91164 8.13846 7.02975 6.1983 6.07227C5.69437 7.10534 5.26602 8.23919 4.93846 9.47384C3.27547 15.8486 5.24082 21.8959 9.32271 22.9542C13.4046 24.0124 18.066 19.729 19.729 13.3542C20.0566 12.1195 20.2581 10.9353 20.3085 9.7762ZM6.45027 9.54943C8.51641 9.67542 10.1038 11.4644 9.97783 13.5305C7.91169 13.4045 6.32429 11.6156 6.45027 9.54943ZM10.1038 19.9809C7.76051 19.3762 6.27389 17.1085 6.60145 14.74C7.33216 16.151 8.81877 17.3101 10.6833 17.7888C12.5479 18.2675 14.4125 17.9652 15.7479 17.1085C14.866 19.351 12.4471 20.6108 10.1038 19.9809ZM13.3794 14.4124C14.2865 12.5479 16.529 11.7668 18.3936 12.6738C17.4865 14.5384 15.244 15.3195 13.3794 14.4124Z" fill="white"/>
</g>
<defs>
<clipPath id="clip0_625_506">
<rect width="32" height="32" fill="white"/>
</clipPath>
</defs>
</svg>
