<svg width="41" height="21" viewBox="0 0 41 21" fill="none" xmlns="http://www.w3.org/2000/svg">
<path d="M10.1465 0.335469C10.1829 0.335389 10.2194 0.335309 10.2569 0.335226C10.3785 0.335006 10.5 0.335061 10.6216 0.335117C10.7099 0.335016 10.7981 0.334898 10.8864 0.334766C11.1285 0.334451 11.3707 0.334381 11.6129 0.334352C11.8473 0.334287 12.0818 0.33404 12.3163 0.333802C12.9443 0.333176 13.5722 0.332945 14.2002 0.332758C14.4976 0.332667 14.7949 0.332526 15.0923 0.33238C16.1111 0.331879 17.1299 0.33146 18.1487 0.331326C18.2126 0.331317 18.2765 0.331308 18.3405 0.3313C18.4045 0.331291 18.4686 0.331283 18.5327 0.331274C18.6612 0.331257 18.7897 0.331239 18.9182 0.331222C18.9501 0.331217 18.9819 0.331213 19.0148 0.331209C20.0471 0.331067 21.0795 0.330446 22.1119 0.329536C23.2046 0.328574 24.2973 0.32804 25.3899 0.327994C25.5101 0.327987 25.6302 0.327978 25.7503 0.327969C25.7947 0.327965 25.7947 0.327965 25.84 0.327962C26.3144 0.327917 26.7889 0.327488 27.2634 0.326919C27.741 0.326356 28.2186 0.326233 28.6962 0.326546C28.9546 0.326704 29.213 0.326665 29.4714 0.326114C29.7085 0.325614 29.9456 0.325667 30.1827 0.326138C30.268 0.326213 30.3532 0.326096 30.4384 0.325753C33.178 0.315432 35.7342 1.45242 37.67 3.3706C37.8957 3.59813 38.1037 3.83383 38.2994 4.08785C38.339 4.13763 38.3787 4.18739 38.4184 4.23712C38.7243 4.62441 38.9922 5.02518 39.2362 5.45403C39.253 5.4833 39.2697 5.51256 39.287 5.54272C39.7831 6.41932 40.1104 7.3692 40.3194 8.3523C40.3311 8.40693 40.3311 8.40693 40.343 8.46268C40.4677 9.07902 40.5012 9.67928 40.5 10.3064C40.4999 10.3658 40.4999 10.3658 40.4999 10.4263C40.4983 11.0586 40.4645 11.6653 40.3292 12.285C40.3163 12.345 40.3163 12.345 40.3032 12.4063C39.966 13.9428 39.2896 15.3567 38.2994 16.5787C38.282 16.6001 38.2647 16.6216 38.2468 16.6437C37.8096 17.1782 37.3268 17.6816 36.7771 18.101C36.7317 18.1368 36.6862 18.1725 36.6408 18.2083C34.8265 19.6207 32.6342 20.3405 30.3455 20.3361C30.257 20.3362 30.1685 20.3364 30.0801 20.3366C29.8385 20.337 29.597 20.3369 29.3554 20.3367C29.1212 20.3366 28.8869 20.3369 28.6526 20.3372C28.1148 20.3378 27.5769 20.3378 27.039 20.3377C26.6234 20.3377 26.2079 20.3377 25.7923 20.3379C25.7325 20.3379 25.6726 20.3379 25.6128 20.338C25.5226 20.338 25.4325 20.338 25.3423 20.3381C24.5045 20.3384 23.6667 20.3386 22.8288 20.3384C22.7973 20.3384 22.7658 20.3384 22.7333 20.3384C22.5734 20.3384 22.4135 20.3383 22.2537 20.3383C22.2219 20.3383 22.1902 20.3383 22.1575 20.3383C22.0933 20.3383 22.0291 20.3382 21.9649 20.3382C20.9664 20.338 19.9679 20.3383 18.9694 20.339C17.8459 20.3399 16.7224 20.3403 15.5989 20.3401C15.479 20.3401 15.359 20.3401 15.239 20.3401C15.2095 20.3401 15.18 20.3401 15.1495 20.3401C14.7051 20.34 14.2607 20.3403 13.8162 20.3407C13.3103 20.3412 12.8044 20.3412 12.2984 20.3407C12.0406 20.3405 11.7828 20.3405 11.5249 20.3409C11.2883 20.3414 11.0517 20.3412 10.8151 20.3407C10.7301 20.3406 10.6451 20.3407 10.5601 20.341C9.05376 20.3462 7.56768 20.018 6.21361 19.3501C6.18135 19.3343 6.14908 19.3185 6.11584 19.3022C5.42293 18.96 4.78288 18.5503 4.18385 18.062C4.16236 18.0445 4.14086 18.027 4.11871 18.009C3.59715 17.5815 3.11271 17.1135 2.70057 16.5787C2.66095 16.5289 2.62131 16.4791 2.58164 16.4294C2.27568 16.0421 2.00783 15.6413 1.76376 15.2125C1.74701 15.1832 1.73026 15.154 1.713 15.1238C1.21694 14.2472 0.889561 13.2973 0.680566 12.3142C0.672804 12.2778 0.665043 12.2414 0.657046 12.2038C0.532291 11.5875 0.498766 10.9872 0.500034 10.3601C0.500056 10.3205 0.500077 10.281 0.500099 10.2402C0.501655 9.60797 0.535458 9.00123 0.670807 8.38157C0.67938 8.34151 0.687953 8.30145 0.696785 8.26018C1.03396 6.7237 1.7104 5.30978 2.70057 4.08785C2.71795 4.06639 2.73534 4.04493 2.75325 4.02282C3.19107 3.48743 3.67417 2.98768 4.22289 2.56553C4.26017 2.53539 4.29746 2.50525 4.33587 2.4742C5.9345 1.20132 8.08828 0.331182 10.1465 0.335469ZM8.9899 4.10005C8.85087 4.29402 8.75243 4.50151 8.68266 4.72947C8.6178 4.86201 8.51999 4.94115 8.40927 5.03442C8.0548 5.34758 7.7953 5.71451 7.76002 6.20071C7.74502 6.57016 7.76862 6.90389 8.01893 7.19592C8.05274 7.22249 8.05274 7.22249 8.08724 7.24959C8.09365 7.21072 8.09365 7.21072 8.1002 7.17106C8.13452 6.97991 8.16509 6.82406 8.28241 6.66408C8.43206 6.7202 8.57187 6.78892 8.71315 6.86306C8.96539 6.9789 9.2905 6.97896 9.55604 6.91109C9.62726 6.88408 9.69678 6.85265 9.76569 6.82022C9.77551 6.84648 9.78532 6.87275 9.79543 6.89981C9.86394 7.06363 9.94763 7.21968 10.0317 7.37599C10.2717 7.84125 10.3863 8.34509 10.4882 8.85449C10.5078 8.95239 10.5279 9.05018 10.5481 9.14795C10.5748 9.27695 10.6013 9.40596 10.6278 9.53499C10.8436 10.5868 11.1067 11.4935 11.7564 12.363C11.7861 12.4028 11.8157 12.4426 11.8462 12.4836C12.0397 12.7297 12.2416 12.9218 12.4947 13.1045C12.9323 13.4249 12.9323 13.4249 12.9897 13.674C12.9979 13.7867 12.9983 13.8968 12.9957 14.0098C12.9966 14.0897 12.9978 14.1697 12.9994 14.2496C13.0001 14.2878 13.0007 14.326 13.0014 14.3653C13.0127 14.6554 13.0787 14.9171 13.2299 15.1661C13.2998 15.2819 13.333 15.3593 13.3251 15.4955C13.2655 15.6836 13.2058 15.7285 13.0445 15.837C12.9249 15.8969 12.8001 15.8852 12.6688 15.8858C12.6394 15.886 12.61 15.8862 12.5796 15.8864C12.3692 15.8844 12.1739 15.8573 11.9687 15.8126C11.7366 15.7631 11.5906 15.7547 11.3661 15.837C11.3283 15.8439 11.2906 15.8507 11.2517 15.8578C11.0301 15.899 10.8896 15.9318 10.7513 16.1176C10.7207 16.1664 10.6909 16.2158 10.6635 16.2664C10.7021 16.2793 10.7408 16.2922 10.7806 16.3054C10.8192 16.2797 10.8579 16.2539 10.8977 16.2274C10.9774 16.2112 10.9774 16.2112 11.0611 16.203C11.1102 16.1981 11.1593 16.1933 11.2099 16.1883C11.2099 16.2399 11.2099 16.2914 11.2099 16.3445C11.2615 16.3702 11.313 16.396 11.3661 16.4225C11.3661 16.5127 11.3661 16.6029 11.3661 16.6958C11.4007 16.6628 11.4353 16.6298 11.471 16.5958C11.5851 16.5003 11.5851 16.5003 11.7076 16.503C11.7955 16.5396 11.7955 16.5396 11.8735 16.6177C12.1336 16.6447 12.3009 16.5822 12.5298 16.464C12.5877 16.4352 12.6457 16.4063 12.7038 16.3776C12.729 16.3647 12.7542 16.3518 12.7801 16.3385C13.0933 16.1888 13.5032 16.2414 13.8252 16.3445C13.8252 16.3702 13.8252 16.396 13.8252 16.4225C13.7785 16.4193 13.7318 16.4161 13.6837 16.4128C13.5095 16.4125 13.4125 16.4645 13.2787 16.5787C13.2659 16.6173 13.253 16.656 13.2397 16.6958C13.2719 16.6829 13.3041 16.67 13.3373 16.6567C13.5583 16.5936 13.7286 16.5853 13.9335 16.6848C14.0587 16.7336 14.1244 16.7409 14.2491 16.6892C14.3002 16.6638 14.3508 16.6375 14.401 16.6104C14.6617 16.4819 14.8995 16.4106 15.1914 16.3835C15.1914 16.4093 15.1914 16.435 15.1914 16.4616C15.1588 16.4652 15.1588 16.4652 15.1255 16.4689C14.8829 16.5541 14.7286 16.8324 14.6059 17.0471C14.6059 17.0728 14.6059 17.0986 14.6059 17.1252C15.0768 17.1327 15.4714 16.8643 15.8592 16.6241C16.0362 16.5152 16.1969 16.5216 16.4014 16.5396C16.4842 16.5659 16.4842 16.5659 16.56 16.5982C16.7283 16.6697 16.884 16.6835 17.065 16.6567C17.1716 16.6039 17.1716 16.6039 17.2602 16.5396C17.37 16.5128 17.37 16.5128 17.4554 16.5006C17.3988 16.3813 17.364 16.3173 17.2422 16.2611C17.025 16.2081 16.8076 16.212 16.5849 16.2087C16.3792 16.2027 16.2265 16.1893 16.0501 16.0712C15.9605 15.9368 15.951 15.8395 15.933 15.6809C15.9556 15.6737 15.9781 15.6664 16.0014 15.6589C16.1435 15.5681 16.2188 15.4195 16.2661 15.2592C16.2862 15.1647 16.2926 15.0754 16.2967 14.9789C16.2983 14.9424 16.3 14.9059 16.3017 14.8684C16.3032 14.8306 16.3047 14.7928 16.3063 14.7538C16.308 14.7155 16.3097 14.6771 16.3114 14.6375C16.3155 14.5429 16.3195 14.4483 16.3234 14.3537C16.3561 14.3694 16.3889 14.385 16.4226 14.4012C16.7628 14.5623 17.1065 14.7136 17.453 14.8603C17.4866 14.8746 17.5201 14.8888 17.5546 14.9034C17.5993 14.9223 17.5993 14.9223 17.6449 14.9415C17.7286 14.9783 17.7286 14.9783 17.8102 15.022C17.8888 15.0645 17.8888 15.0645 18.0018 15.0564C18.0118 15.0846 18.0219 15.1129 18.0322 15.142C18.1832 15.4885 18.5005 15.8032 18.8435 15.9612C18.9572 15.9994 19.0537 15.9987 19.1728 15.9932C19.1857 15.9674 19.1986 15.9416 19.2119 15.9151C19.2831 15.9284 19.2831 15.9284 19.3558 15.9419C19.4842 15.9588 19.5192 15.9565 19.6413 15.898C19.667 15.8779 19.6928 15.8578 19.7193 15.837C19.7547 15.862 19.7902 15.8869 19.8267 15.9127C20.0324 16.0432 20.2216 16.0505 20.461 16.0322C20.5754 15.9984 20.5754 15.9984 20.6561 15.9541C20.5891 15.7154 20.4147 15.635 20.217 15.5043C20.0868 15.3871 20.0708 15.3023 20.0316 15.1344C19.9832 15.0547 19.9832 15.0547 19.9194 14.9905C19.8954 14.9645 19.8715 14.9385 19.8468 14.9117C19.7798 14.8439 19.7121 14.7776 19.6431 14.7119C19.32 14.4028 19.1497 14.141 19.0143 13.7097C18.3685 11.6628 17.0316 9.95297 15.5427 8.45476C15.5235 8.43541 15.5044 8.41605 15.4846 8.39611C15.3806 8.29255 15.2736 8.19443 15.1623 8.09873C14.9671 7.9295 14.7856 7.7473 14.6035 7.5643C14.5699 7.53091 14.5364 7.49753 14.5018 7.46313C13.8956 6.85598 13.4936 6.20577 13.118 5.44108C12.734 4.66189 12.2481 4.00696 11.4051 3.69751C10.613 3.43348 9.572 3.39215 8.9899 4.10005ZM27.808 6.13428C27.7357 6.20597 27.6631 6.27746 27.5904 6.34873C26.914 7.00038 26.914 7.00038 26.4673 7.81558C26.3827 7.99439 26.263 8.04641 26.0843 8.11077C26.0586 8.1197 26.033 8.12862 26.0065 8.13781C25.8193 8.20311 25.6559 8.28174 25.489 8.38889C25.449 8.4144 25.409 8.43991 25.3678 8.4662C24.8879 8.8154 24.4744 9.27552 24.0549 9.69224C23.9831 9.76341 23.9111 9.83436 23.8388 9.9051C23.0384 10.6892 22.4199 11.5177 22.4029 12.6899C22.4132 13.6607 22.7933 14.4814 23.4617 15.1808C24.1851 15.8776 25.1096 16.1294 26.0901 16.1187C27.0884 16.0927 27.8898 15.5721 28.5654 14.8783C28.7593 14.6801 28.9537 14.4872 29.1641 14.3065C29.7553 13.787 30.3055 13.2174 30.6098 12.4801C30.6098 12.4544 30.6098 12.4286 30.6098 12.4021C30.6422 12.3985 30.6747 12.3949 30.7081 12.3912C30.8691 12.3578 30.9984 12.2984 31.144 12.224C31.1716 12.2099 31.1992 12.1957 31.2277 12.1812C31.6662 11.9517 31.9981 11.6497 32.3399 11.2968C32.4323 11.2023 32.5269 11.1136 32.6272 11.0276C32.8316 10.8514 33.0232 10.6623 33.2147 10.4722C33.2571 10.4303 33.2996 10.3886 33.3423 10.347C34.0895 9.61999 34.5707 8.78495 34.601 7.72044C34.5907 6.73843 34.1831 5.88725 33.494 5.19855C33.0004 4.72532 32.3718 4.44354 31.7027 4.32205C31.6752 4.31692 31.6478 4.31179 31.6195 4.3065C29.9957 4.05512 28.874 5.07523 27.808 6.13428Z" fill="#1B3B3B"/>
<path d="M32.4139 6.1408C32.8496 6.49613 33.0689 6.96884 33.1319 7.51895C33.1768 8.01939 33.0511 8.49361 32.7327 8.88921C32.4472 9.21426 32.1361 9.51683 31.8303 9.82254C31.734 9.91893 31.6381 10.0156 31.5421 10.1123C31.4804 10.1741 31.4187 10.2359 31.357 10.2976C31.3286 10.3263 31.3002 10.355 31.2709 10.3846C31.1241 10.5308 30.9825 10.6554 30.8049 10.7626C30.7431 10.6182 30.7033 10.4759 30.6659 10.3235C30.3993 9.38743 29.775 8.71779 28.9377 8.25C28.7666 8.16192 28.6572 8.10835 28.4629 8.10835C28.1805 8.40046 28.0653 8.83681 28.0701 9.23301C28.0705 9.2711 28.0708 9.30919 28.0712 9.34843C28.0716 9.37716 28.0721 9.4059 28.0726 9.4355C28.1009 9.43987 28.1292 9.44425 28.1584 9.44876C28.5289 9.53608 28.8345 9.826 29.0463 10.13C29.3548 10.6289 29.4401 11.1475 29.3351 11.7226C29.2058 12.1907 28.9287 12.546 28.5867 12.8818C28.5543 12.9141 28.5219 12.9465 28.4886 12.9798C28.4205 13.0476 28.3523 13.1152 28.2839 13.1827C28.1803 13.2848 28.0774 13.3876 27.9745 13.4904C26.761 14.699 26.761 14.699 25.8694 14.7061C25.2859 14.6812 24.7609 14.4787 24.357 14.0488C23.9418 13.5477 23.8392 12.9965 23.8959 12.363C23.9199 12.2235 23.9564 12.1021 24.013 11.9727C24.023 11.9467 24.033 11.9207 24.0432 11.8939C24.2114 11.5027 24.5856 11.1986 24.8809 10.9017C24.9138 10.8687 24.9466 10.8356 24.9804 10.8015C25.0491 10.7325 25.1179 10.6635 25.1867 10.5945C25.292 10.4889 25.3968 10.3828 25.5017 10.2767C25.5688 10.2093 25.6359 10.142 25.7031 10.0747C25.7343 10.043 25.7655 10.0113 25.7976 9.9787C25.8416 9.93488 25.8416 9.93488 25.8865 9.89018C25.912 9.86449 25.9376 9.83879 25.9639 9.81232C26.0509 9.74111 26.1321 9.70603 26.238 9.6697C26.2494 9.72646 26.2494 9.72646 26.2611 9.78436C26.4464 10.6377 26.9177 11.4395 27.6603 11.9263C27.732 11.9689 27.8044 12.0103 27.8774 12.0508C27.9389 12.0854 27.9389 12.0854 28.0017 12.1208C28.2137 12.2449 28.2137 12.2449 28.4496 12.2799C28.6412 12.2086 28.7294 12.0176 28.8234 11.8454C28.9485 11.571 28.9617 11.2953 28.9703 10.9969C28.9212 10.984 28.8721 10.9711 28.8215 10.9578C28.399 10.8143 28.0994 10.5177 27.8774 10.1381C27.6108 9.59418 27.5576 9.0492 27.7423 8.46971C27.9087 8.09859 28.1381 7.82436 28.4255 7.53946C28.4636 7.50131 28.5016 7.46314 28.5396 7.42495C28.6188 7.34548 28.6984 7.26629 28.7781 7.18731C28.8792 7.08706 28.9796 6.98613 29.0799 6.88497C29.1581 6.80615 29.2367 6.72771 29.3155 6.64938C29.3704 6.59461 29.425 6.53953 29.4796 6.48444C30.3027 5.67309 31.435 5.43769 32.4139 6.1408Z" fill="#1B3B3B"/>
<path d="M14.4888 14.1976C14.5146 14.1976 14.5403 14.1976 14.5669 14.1976C14.5761 14.2206 14.5853 14.2436 14.5948 14.2673C14.6378 14.3736 14.6816 14.4796 14.7254 14.5855C14.7399 14.6217 14.7544 14.6578 14.7693 14.6951C14.9059 15.0224 15.0888 15.2998 15.3646 15.5272C15.3911 15.5494 15.4176 15.5716 15.445 15.5945C15.4643 15.6101 15.4837 15.6258 15.5037 15.6419C15.466 15.834 15.4279 15.947 15.2629 16.0687C15.0355 16.201 14.7885 16.2671 14.5278 16.2274C14.4327 16.1127 14.4327 16.1127 14.3717 15.9932C14.3524 15.9739 14.3524 15.9739 14.3327 15.9541C14.1935 15.9545 14.0548 15.9594 13.9158 15.9642C13.7862 15.9541 13.7862 15.9541 13.7107 15.9031C13.6483 15.8042 13.6615 15.7167 13.6691 15.6028C13.695 15.5924 13.7209 15.5819 13.7476 15.5711C13.7993 15.5482 13.7993 15.5482 13.8521 15.5248C13.886 15.5103 13.92 15.4958 13.955 15.4809C14.2142 15.2992 14.2929 15.0101 14.3619 14.7148C14.37 14.6822 14.3781 14.6495 14.3865 14.6159C14.4014 14.5555 14.4161 14.4951 14.4305 14.4346C14.4494 14.3555 14.4689 14.2765 14.4888 14.1976Z" fill="#1B3B3B"/>
</svg>
