<svg width="25" height="29" viewBox="0 0 25 29" fill="none" xmlns="http://www.w3.org/2000/svg">
<path fill-rule="evenodd" clip-rule="evenodd" d="M0 2.94823C0 1.65382 1.04933 0.604492 2.34374 0.604492H22.6562C23.9505 0.604492 25 1.65382 25 2.94823V6.29645C25 7.59086 23.9505 8.64019 22.6562 8.64019H2.34374C1.04933 8.64019 0 7.59086 0 6.29645V2.94823ZM4.48826e-07 12.9929C4.48826e-07 11.6985 1.04933 10.6491 2.34374 10.6491H22.6562C23.9505 10.6491 25 11.6985 25 12.9929V16.3411C25 17.6355 23.9505 18.6848 22.6562 18.6848H2.34374C1.04933 18.6848 4.48826e-07 17.6355 4.48826e-07 16.3411V12.9929ZM2.34374 20.6937C1.04933 20.6937 4.48826e-07 21.7431 4.48826e-07 23.0376V26.3857C4.48826e-07 27.6802 1.04933 28.7294 2.34374 28.7294H11.7187C13.0131 28.7294 14.0625 27.6802 14.0625 26.3857V23.0376C14.0625 21.7431 13.0131 20.6937 11.7187 20.6937H2.34374Z" fill="url(#paint0_linear_392_1098)"/>
<defs>
<linearGradient id="paint0_linear_392_1098" x1="0" y1="0.604492" x2="28.1251" y2="28.7294" gradientUnits="userSpaceOnUse">
<stop stop-color="#EA1330"/>
<stop offset="1" stop-color="#AF041A"/>
</linearGradient>
</defs>
</svg>
