<svg width="30" height="31" viewBox="0 0 30 31" fill="none" xmlns="http://www.w3.org/2000/svg">
<path fill-rule="evenodd" clip-rule="evenodd" d="M15 0.666992C23.2845 0.666992 30 7.55188 30 16.0464C30 22.8399 25.707 28.6029 19.7505 30.6384C18.99 30.7899 18.72 30.3096 18.72 29.9001C18.72 29.3931 18.738 27.7372 18.738 25.6792C18.738 24.2452 18.258 23.3092 17.7195 22.8323C21.06 22.4513 24.57 21.1506 24.57 15.2436C24.57 13.5636 23.988 12.1927 23.025 11.1157C23.181 10.7272 23.6955 9.16291 22.878 7.04491C22.878 7.04491 21.621 6.63282 18.7575 8.62182C17.559 8.28132 16.275 8.11 15 8.104C13.725 8.11 12.4425 8.28132 11.2455 8.62182C8.379 6.63282 7.119 7.04491 7.119 7.04491C6.3045 9.16291 6.819 10.7272 6.9735 11.1157C6.015 12.1927 5.4285 13.5636 5.4285 15.2436C5.4285 21.1356 8.931 22.4562 12.2625 22.8447C11.8335 23.2287 11.445 23.9061 11.31 24.9006C10.455 25.2936 8.283 25.9738 6.945 23.6233C6.945 23.6233 6.1515 22.1456 4.6455 22.0376C4.6455 22.0376 3.183 22.0181 4.5435 22.9721C4.5435 22.9721 5.526 23.4446 6.2085 25.2221C6.2085 25.2221 7.089 27.9671 11.262 27.0371C11.2695 28.3226 11.283 29.5341 11.283 29.9001C11.283 30.3066 11.007 30.7824 10.2585 30.6399C4.2975 28.6074 0 22.8414 0 16.0464C0 7.55188 6.717 0.666992 15 0.666992Z" fill="black"/>
</svg>
