<svg width="29" height="30" viewBox="0 0 29 30" fill="none" xmlns="http://www.w3.org/2000/svg">
<path d="M17.4692 14.9203C17.4692 15.7433 17.2158 16.4459 16.7089 17.028C16.202 17.6101 15.59 17.9013 14.873 17.9017C14.1558 17.9017 13.5436 17.6106 13.0364 17.0285C12.5293 16.4463 12.2757 15.7436 12.2757 14.9203C12.2757 14.0973 12.5291 13.3948 13.036 12.8127C13.5429 12.2306 14.1549 11.9394 14.8719 11.939C15.5891 11.939 16.2013 12.2301 16.7085 12.8122C17.2157 13.3944 17.4692 14.0971 17.4692 14.9203ZM20.5452 0.666992C18.9816 0.666992 16.936 1.94699 14.8673 4.16299C12.7995 1.95899 10.7528 0.693659 9.19042 0.693659C8.71415 0.693659 8.28087 0.817659 7.90566 1.06433C6.30845 2.12166 5.95066 5.41632 6.77542 9.55099C3.23945 10.8043 0.939453 12.8083 0.939453 14.9203C0.939453 17.0403 3.25107 19.0497 6.79748 20.2937C5.9797 24.4443 6.34445 27.7443 7.94516 28.8003C8.31688 29.0497 8.74667 29.167 9.22526 29.167C10.7876 29.167 12.8344 27.887 14.9032 25.6683C16.9709 27.8737 19.0177 29.139 20.5801 29.139C21.0564 29.139 21.4896 29.019 21.8648 28.7723C23.4609 27.7163 23.8198 24.4217 22.9951 20.2857C26.5182 19.043 28.8182 17.035 28.8182 14.9203C28.8182 12.8003 26.5067 10.791 22.9602 9.54432C23.778 5.39766 23.4132 2.09499 21.8126 1.03766C21.4432 0.792325 21.0133 0.668325 20.5452 0.666992ZM20.5394 2.12032C20.8007 2.12832 21.011 2.18699 21.1876 2.29766C21.9612 2.80699 22.297 4.74432 22.0356 7.23632C21.9729 7.84966 21.8706 8.49632 21.7451 9.15632C20.63 8.84166 19.415 8.60032 18.136 8.44432C17.3694 7.23766 16.5736 6.14166 15.7721 5.18166C17.6214 3.20832 19.358 2.12566 20.5394 2.12032ZM9.19042 2.14699C10.366 2.14699 12.1107 3.22432 13.9647 5.18699C13.1678 6.14699 12.3732 7.23632 11.6182 8.44299C10.3323 8.59899 9.11607 8.84032 8.00208 9.16032C7.87198 8.50699 7.77557 7.87499 7.70703 7.26699C7.43985 4.77632 7.76976 2.84032 8.53642 2.32432C8.75713 2.20432 9.00107 2.15499 9.19042 2.14699ZM14.8614 6.21366C15.39 6.83766 15.9185 7.53632 16.4412 8.29899C15.9301 8.27232 15.4074 8.25366 14.8788 8.25366C14.3445 8.25366 13.816 8.26699 13.2991 8.29899C13.8101 7.53632 14.3387 6.83766 14.8614 6.21366ZM14.8788 9.71499C15.7385 9.71499 16.5945 9.76032 17.4367 9.83899C17.9083 10.615 18.3683 11.443 18.8109 12.319C19.243 13.1723 19.6357 14.039 19.9935 14.9137C19.6357 15.787 19.243 16.6603 18.8167 17.5137C18.3753 18.3937 17.9188 19.231 17.446 20.007C16.6004 20.091 15.7431 20.1377 14.8788 20.1377C14.0192 20.1377 13.1632 20.091 12.321 20.0137C11.8494 19.2377 11.3894 18.4083 10.9468 17.5337C10.5147 16.6803 10.122 15.8137 9.76422 14.939C10.1162 14.063 10.5147 13.1883 10.941 12.3337C11.3824 11.4537 11.8389 10.619 12.3116 9.84299C13.1573 9.75765 14.0146 9.71232 14.8788 9.71499ZM10.6563 10.0537C10.3776 10.5563 10.0988 11.071 9.83862 11.6003C9.57723 12.1203 9.33329 12.643 9.10097 13.1657C8.79314 12.291 8.53178 11.419 8.31572 10.5697C9.05915 10.3697 9.84324 10.1923 10.6563 10.0537ZM19.0897 10.0537C19.897 10.191 20.6753 10.3603 21.4199 10.5697C21.2108 11.4123 20.9495 12.279 20.6532 13.147C20.4209 12.627 20.177 12.103 19.9098 11.5817C19.6485 11.059 19.3697 10.5497 19.0897 10.0537ZM22.6477 10.9537C23.21 11.1537 23.7443 11.3763 24.245 11.6177C26.2569 12.6043 27.5579 13.895 27.5579 14.919C27.5521 15.943 26.251 17.239 24.2391 18.219C23.7513 18.459 23.217 18.675 22.6651 18.8763C22.3399 17.599 21.9148 16.2683 21.3874 14.903C21.9101 13.547 22.3283 12.223 22.6477 10.9537ZM7.08788 10.959C7.41082 12.239 7.83713 13.5683 8.36567 14.9323C7.84294 16.2883 7.42243 17.6123 7.10415 18.8843C6.54193 18.6843 6.00758 18.4603 5.51273 18.2177C3.50082 17.235 2.19981 15.943 2.19981 14.919C2.19981 13.895 3.50082 12.5963 5.51273 11.6177C6.00061 11.3777 6.53496 11.1617 7.08788 10.959ZM20.6532 16.6657C20.961 17.5417 21.2224 18.415 21.4385 19.263C20.6951 19.4723 19.9098 19.6497 19.0966 19.783C19.3754 19.283 19.6542 18.767 19.9156 18.239C20.1769 17.719 20.4209 17.1883 20.6532 16.6657ZM9.10097 16.6923C9.33329 17.215 9.57723 17.7363 9.84437 18.259C10.1116 18.779 10.3845 19.2883 10.6633 19.783C9.85605 19.647 9.07774 19.4763 8.33314 19.2683C8.54223 18.4283 8.80476 17.559 9.10097 16.6923ZM21.7556 20.675C21.8857 21.3323 21.9879 21.9657 22.0507 22.5723C22.3179 25.063 21.9879 26.999 21.2213 27.5163C21.0505 27.6363 20.8286 27.687 20.5673 27.687C19.3917 27.687 17.6469 26.611 15.793 24.647C16.5899 23.687 17.3845 22.599 18.1395 21.3937C19.4254 21.2363 20.6417 20.9937 21.7556 20.675ZM8.0137 20.6883C9.12885 21.0003 10.3439 21.2417 11.6229 21.3977C12.3895 22.6043 13.1852 23.7003 13.9867 24.659C12.1339 26.6363 10.395 27.719 9.21248 27.719C8.95693 27.7123 8.74087 27.6523 8.57011 27.543C7.79648 27.0363 7.46076 25.0977 7.72213 22.6057C7.78485 21.9923 7.88708 21.347 8.0137 20.6883ZM13.3107 21.5417C13.8218 21.5683 14.3445 21.587 14.873 21.587C15.4074 21.587 15.9359 21.5737 16.4529 21.5417C15.9417 22.3043 15.4132 23.0017 14.8904 23.6283C14.362 23.0017 13.8334 22.3043 13.3107 21.5417Z" fill="#61DAFB"/>
</svg>
